<?xml version="1.0" encoding="UTF-8"?>
<svg width="127px" height="100px" viewBox="0 0 127 100" version="1.1" xmlns="http://www.w3.org/2000/svg" xmlns:xlink="http://www.w3.org/1999/xlink">
    <!-- Generator: Sketch 52 (66869) - http://www.bohemiancoding.com/sketch -->
    <title>clarify_with_mentor</title>
    <desc>Created with Sketch.</desc>
    <defs>
        <path d="M20.2446626,13.7740766 C23.1130297,25.4340167 5.58223251,13.4717484 1.67932005,23.1111588 C-2.22359241,32.7505691 1.64121062,44.3518109 3.57328152,55.0774904 C5.50535243,65.8031699 1.89902042,89.2190713 23.1130297,93.7416289 C37.4500943,100.091294 50.6708872,107.619536 85.7965531,82.847289 C120.24777,65.4647128 145.311736,16.0440329 109.704054,19.5504826 C74.0963713,23.0569323 68.7529588,-14.4641351 54.0956282,6.29772079 C39.4382977,27.0595767 17.3762954,2.11413649 20.2446626,13.7740766 Z" id="path-1"></path>
        <linearGradient x1="25.7898403%" y1="92.5182164%" x2="89.6981579%" y2="-3.7934039%" id="linearGradient-3">
            <stop stop-color="#FCEFFF" offset="0%"></stop>
            <stop stop-color="#C9E7FF" offset="100%"></stop>
        </linearGradient>
        <path d="M3.45652174,5.10230156e-16 L155.543478,0 C157.452463,-3.4968928e-16 159,1.54318873 159,3.44680851 L159,104.553191 C159,106.456811 157.452463,108 155.543478,108 L3.45652174,108 C1.5475375,108 2.33783144e-16,106.456811 0,104.553191 L0,3.44680851 C-2.33783144e-16,1.54318873 1.5475375,8.59919436e-16 3.45652174,5.10230156e-16 Z" id="path-4"></path>
        <linearGradient x1="9.10523164%" y1="110.865056%" x2="170.128452%" y2="60.696788%" id="linearGradient-6">
            <stop stop-color="#843E3E" offset="0%"></stop>
            <stop stop-color="#C08775" offset="100%"></stop>
        </linearGradient>
        <path d="M4.29120274,15.6196653 C4.96581702,12.1170915 2.94310655,6.37279774 0.328497267,0.224190838 L10.860156,2.98351122 C11.1616458,9.15686767 11.3123907,12.9058235 11.3123907,14.2303787 C11.3123907,16.1951527 9.41937911,21.8031149 7.43860922,34.3844576 C7.73006788,35.873559 8.53757883,36.9883276 9.86114205,37.7287636 C11.0640229,38.4016867 12.6809868,38.9940932 14.5443171,39.6998166 C15.756398,40.1588838 15.4552029,41.0978367 14.0631081,41.0978367 C10.514866,41.0978367 7.79701117,41.0978367 5.90954367,41.0978367 C5.08689631,41.0978367 4.36024589,40.181288 3.72959239,38.3481906 L3.5080028,41.2245935 C2.1350514,41.2245935 1.0022504,41.4150408 1.33487642,40.4198131 L2.22378422,34.384461 C2.96935115,29.6526092 2.0463551,27.274836 4.29120274,15.6196653 Z" id="path-7"></path>
        <path d="M3.24390236,16.3798819 C3.6972882,12.6591121 2.61667648,6.37279774 0.00206720228,0.224190838 L10.4394973,1.21182623 C10.1672127,6.84177666 10.0310704,10.6501682 10.0310704,12.637001 C10.0310704,14.6017751 9.50695605,21.8509273 8.45872736,34.3844576 C8.75018603,35.873559 9.55769697,36.9883276 10.8812602,37.7287636 C12.084141,38.4016867 13.701105,38.9940932 15.5644353,39.6998166 C16.7765161,40.1588838 16.475321,41.0978367 15.0832262,41.0978367 C11.5349841,41.0978367 8.81712931,41.0978367 6.92966181,41.0978367 C6.10701446,41.0978367 5.38036403,40.181288 4.74971054,38.3481906 L4.52812094,41.2245935 C3.15516954,41.2245935 2.02236854,41.4150408 2.35499456,40.4198131 L3.24390236,34.384461 C3.98946929,29.6526092 1.92237751,27.2251471 3.24390236,16.3798819 Z" id="path-9"></path>
        <linearGradient x1="134.336457%" y1="14.6433308%" x2="6.66193047%" y2="100%" id="linearGradient-11">
            <stop stop-color="#404683" offset="0%"></stop>
            <stop stop-color="#373A5B" offset="100%"></stop>
        </linearGradient>
        <path d="M0.846040089,4.03140048 C-1.14648525,10.4144512 1.707647,25.8021326 1.707647,28.0003165 C1.707647,30.1985004 21.0934472,30.08483 23.3795314,28.0003165 C22.2194538,13.9283641 21.2761973,5.88440914 20.5497621,3.86845151 C19.4601093,0.844515052 2.83856543,-2.35165028 0.846040089,4.03140048 Z" id="path-12"></path>
        <linearGradient x1="-8.21639051%" y1="126.905762%" x2="89.8115447%" y2="0%" id="linearGradient-14">
            <stop stop-color="#FFCFAA" offset="0%"></stop>
            <stop stop-color="#FA6EB9" offset="100%"></stop>
        </linearGradient>
        <path d="M25.5976649,16.7077662 C25.6777444,18.4349162 23.8245302,19.2767719 20.0380222,19.2333332 C19.4878576,23.5722349 20.7635845,25.5885122 22.0530898,30.8100573 C22.0827473,30.930148 22.0733989,31.0557943 22.0825416,31.1816608 C20.82136,31.1816608 13.8071243,33.2680609 2.28632201,31.1816608 C4.51076886,23.968464 5.03033628,23.469194 5.01819234,20.7318125 C3.42425833,19.5935702 2.16991785,17.7022335 1.25517091,15.0578022 C-0.116949512,11.0911552 -0.341302199,5.82154332 2.28632201,3.73640702 C3.4589906,2.7913726 4.53257104,2.00865072 5.80213739,1.46992577 C7.07170373,0.931200817 8.28951806,0.712305677 9.47776643,0.597680743 C15.1765656,0.0479434183 10.3870555,0.0327058294 15.1723331,1.32927336 C18.355193,2.19166695 25.2390231,8.97259519 25.5976649,16.7077662 Z" id="path-15"></path>
        <linearGradient x1="25.0928379%" y1="65.3020913%" x2="117.882934%" y2="-13.5297543%" id="linearGradient-17">
            <stop stop-color="#321847" offset="0%"></stop>
            <stop stop-color="#834A88" offset="100%"></stop>
        </linearGradient>
        <linearGradient x1="67.8131873%" y1="0%" x2="6.66193047%" y2="100%" id="linearGradient-18">
            <stop stop-color="#FFB782" offset="0%"></stop>
            <stop stop-color="#EB4878" offset="100%"></stop>
        </linearGradient>
        <linearGradient x1="60.0821709%" y1="23.8262208%" x2="0%" y2="110.629515%" id="linearGradient-19">
            <stop stop-color="#F68585" offset="0%"></stop>
            <stop stop-color="#FF9B92" offset="100%"></stop>
        </linearGradient>
        <path d="M2.95279195,4.46599547 C2.14478946,4.78644329 1.28597964,4.89519245 1.91846539e-13,5.41942021 C1.16108425,7.22009077 8.36032592,10.9854444 8.90566214,10.9854444 C9.20779331,10.9854444 11.4250027,6.51192226 10.5861754,5.89600228 C10.1534677,5.5782809 9.3540796,5.27130985 8.18801122,4.97508914 L8.31342481,2.22564066 L4.34800236,0.177410542 C4.26511935,2.70045119 3.80004921,4.12997949 2.95279195,4.46599547 Z" id="path-20"></path>
        <linearGradient x1="9.10523164%" y1="110.865056%" x2="87.6008642%" y2="23.8262208%" id="linearGradient-22">
            <stop stop-color="#FF9292" offset="0%"></stop>
            <stop stop-color="#FFB59D" offset="100%"></stop>
        </linearGradient>
        <path d="M9.03332459,3.50479794 C8.63438605,6.91185157 7.98122066,9.90492877 6.42704881,9.90492877 C4.26883703,9.90492877 2.1938327,7.51910136 1.65022587,5.21576968 C1.64430241,5.19067121 1.63852093,5.16579005 1.63288144,5.14112619 C1.57799359,5.14880366 1.52190654,5.15277403 1.46488547,5.15277403 C0.805786239,5.15277403 0.271480745,4.62230301 0.271480745,3.96793384 C0.271480745,3.31356467 0.805786239,2.78309365 1.46488547,2.78309365 C1.87913795,2.78309365 2.24409333,2.99264492 2.45807774,3.31080327 C2.52058503,3.33912586 2.45807774,2.15938378e-14 6.31846635,0.252477857 C9.30608823,0.447874862 9.0869669,3.04667669 9.03332459,3.50479794 Z" id="path-23"></path>
        <path d="M1.13457432,16.6563205 C2.62672389,18.907361 4.4052861,19.8993725 6.47026097,19.632355 C8.53523584,19.3653376 10.4943236,13.3825549 12.3475244,1.68400682 C11.1174381,0.865630377 9.95524548,0.577051933 8.86094658,0.81827149 C7.33626902,7.434055 2.8003714,14.5417098 1.13457432,16.6563205 Z" id="path-25"></path>
        <linearGradient x1="9.10523164%" y1="110.865056%" x2="71.9003911%" y2="24.892819%" id="linearGradient-27">
            <stop stop-color="#FF9292" offset="0%"></stop>
            <stop stop-color="#FFB59D" offset="100%"></stop>
        </linearGradient>
        <path d="M1.5788854,5.85206335 C1.49865834,5.00974634 1.3864822,4.46480278 1.24235697,4.21723268 C0.564468082,3.05279379 -0.342366894,2.33633319 0.521739546,2.42857631 C2.12373024,2.59958838 1.68327053,3.66238957 3.50764464,3.44129714 C5.33201875,3.22020471 5.57261204,2.39043319 6.84593056,0.699674974 C8.11924908,-0.991083246 7.00808364,2.50633752 6.59705942,3.29703211 C6.18603519,4.0877267 5.94438513,5.40468586 5.31802291,5.85206335 C4.90044809,6.150315 4.53811081,6.92835882 4.23101105,8.1861948 C2.95562636,8.87588593 1.88822869,8.60981024 1.02881803,7.38796774 L1.5788854,5.85206335 Z" id="path-28"></path>
        <path d="M4.22434608,0.218557238 C0.974849095,6.45833333 3.12701563,17.3400693 2.92045469,28.1577965 C2.74948116,37.111789 0.631860818,47.636245 0.481207975,49.7440563 C0.398131058,50.9064006 -0.324949698,54.5935912 1.09308913,54.7365295 C2.51112796,54.8794678 5.13699086,54.8998765 5.96774743,54.8998765 C6.798504,54.8998765 7.29615171,50.328868 7.47384306,49.269018 C7.74378152,47.6589548 8.86750088,40.189834 10.2052839,31.98245 C10.7449061,28.6718338 11.6431846,23.3517608 12.9001196,16.0222311 C14.7210874,35.555236 15.4320147,47.2580666 15.0329015,51.1307227 C14.9153893,52.270961 14.5321801,54.7365295 15.1667254,54.7365295 C15.8012707,54.7365295 20.1226678,54.8998765 20.5984614,54.8998765 C21.074255,54.8998765 20.9327275,52.1941949 21.383353,49.269018 C21.5552206,48.1533615 22.4371674,41.7713333 22.4215292,31.2731913 C22.4121715,24.9912754 22.4371674,17.6008939 21.383353,8.07291667 C21.2156596,6.55673101 20.8457125,4.40395324 20.2735117,1.61458333 L4.22434608,0.218557238 Z" id="path-30"></path>
        <linearGradient x1="50%" y1="0%" x2="50%" y2="100%" id="linearGradient-32">
            <stop stop-color="#AF3053" offset="0%"></stop>
            <stop stop-color="#7A3343" offset="100%"></stop>
        </linearGradient>
        <linearGradient x1="43.4983217%" y1="90.8808934%" x2="79.0409349%" y2="0%" id="linearGradient-33">
            <stop stop-color="#5D63D3" offset="0%"></stop>
            <stop stop-color="#B986FF" offset="100%"></stop>
        </linearGradient>
        <path d="M20.0274568,1.27083333 C15.5313992,0.0312679539 19.9306524,-0.0362226513 14.5762862,0.489346082 C12.3826511,0.704666808 10.1639792,1.73226479 7.92027051,3.57214003 C5.45145875,5.56560563 2.94593277,9.45983941 1.65466224,12.1800692 C0.363391709,14.9002989 -0.660652981,17.4739583 1.65466224,18.6311327 C2.32579616,19.2094505 3.76040453,18.1486527 5.95848735,15.4487393 L9.47609692,10.4819964 C10.2058639,15.4588555 10.5746211,18.8357648 10.5823684,20.6127245 C10.5937784,23.22976 7.92027051,26.0607704 7.92027051,32.987877 C8.140874,33.0123359 9.26095912,27.4222986 9.47609692,27.4449657 C9.74123594,27.4729009 9.21911523,32.9626007 9.47609692,32.987877 C14.7292653,33.5045702 15.9192327,36.4177349 20.0274568,35.9010417 C20.3351413,35.862344 20.7968613,33.6464838 21.4126165,29.253461 C22.0862023,33.7210298 22.6192841,35.93689 23.0118619,35.9010417 C24.6257249,35.7536713 25.8504844,34.4402368 27.0354408,34.4402368 C27.278664,34.4402368 26.4336594,29.5230445 26.0929329,27.0052083 C25.9459514,25.9190729 25.4667662,22.7715209 25.4667662,18.4270833 C25.4667662,16.7326389 25.6754884,14.8699062 26.0929329,12.8388854 C29.1407174,16.0147646 31.4459943,17.634198 33.0087634,17.6971855 C34.5715325,17.7601729 34.4393353,15.9211342 32.6121719,12.1800692 C27.2197335,5.7336222 23.0248285,2.09721025 20.0274568,1.27083333 Z" id="path-34"></path>
        <path d="M0.130790794,4.33964362 C1.13381247,6.40483938 3.75150793,7.02544353 4.31393621,7.02544353 C4.6888884,7.02544353 4.81385693,6.30319033 4.68884181,4.85868393 L4.80977634,2.17356598 L0.985976119,0.173259559 C1.14663407,2.84670525 0.861572299,4.23549994 0.130790794,4.33964362 Z" id="path-36"></path>
        <path d="M7.96337942,0.246570478 C8.53320451,1.74469256 8.78231332,2.80343375 8.71070585,3.42279404 C8.32601512,6.75013074 7.69617706,9.67317708 6.19751135,9.67317708 C4.11637856,9.67317708 2.11548153,7.34317234 1.59128923,5.09373313 C1.58557732,5.0692219 1.58000232,5.04492289 1.57456424,5.02083611 C1.52163668,5.02833395 1.46755274,5.03221142 1.41256813,5.03221142 C0.777008159,5.03221142 0.261785004,4.51415215 0.261785004,3.87509366 C0.261785004,3.23603517 0.777008159,2.7179759 1.41256813,2.7179759 C1.81202588,2.7179759 2.16394714,2.92262418 2.37028925,3.23333838 C2.48655456,3.28669208 6.4892796,3.44625969 7.96337942,0.246570478 Z" id="path-38"></path>
        <path d="M0.24125973,11.6608918 L4.86497472,4.86541713 C5.31527363,3.86340623 5.60874066,2.94979448 6.06022031,2.42610022 C6.78251363,1.58827537 6.06200351,0.213426136 6.85614069,0.213426136 C7.00823854,0.213426136 7.50854247,0.546353376 7.586969,0.95 C7.64897816,1.26914952 7.64897816,1.64304695 7.586969,2.07169228 C8.64857033,2.17223347 9.30490217,2.36977818 9.55596451,2.66432641 C9.94997783,3.1265858 9.78472131,4.99305191 9.55596451,5.60718292 C9.23682203,6.46396749 8.81875805,6.46396749 7.92112172,6.73224383 C7.70073633,6.79811035 6.96678558,6.7927941 6.56852471,7.02423463 C4.7734227,11.1417829 3.65215026,13.9959915 2.4618674,15.8333333 C1.33857778,15.3199241 0.598375219,13.9291102 0.24125973,11.6608918 Z" id="path-40"></path>
        <linearGradient x1="50%" y1="0%" x2="50%" y2="100%" id="linearGradient-42">
            <stop stop-color="#A3EDED" offset="0%"></stop>
            <stop stop-color="#9FCFFF" offset="100%"></stop>
        </linearGradient>
        <path d="M0.221669679,4.2298736 C0.0796957251,2.73497336 1.28086969,1.54209853 3.82519158,0.651249116 L13.7215563,1.7729177 C13.7201352,1.76294317 13.7186788,1.75302012 13.717185,1.74314795 C14.7599416,0.866941348 15.5754511,0.428838049 16.1637133,0.428838049 L15.9317185,1.49838373 C17.3803573,1.44190429 18.4409661,1.08538906 19.1135451,0.428838049 C20.1224136,-0.555988468 19.623245,1.64670131 18.9694973,1.98752324 C18.3157497,2.32834516 18.6010287,4.28988178 17.0326983,4.59806104 C15.9871448,4.80351387 13.2066404,4.46412472 13.2219541,4.39709788 C4.11668215,5.02251597 1.43189409,5.24608752 0.221669679,4.2298736 Z" id="path-43"></path>
    </defs>
    <g id="Adwords-Page" stroke="none" stroke-width="1" fill="none" fill-rule="evenodd">
        <g id="Home" transform="translate(-1101.000000, -2619.000000)">
            <g id="Process-Flow" transform="translate(169.000000, 2351.000000)">
                <g id="Process" transform="translate(0.000000, 231.000000)">
                    <g id="Do4" transform="translate(887.000000, 10.000000)">
                        <g id="clarify_with_mentor" transform="translate(45.000000, 27.000000)">
                            <mask id="mask-2" fill="white">
                                <use xlink:href="#path-1"></use>
                            </mask>
                            <use id="Mask" fill="#EBEBEB" transform="translate(63.500000, 50.000000) rotate(180.000000) translate(-63.500000, -50.000000) " xlink:href="#path-1"></use>
                            <g id="Desktop-browser" mask="url(#mask-2)">
                                <mask id="mask-5" fill="white">
                                    <use xlink:href="#path-4"></use>
                                </mask>
                                <use id="Path" fill="url(#linearGradient-3)" fill-rule="nonzero" xlink:href="#path-4"></use>
                                <path d="M0,9 L26,9 L26,108 L3.39130435,108 C1.51833867,108 7.31386031e-16,106.458302 5.02013889e-16,104.556522 L0,9 Z" id="Path" fill="url(#linearGradient-3)" fill-rule="nonzero" mask="url(#mask-5)"></path>
                                <path d="M13,26 C10.2385763,26 8,23.7614237 8,21 C8,18.2385763 10.2385763,16 13,16 C15.7614237,16 18,18.2385763 18,21 C18,23.7614237 15.7614237,26 13,26 Z M13,24.8235294 C15.111677,24.8235294 16.8235294,23.111677 16.8235294,21 C16.8235294,18.888323 15.111677,17.1764706 13,17.1764706 C10.888323,17.1764706 9.17647059,18.888323 9.17647059,21 C9.17647059,23.111677 10.888323,24.8235294 13,24.8235294 Z" id="Oval" fill="#FFFFFF" fill-rule="nonzero" mask="url(#mask-5)"></path>
                                <path d="M3.45652174,0 L155.543478,0 C157.452463,-3.5344938e-16 159,1.55978216 159,3.48387097 L159,9 L0,9 L5.11668003e-16,3.48387097 C2.77884858e-16,1.55978216 1.5475375,1.38488238e-15 3.45652174,0 Z" id="Path" fill="#FFFFFF" fill-rule="nonzero" opacity="0.449823289" mask="url(#mask-5)"></path>
                                <circle id="Oval" fill="#F3757C" fill-rule="nonzero" mask="url(#mask-5)" cx="6" cy="5" r="1"></circle>
                                <circle id="Oval-Copy-69" fill="#C1A4FF" fill-rule="nonzero" mask="url(#mask-5)" cx="10" cy="5" r="1"></circle>
                                <circle id="Oval-Copy-70" fill="#85CFF3" fill-rule="nonzero" mask="url(#mask-5)" cx="14" cy="5" r="1"></circle>
                                <path d="M10.6440492,33 C10.2883506,33 10,32.7761424 10,32.5 C10,32.2238576 10.2883506,32 10.6440492,32 L16.3559508,32 C16.7116494,32 17,32.2238576 17,32.5 C17,32.7761424 16.7116494,33 16.3559508,33 L10.6440492,33 Z" id="Path-162" fill="#FFFFFF" fill-rule="nonzero" mask="url(#mask-5)"></path>
                                <path d="M34.6440492,18 C34.2883506,18 34,17.7761424 34,17.5 C34,17.2238576 34.2883506,17 34.6440492,17 L40.3559508,17 C40.7116494,17 41,17.2238576 41,17.5 C41,17.7761424 40.7116494,18 40.3559508,18 L34.6440492,18 Z" id="Path-162-Copy-2" fill="#FFFFFF" fill-rule="nonzero" mask="url(#mask-5)"></path>
                                <path d="M7.57502287,35 C7.25744651,35 7,34.7761424 7,34.5 C7,34.2238576 7.25744651,34 7.57502287,34 L18.4249771,34 C18.7425535,34 19,34.2238576 19,34.5 C19,34.7761424 18.7425535,35 18.4249771,35 L7.57502287,35 Z" id="Path-162-Copy" fill="#EAF2FF" fill-rule="nonzero" mask="url(#mask-5)"></path>
                                <path d="M34.5750229,22 C34.2574465,22 34,21.7761424 34,21.5 C34,21.2238576 34.2574465,21 34.5750229,21 L45.4249771,21 C45.7425535,21 46,21.2238576 46,21.5 C46,21.7761424 45.7425535,22 45.4249771,22 L34.5750229,22 Z" id="Path-162-Copy-3" fill="#F2F4FF" fill-rule="nonzero" mask="url(#mask-5)"></path>
                            </g>
                            <g id="Mentors" mask="url(#mask-2)">
                                <g transform="translate(35.000000, 13.000000)">
                                    <g id="Dini-pose-3" transform="translate(0.000000, 8.000000)">
                                        <g id="Legs" transform="translate(3.000000, 63.968750)">
                                            <g id="Path-24-Copy-2" transform="translate(9.979610, 0.000000)">
                                                <mask id="mask-8" fill="white">
                                                    <use xlink:href="#path-7"></use>
                                                </mask>
                                                <use id="Path" fill="url(#linearGradient-6)" fill-rule="nonzero" xlink:href="#path-7"></use>
                                                <path d="M9.37908748,5.58519787 C6.06478147,7.29102529 3.50515128,8.14393901 1.70019691,8.14393901 C-0.104757473,8.14393901 0.235281908,6.85296764 2.72031505,4.27102491 L9.37908748,5.58519787 Z" id="Path-76" fill="#50211F" fill-rule="nonzero" opacity="0.200000003" mask="url(#mask-8)"></path>
                                            </g>
                                            <g id="Path-24" transform="translate(0.118468, 0.000000)">
                                                <mask id="mask-10" fill="white">
                                                    <use xlink:href="#path-9"></use>
                                                </mask>
                                                <use id="Path" fill="url(#linearGradient-6)" fill-rule="nonzero" xlink:href="#path-9"></use>
                                                <path d="M10.3992056,5.58519787 C7.08489962,7.29102529 4.52526943,8.14393901 2.72031505,8.14393901 C0.91536067,8.14393901 1.25540005,6.85296764 3.74043319,4.27102491 L10.3992056,5.58519787 Z" id="Path-76" fill="#50211F" fill-rule="nonzero" opacity="0.200000003" mask="url(#mask-10)"></path>
                                            </g>
                                        </g>
                                        <g id="Skirt" transform="translate(1.000000, 41.968750)">
                                            <g id="Path-75">
                                                <mask id="mask-13" fill="white">
                                                    <use xlink:href="#path-12"></use>
                                                </mask>
                                                <use id="Path-70" fill="url(#linearGradient-11)" fill-rule="nonzero" xlink:href="#path-12"></use>
                                                <path d="M20.9759422,1.94252439 C20.7971702,5.0487199 18.2312864,6.60181766 13.2782907,6.60181766 C5.84879725,6.60181766 12.7060409,8.97912898 5.11659887,10.8150549 C-2.4728432,12.6509809 4.33362641,18.8419384 -0.280398952,18.8419384 C-3.35641586,18.8419384 -2.9989728,13.3799709 0.791930223,2.45603597 L20.9759422,1.94252439 Z" id="Path-16" fill="#151731" fill-rule="nonzero" opacity="0.300000012" mask="url(#mask-13)"></path>
                                            </g>
                                        </g>
                                        <g id="Shirt" transform="translate(0.000000, 14.968750)">
                                            <mask id="mask-16" fill="white">
                                                <use xlink:href="#path-15"></use>
                                            </mask>
                                            <use id="Path" fill="url(#linearGradient-14)" fill-rule="nonzero" xlink:href="#path-15"></use>
                                            <path d="M11.0755607,5.85798977 C9.56219444,11.9843919 8.30230528,14.8954526 7.29589317,14.5911716 C6.28948107,14.2868907 5.64353061,12.3857552 5.3580418,8.88776504 C5.90124379,8.64227151 6.35446102,9.30534571 6.71769349,10.8769876 C7.08092596,12.4486296 8.53354836,10.7756303 11.0755607,5.85798977 Z" id="Path-31" fill="#5A2B77" fill-rule="nonzero" opacity="0.300000012" mask="url(#mask-16)"></path>
                                            <ellipse id="Oval" fill="#FFFFFF" fill-rule="nonzero" mask="url(#mask-16)" cx="15.1879479" cy="9.47107271" rx="1" ry="1"></ellipse>
                                            <ellipse id="Oval-Copy-53" fill="#FFFFFF" fill-rule="nonzero" mask="url(#mask-16)" cx="15.8705523" cy="12.7942561" rx="1" ry="1"></ellipse>
                                            <path d="M22.6043852,19.343848 C14.2116168,18.7362722 8.4003107,17.9222238 5.17046696,16.9017029 C4.36707115,16.6478571 3.82195821,19.2598671 3.07171979,18.9666027 C2.02992483,18.3983854 1.72515531,18.5241338 2.15741122,19.343848 C3.2857996,21.4836821 7.0432909,24.0392896 8.45619385,24.0392896 C11.7933517,24.0392896 12.53795,18.7619905 16.09389,20.1124427 C18.4645167,21.0127441 20.6346817,20.7565459 22.6043852,19.343848 Z" id="Path-32" fill="#5A2B77" fill-rule="nonzero" opacity="0.300000012" mask="url(#mask-16)"></path>
                                            <path d="M13.7393596,5.62892346 C14.0534324,17.1482906 13.1711201,23.0974784 11.0924227,23.4764869 C7.97437659,24.0449996 5.56762632,21.9590809 4.80478973,24.6360564 C4.04195314,27.3130319 8.22756362,30.7605288 4.80478973,31.2133912 C2.52294047,31.5152995 1.65828377,32.6541363 2.21081962,34.6299015 L1.38201584,19.753442 L7.90380284,18.7963352 L13.7393596,5.62892346 Z" id="Path-30" fill="#5A2B77" fill-rule="nonzero" opacity="0.300000012" mask="url(#mask-16)"></path>
                                            <path d="M9.6503951,14.0498718 L21.3418242,13.211832 C20.6392078,11.1233 19.9327635,9.24534102 19.2224914,7.57795511 C19.7572002,9.63944735 19.2680937,10.5574126 17.7551719,10.3318509 C15.4857891,9.9935083 16.8551674,13.4307302 14.418014,12.8329916 C12.7932451,12.4344992 11.2040388,12.8401259 9.6503951,14.0498718 Z" id="Path-33" fill="#5A2B77" fill-rule="nonzero" opacity="0.300000012" mask="url(#mask-16)"></path>
                                            <path d="M0.16412169,29.3349018 C0.752356296,27.9581199 1.90664062,26.94162 3.62697467,26.2854021 L3.41414051,28.6568219 L0.876869808,29.7039938 L0.16412169,29.3349018 Z" id="Path-13" fill="#373A5B" fill-rule="nonzero" opacity="0.300000012" mask="url(#mask-16)"></path>
                                            <path d="M34.5528585,4.95224233 C34.8246392,6.80670202 35.5181798,7.73393186 36.6334803,7.73393186 C37.7487807,7.73393186 38.5315608,7.17369518 38.9818205,6.05322183 L35.3713924,3.95212239 L34.5528585,4.95224233 Z" id="Path-20" fill="#373A5B" fill-rule="nonzero" opacity="0.300000012" mask="url(#mask-16)"></path>
                                            <path d="M-0.106581541,25.491083 C1.32828184,24.6386516 2.39792887,23.7849457 3.10235955,22.9299655" id="Path-66" stroke="#FFFFFF" opacity="0.5" stroke-linecap="round" stroke-linejoin="round" stroke-dasharray="2,3" fill-rule="nonzero" mask="url(#mask-16)"></path>
                                            <path d="M32.6946806,6.18051103 C32.9544034,8.01792935 33.9917987,8.78836057 35.8068667,8.4918047" id="Path-67" stroke="#FFFFFF" opacity="0.5" stroke-linecap="round" stroke-linejoin="round" stroke-dasharray="2,3" fill-rule="nonzero" mask="url(#mask-16)"></path>
                                            <path d="M5.14214416,1.72050823 C5.08191847,1.64992129 5.09186486,1.54516182 5.16436005,1.48652141 C5.23685523,1.427881 5.34444676,1.43756558 5.40467245,1.50815252 C5.47529803,1.59092857 5.54829102,1.67367009 5.62361421,1.75636358 C5.68615064,1.82501912 5.6796855,1.93003679 5.60917393,1.99092711 C5.53866236,2.05181743 5.43080565,2.04552247 5.36826923,1.97686693 C5.29052903,1.89151993 5.21514129,1.80606383 5.14214416,1.72050823 Z M5.8424638,2.46783304 C5.77602653,2.40274377 5.77636022,2.2975381 5.84320911,2.23284961 C5.910058,2.16816112 6.01810779,2.16848602 6.08454506,2.2335753 C6.16277486,2.31021784 6.242919,2.38675801 6.324942,2.46318312 C6.39303529,2.52662918 6.39541217,2.63180989 6.33025091,2.69811081 C6.26508965,2.76441172 6.1570655,2.76672604 6.08897221,2.70327998 C6.00490416,2.62494939 5.92272286,2.54646367 5.8424638,2.46783304 Z M6.60008865,3.15800852 C6.52913195,3.09761042 6.52189616,2.99264042 6.58392705,2.92355147 C6.64595795,2.85446251 6.7537657,2.84741718 6.8247224,2.90781528 C6.90862545,2.97923327 6.99408688,3.05048921 7.08107122,3.12157029 C7.1532636,3.1805638 7.16267053,3.2853705 7.1020822,3.35566261 C7.04149386,3.42595471 6.93385383,3.43511404 6.86166145,3.37612052 C6.77293391,3.30361495 6.68573124,3.2309072 6.60008865,3.15800852 Z M7.40079447,3.80011304 C7.32641809,3.7437503 7.31305036,3.63935239 7.3709368,3.56693377 C7.42882324,3.49451515 7.53604344,3.48149929 7.61041981,3.53786202 C7.69874996,3.60479898 7.78834525,3.67151461 7.87916825,3.73799505 C7.95450274,3.79313824 7.96966254,3.89730377 7.91302861,3.97065528 C7.85639469,4.04400678 7.74941316,4.05876754 7.67407868,4.00362435 C7.5817443,3.93603761 7.49063717,3.86819623 7.40079447,3.80011304 Z M8.23474131,4.40065341 C8.15768138,4.34781892 8.13920067,4.24416303 8.19346348,4.16913149 C8.24772629,4.09409996 8.35418441,4.0761057 8.43124434,4.12894019 C8.52315618,4.19195757 8.61607415,4.25468777 8.70995619,4.31711477 C8.78778625,4.36886799 8.80779152,4.47225522 8.75463921,4.54803661 C8.70148691,4.623818 8.59530472,4.64329668 8.51747466,4.59154347 C8.42225351,4.52822602 8.32799513,4.46459089 8.23474131,4.40065341 Z M9.08498729,4.95808007 C9.00576994,4.90836243 8.98294527,4.80553035 9.03400697,4.72839818 C9.08506866,4.65126601 9.1906807,4.62904214 9.26989805,4.67875978 C9.3645596,4.73817035 9.45997619,4.79721579 9.55609777,4.85587653 C9.63595616,4.90461222 9.66011803,5.00715427 9.61006482,5.0849106 C9.56001161,5.16266693 9.45469745,5.1861928 9.37483907,5.13745711 C9.27750161,5.07805434 9.18086772,5.01825562 9.08498729,4.95808007 Z M9.96353578,5.48701554 C9.8824861,5.4401814 9.85577531,5.33824055 9.90387556,5.25932428 C9.95197582,5.18040801 10.0566725,5.15440031 10.1377222,5.20123445 C10.2348396,5.25735327 10.3324413,5.31300154 10.4304626,5.36815346 C10.5120656,5.41406763 10.5399909,5.51569945 10.4928355,5.59515449 C10.4456801,5.67460954 10.3413008,5.70179979 10.2596977,5.65588562 C10.160537,5.60009257 10.0617949,5.54379404 9.96353578,5.48701554 Z M10.8602891,5.98496592 C10.777636,5.94086848 10.7473468,5.83988052 10.7926364,5.75940301 C10.8379259,5.67892549 10.941644,5.64943362 11.0242971,5.69353106 C11.1237226,5.74657696 11.2232964,5.798997 11.3229266,5.85075426 C11.4060796,5.89395168 11.4375232,5.99460454 11.393158,6.07556871 C11.3487928,6.15653288 11.2454189,6.18714889 11.162266,6.14395147 C11.06152,6.09161461 10.9608305,6.03860717 10.8602891,5.98496592 Z M11.7753591,6.45389047 C11.6912285,6.4125267 11.6574656,6.31258859 11.6999475,6.23067246 C11.7424295,6.14875632 11.8450694,6.11588213 11.9292,6.1572459 C12.0308167,6.20720687 12.1320829,6.25628879 12.2328527,6.30443349 C12.3174635,6.34485798 12.3523977,6.44441369 12.3108804,6.5267974 C12.2693631,6.60918111 12.167116,6.64319578 12.0825051,6.60277129 C11.9805688,6.55406921 11.8781381,6.50442288 11.7753591,6.45389047 Z M12.6935814,6.88612421 C12.6080067,6.84767139 12.5706495,6.7489532 12.6101418,6.66563096 C12.6496342,6.58230873 12.7510211,6.54593488 12.8365959,6.58438771 C12.9408557,6.63123663 13.0438585,6.67672578 13.1453336,6.72075125 C13.2314221,6.75810117 13.2701139,6.85633076 13.2317543,6.94015318 C13.1933947,7.0239756 13.0925096,7.06164901 13.0064211,7.02429909 C12.90357,6.97967663 12.7991999,6.93358365 12.6935814,6.88612421 Z M13.6409714,7.28863467 C13.5537281,7.25391798 13.5119077,7.15691152 13.5475629,7.07196468 C13.5832182,6.98701784 13.6828471,6.94629825 13.7700904,6.98101494 C13.8786168,7.02420083 13.9834986,7.06478095 14.084082,7.10252691 C14.1720244,7.13552907 14.215839,7.23169743 14.1819446,7.31732495 C14.1480503,7.40295247 14.0492821,7.44561375 13.9613398,7.41261159 C13.8585876,7.37405176 13.7515825,7.33265012 13.6409714,7.28863467 Z M14.6194817,7.6380622 C14.5293851,7.61112652 14.4787733,7.51817564 14.5064372,7.43045059 C14.534101,7.34272555 14.6295648,7.29344603 14.7196613,7.3203817 C14.8468478,7.35840593 14.9523277,7.38513276 15.0315007,7.39968079 C15.1241139,7.41669847 15.1850233,7.50359567 15.1675456,7.59377113 C15.1500678,7.68394659 15.0608215,7.74325269 14.9682082,7.72623502 C14.8749431,7.70909757 14.7578219,7.679421 14.6194817,7.6380622 Z M15.7017429,7.35010936 C15.6430967,7.42194607 15.535745,7.43389046 15.4619663,7.37678791 C15.3881875,7.31968535 15.3759202,7.21515943 15.4345665,7.14332272 C15.4947285,7.06962932 15.5584054,6.98317277 15.6246075,6.88528468 C15.6764411,6.80864218 15.7822712,6.78742455 15.8609856,6.83789376 C15.9397001,6.88836298 15.9614913,6.99140739 15.9096577,7.06804989 C15.8381343,7.17380624 15.7686038,7.26821042 15.7017429,7.35010936 Z M16.2637011,6.48078479 C16.219426,6.56179571 16.1160862,6.59252074 16.0328852,6.54941106 C15.9496843,6.50630138 15.9181286,6.40568175 15.9624037,6.32467083 C16.013391,6.23137859 16.0644666,6.13413616 16.1152658,6.03362597 C16.1568801,5.95128867 16.2591672,5.91738819 16.3437304,5.95790712 C16.4282936,5.99842605 16.4631105,6.0980207 16.4214962,6.180358 C16.369125,6.28397858 16.3164074,6.38434705 16.2637011,6.48078479 Z M16.7137909,5.55919528 C16.6767936,5.64359626 16.5765312,5.68281399 16.4898485,5.64679054 C16.4031658,5.61076709 16.3628879,5.5131438 16.3998852,5.42874282 C16.4437655,5.32863984 16.4866662,5.22734473 16.5283656,5.12534558 C16.563222,5.04008499 16.6624645,4.99848052 16.75003,5.03241939 C16.8375955,5.06635825 16.8803248,5.1629885 16.8454684,5.24824909 C16.8027347,5.35277805 16.7587682,5.45658965 16.7137909,5.55919528 Z M17.0819641,4.62593857 C17.0514772,4.71277203 16.9544672,4.7591005 16.8652863,4.72941609 C16.7761054,4.69973169 16.7285245,4.60527529 16.7590114,4.51844182 C16.7957074,4.41392357 16.8306247,4.30994805 16.8636097,4.20690428 C16.8916545,4.11929395 16.9873314,4.07040806 17.0773102,4.09771458 C17.1672889,4.1250211 17.2174964,4.2181796 17.1894517,4.30578992 C17.155535,4.41174415 17.119654,4.51858906 17.0819641,4.62593857 Z M17.3771238,3.64799 C17.3550017,3.73719344 17.2627996,3.79204569 17.1711847,3.77050594 C17.0795697,3.74896619 17.0232346,3.65919109 17.0453567,3.56998765 C17.072272,3.46145622 17.096336,3.35534828 17.1174276,3.25202495 C17.1358009,3.16201842 17.2256326,3.10355613 17.3180724,3.12144577 C17.4105121,3.13933541 17.4705549,3.22680253 17.4521816,3.31680906 C17.430169,3.42464372 17.4051072,3.53515171 17.3771238,3.64799 Z M17.5526717,2.63771648 C17.5451291,2.72918931 17.4628566,2.79738915 17.3689109,2.79004509 C17.2749652,2.78270102 17.2049216,2.7025941 17.2124642,2.61112127 C17.2216894,2.49924343 17.2258013,2.39342 17.2247076,2.2941371 C17.2236967,2.2023752 17.2992759,2.1271896 17.3935185,2.12620535 C17.4877611,2.12522109 17.5649793,2.19881092 17.5659901,2.29057282 C17.5671988,2.40028779 17.5626977,2.51612601 17.5526717,2.63771648 Z M17.4396501,1.56982112 C17.4752399,1.65479396 17.4333448,1.75176987 17.3460748,1.78642287 C17.2588048,1.82107588 17.1592073,1.78028359 17.1236175,1.69531074 C17.0849754,1.60305039 17.0358769,1.52908745 16.9766433,1.47292978 C16.9091179,1.40891089 16.9076783,1.30371406 16.9734279,1.23796609 C17.0391775,1.17221811 17.1472182,1.17081641 17.2147436,1.2348353 C17.3093674,1.32454546 17.384023,1.43700821 17.4396501,1.56982112 Z" id="Path-68" fill="#FFFFFF" fill-rule="nonzero" opacity="0.5" mask="url(#mask-16)"></path>
                                            <path d="M2.08421859,30.7373732 C1.99114659,30.7229218 1.92772872,30.6377428 1.94257083,30.5471207 C1.95741293,30.4564986 2.04489459,30.39475 2.1379666,30.4092014 C2.25024033,30.4266343 2.36218254,30.443804 2.47379321,30.4607103 C2.56692099,30.4748169 2.63067115,30.5597604 2.61618316,30.6504368 C2.60169518,30.7411133 2.51445537,30.8031854 2.42132758,30.7890788 C2.30928862,30.7721075 2.19691896,30.7548724 2.08421859,30.7373732 Z M3.09761538,30.8888912 C3.0043767,30.8754971 2.93994346,30.7910437 2.95369971,30.7002593 C2.96745596,30.6094748 3.05419248,30.5467376 3.14743116,30.5601318 C3.26011362,30.5763191 3.37244981,30.5922315 3.48443973,30.607869 C3.57773329,30.6208958 3.64251683,30.7050948 3.62913781,30.7959327 C3.6157588,30.8867705 3.5292836,30.9498488 3.43599004,30.936822 C3.32354385,30.9211208 3.2107523,30.9051439 3.09761538,30.8888912 Z M4.11414109,31.0287213 C4.02073907,31.0164535 3.95523567,30.9327842 3.96783516,30.8418407 C3.98043465,30.7508973 4.06636586,30.6871181 4.15976788,30.6993859 C4.27258653,30.714204 4.38504475,30.728736 4.49714252,30.7429819 C4.59059786,30.7548586 4.65647012,30.8382529 4.64427235,30.9292482 C4.63207457,31.0202436 4.5464258,31.084382 4.45297047,31.0725053 C4.3403868,31.0581977 4.22744367,31.043603 4.11414109,31.0287213 Z M5.13183769,31.1558153 C5.03827768,31.1447474 4.97164713,31.0619262 4.98301419,30.9708289 C4.99438124,30.8797316 5.07944144,30.8148549 5.17300145,30.8259228 C5.28606812,30.8392982 5.39875829,30.8523748 5.51107195,30.8651526 C5.6046831,30.8758027 5.67170296,30.9583256 5.660765,31.0494726 C5.64982704,31.1406197 5.56507325,31.2058755 5.4714621,31.1952254 C5.35862939,31.1823886 5.24542126,31.1692518 5.13183769,31.1558153 Z M6.15256029,31.2695474 C6.05884952,31.2597632 5.99102807,31.1778635 6.00107683,31.0866194 C6.0111256,30.9953754 6.09523932,30.9293391 6.18895008,30.9391234 C6.30219679,30.9509474 6.41505002,30.9624592 6.52750975,30.9736587 C6.62126861,30.9829959 6.68950126,31.0645711 6.67991163,31.1558621 C6.67032201,31.247153 6.5865415,31.3135896 6.49278264,31.3042524 C6.3797675,31.2929975 6.26636005,31.2814292 6.15256029,31.2695474 Z M7.173454,31.3686742 C7.07960281,31.3602622 7.01052501,31.2793642 7.01916441,31.1879834 C7.02780381,31.0966025 7.11088886,31.029343 7.20474005,31.037755 C7.31835046,31.0479381 7.43154759,31.0577933 7.54433143,31.0673207 C7.63822671,31.0752524 7.70774007,31.155796 7.69959386,31.2472198 C7.69144764,31.3386435 7.60872666,31.4063271 7.51483138,31.3983953 C7.40145091,31.3888175 7.28765846,31.3789105 7.173454,31.3686742 Z M8.19755019,31.4524562 C8.10357187,31.4455192 8.03316302,31.3657164 8.04028762,31.2742118 C8.04741223,31.1827072 8.12937235,31.1141517 8.22335067,31.1210888 C8.33687534,31.1294687 8.44996846,31.1375064 8.56263004,31.1452019 C8.65664697,31.1516238 8.72751599,31.2310395 8.72092041,31.3225817 C8.71432483,31.4141239 8.63276228,31.4831274 8.53874534,31.4767055 C8.42544376,31.4689663 8.31171205,31.4608832 8.19755019,31.4524562 Z M9.22321873,31.5195741 C9.12913105,31.5142238 9.05731241,31.4356211 9.06280732,31.3440101 C9.06830222,31.252399 9.14902986,31.1824708 9.24311754,31.187821 C9.35697044,31.1942953 9.47036847,31.2004089 9.58331161,31.206162 C9.6774309,31.2109562 9.7497381,31.2891331 9.74481425,31.380775 C9.73989041,31.4724168 9.65960008,31.5428207 9.56548079,31.5380265 C9.45184676,31.5322382 9.33775941,31.5260874 9.22321873,31.5195741 Z M10.2474107,31.5686214 C10.153237,31.5649775 10.079928,31.4876903 10.0836703,31.3959955 C10.0874127,31.3043007 10.1667893,31.2329213 10.260963,31.2365651 C10.3748797,31.2409729 10.4883181,31.2450017 10.6012782,31.2486515 C10.6954744,31.251695 10.7693015,31.3285133 10.7661757,31.42023 C10.7630499,31.5119467 10.6841548,31.5838305 10.5899587,31.580787 C10.4762526,31.5771131 10.36207,31.5730579 10.2474107,31.5686214 Z M11.2752527,31.5984225 C11.1810227,31.596628 11.1061283,31.5207955 11.1079714,31.4290458 C11.1098144,31.3372962 11.187697,31.2643732 11.281927,31.2661677 C11.3958417,31.2683372 11.5092527,31.2701076 11.62216,31.2714792 C11.7164006,31.2726239 11.7918447,31.3479382 11.7906689,31.4396982 C11.7894932,31.5314582 11.7121429,31.6049164 11.6179023,31.6037716 C11.5041876,31.6023903 11.3899711,31.6006073 11.2752527,31.5984225 Z M12.3032679,31.6072198 C12.2090202,31.6074286 12.1324435,31.533206 12.1322291,31.4414391 C12.1320147,31.3496721 12.2082438,31.2751111 12.3024915,31.2749024 C12.4164121,31.27465 12.5298007,31.2739765 12.6426572,31.2728818 C12.7369005,31.2719677 12.8140609,31.345615 12.8149997,31.4373776 C12.8159386,31.5291402 12.7403003,31.6042696 12.646057,31.6051837 C12.532324,31.6062869 12.418061,31.6069656 12.3032679,31.6072198 Z M13.3331627,31.5931916 C13.2389467,31.5955806 13.1605805,31.5231505 13.1581269,31.4314144 C13.1556733,31.3396783 13.2300615,31.2633749 13.3242776,31.2609859 C13.4380285,31.2581015 13.5512173,31.2547725 13.6638441,31.2509988 C13.7580363,31.2478428 13.8370218,31.3196323 13.8402632,31.4113452 C13.8435045,31.5030581 13.7697743,31.5799645 13.675582,31.5831206 C13.5620022,31.5869262 13.4478624,31.5902832 13.3331627,31.5931916 Z M14.3624316,31.5542929 C14.2683106,31.5590563 14.1880447,31.4886261 14.1831525,31.3969826 C14.1782604,31.3053392 14.2505946,31.227186 14.3447155,31.2224226 C14.4583867,31.2166698 14.5714612,31.2104451 14.6839387,31.2037486 C14.778011,31.1981478 14.8589347,31.2678609 14.8646869,31.359457 C14.870439,31.4510531 14.7988414,31.5298467 14.7047691,31.5354474 C14.5912511,31.5422059 14.4771386,31.5484877 14.3624316,31.5542929 Z M15.3908938,31.4882274 C15.2969491,31.4955841 15.2146669,31.4273953 15.2071113,31.3359235 C15.1995557,31.2444517 15.2695879,31.1643353 15.3635325,31.1569786 C15.4769614,31.1480961 15.589756,31.1387124 15.7019163,31.1288276 C15.7957805,31.1205552 15.87876,31.1879382 15.887256,31.2793318 C15.895752,31.3707253 15.8265474,31.4515205 15.7326831,31.4597929 C15.6193852,31.469778 15.5054554,31.4792562 15.3908938,31.4882274 Z M16.4098729,31.3932574 C16.3162058,31.4034303 16.2318039,31.3377435 16.221356,31.246542 C16.2109081,31.1553404 16.2783706,31.0731601 16.3720377,31.0629873 C16.48509,31.050709 16.5974671,31.0378978 16.7091691,31.0245535 C16.8027156,31.0133781 16.8878544,31.078157 16.8993319,31.1692412 C16.9108093,31.2603253 16.8442792,31.3432231 16.7507327,31.3543984 C16.6377854,31.3678915 16.5241655,31.3808444 16.4098729,31.3932574 Z M17.4315352,31.2653679 C17.3382788,31.2786443 17.2516259,31.2157976 17.2379906,31.1249958 C17.2243553,31.0341941 17.2889011,30.9498221 17.3821575,30.9365458 C17.4947036,30.9205232 17.6065291,30.9039322 17.7176338,30.8867726 C17.8107181,30.8723963 17.8981472,30.9342154 17.9129122,31.0248494 C17.9276772,31.1154835 17.8641869,31.2006113 17.7711026,31.2149876 C17.6586317,31.2323582 17.5454426,31.2491516 17.4315352,31.2653679 Z M18.4496783,31.1016144 C18.3570014,31.1183003 18.2679796,31.0586751 18.2508426,30.9684377 C18.2337056,30.8782002 18.2949427,30.7915217 18.3876196,30.7748358 C18.4993493,30.7547195 18.6103097,30.7339969 18.7205009,30.712668 C18.81294,30.6947753 18.9027737,30.7532346 18.9211502,30.8432406 C18.9395266,30.9332465 18.8794869,31.0207156 18.7870477,31.0386083 C18.6753582,31.0602271 18.5629018,31.0812291 18.4496783,31.1016144 Z M19.461391,30.8985149 C19.3695082,30.9189445 19.2780133,30.8629809 19.2570314,30.7735167 C19.2360495,30.6840524 19.293526,30.5949659 19.3854088,30.5745363 C19.4961395,30.549916 19.606047,30.5246473 19.7151311,30.4987304 C19.8066927,30.4769766 19.8990297,30.5316132 19.9213716,30.6207646 C19.9437135,30.7099161 19.8875999,30.7998226 19.7960383,30.8215764 C19.6853107,30.8478838 19.5737616,30.8735299 19.461391,30.8985149 Z M20.4634415,30.6523166 C20.3726239,30.6768495 20.2785761,30.6250531 20.25338,30.536626 C20.2281838,30.4481989 20.2813805,30.3566267 20.3721981,30.3320938 C20.4815732,30.3025478 20.5900669,30.2723084 20.6976794,30.2413756 C20.7880708,30.215393 20.8829799,30.2656778 20.9096649,30.3536898 C20.93635,30.4417019 20.8847058,30.5341128 20.7943144,30.5600954 C20.6849039,30.591545 20.5746129,30.6222854 20.4634415,30.6523166 Z M21.454133,30.3583722 C21.3647234,30.3873971 21.2680772,30.3403535 21.2382677,30.2532973 C21.2084581,30.1662412 21.2567735,30.0721389 21.3461831,30.0431141 C21.453744,30.0081968 21.5603623,29.9725384 21.666038,29.936139 C21.7548903,29.9055343 21.8523999,29.9508574 21.8838319,30.0373708 C21.9152638,30.1238842 21.8687156,30.2188271 21.7798633,30.2494318 C21.6722297,30.2865055 21.5636529,30.322819 21.454133,30.3583722 Z M22.4283439,30.0124507 C22.3407672,30.0463621 22.2415384,30.0047265 22.2067102,29.919455 C22.171882,29.8341835 22.2146431,29.7375667 22.3022199,29.7036552 C22.3677816,29.6782685 22.4329526,29.6525746 22.4977329,29.6265737 C22.5848679,29.5916003 22.6846229,29.6320264 22.7205417,29.7168678 C22.7564606,29.8017093 22.7149417,29.8988385 22.6278066,29.9338119 C22.5617108,29.9603407 22.4952233,29.9865537 22.4283439,30.0124507 Z" id="Path-69" fill="#FFFFFF" fill-rule="nonzero" opacity="0.5" mask="url(#mask-16)"></path>
                                        </g>
                                        <g id="Head" transform="translate(5.000000, 0.968750)">
                                            <g id="Group-62" fill-rule="nonzero">
                                                <ellipse id="Oval-Copy-54" fill="url(#linearGradient-17)" cx="2.82668232" cy="2.99121081" rx="2.82668232" ry="2.68309718"></ellipse>
                                                <ellipse id="Oval-Copy-55" fill="url(#linearGradient-18)" cx="4.48943662" cy="4.33391864" rx="2.82668232" ry="2.68309718"></ellipse>
                                                <ellipse id="Oval" fill="url(#linearGradient-17)" cx="7.14984351" cy="6.76836799" rx="5.81964006" ry="5.77787511"></ellipse>
                                            </g>
                                            <g id="Path-8" transform="translate(0.332551, 9.904929)">
                                                <mask id="mask-21" fill="white">
                                                    <use xlink:href="#path-20"></use>
                                                </mask>
                                                <use id="Path-3" fill="url(#linearGradient-19)" fill-rule="nonzero" xlink:href="#path-20"></use>
                                                <path d="M4.33237476,0.177410542 C4.81308848,3.14271052 6.07741399,4.7434989 8.12535127,4.9797757 C10.1732886,5.2160525 11.1182619,4.57116795 10.9602714,3.04512205 L4.33237476,0.177410542 Z" id="Path-9" fill="#50211F" fill-rule="nonzero" opacity="0.200000003" mask="url(#mask-21)"></path>
                                            </g>
                                            <g id="Group" transform="translate(2.660407, 3.961972)">
                                                <mask id="mask-24" fill="white">
                                                    <use xlink:href="#path-23"></use>
                                                </mask>
                                                <use id="Path" fill="url(#linearGradient-22)" fill-rule="nonzero" xlink:href="#path-23"></use>
                                                <path d="M2.49537313,3.27906144 C3.5642711,1.61499011 4.97987969,0.836080417 6.74219887,0.942332377 C8.50451806,1.04858434 9.30110759,1.92100424 9.13196747,3.5595921 L8.87938989,0.252477857 L5.56383815,-0.867214653 L2.85621803,0.556894721 L2.17978674,2.01285096 L2.49537313,3.27906144 Z" id="Path-74" fill="#50211F" fill-rule="nonzero" opacity="0.200000003" mask="url(#mask-24)"></path>
                                            </g>
                                        </g>
                                        <g id="Hand" transform="translate(2.000000, 9.968750)">
                                            <g id="Group-63" transform="translate(0.000000, 6.477437)">
                                                <mask id="mask-26" fill="white">
                                                    <use xlink:href="#path-25"></use>
                                                </mask>
                                                <use id="Path-29" fill="url(#linearGradient-14)" fill-rule="nonzero" transform="translate(6.741049, 10.205364) rotate(5.000000) translate(-6.741049, -10.205364) " xlink:href="#path-25"></use>
                                                <path d="M9.20243414,1.40051775 C9.16523556,1.31394916 9.20564574,1.21378181 9.29269279,1.1767877 C9.37973985,1.13979359 9.48046084,1.17998164 9.51765942,1.26655022 C9.56259853,1.37113257 9.60913362,1.47115551 9.65725411,1.56661886 C9.69967644,1.650778 9.665465,1.75320352 9.58084071,1.79539267 C9.49621642,1.83758182 9.39322479,1.80355843 9.35080245,1.71939929 C9.29951802,1.61765917 9.25006545,1.51136538 9.20243414,1.40051775 Z M9.71887071,2.32872193 C9.66330718,2.25250365 9.68039267,2.14592098 9.75703221,2.09066288 C9.83367175,2.03540477 9.94084351,2.05239634 9.99640703,2.12861462 C10.0621438,2.21878789 10.1300747,2.30240013 10.2001801,2.37947762 C10.2636818,2.44929471 10.2582493,2.55708799 10.1880463,2.62024064 C10.1178434,2.6833933 10.0094543,2.6779907 9.94595259,2.60817361 C9.86742937,2.52184107 9.79174194,2.42868175 9.71887071,2.32872193 Z M10.5096552,3.08098356 C10.4290789,3.0315738 10.4040348,2.92655833 10.4537176,2.84642495 C10.5034005,2.76629156 10.6089964,2.74138513 10.6895727,2.79079489 C10.7800557,2.84627948 10.8734451,2.89350443 10.9698159,2.93253232 C11.0574877,2.96803732 11.0996182,3.0675012 11.0639169,3.1546911 C11.0282157,3.24188099 10.9282021,3.28377988 10.8405303,3.24827487 C10.726517,3.20210217 10.6162003,3.14631754 10.5096552,3.08098356 Z M11.5959726,3.41088538 C11.5014161,3.40643858 11.4283877,3.32660189 11.4328591,3.23256514 C11.4373305,3.1385284 11.5176084,3.06590139 11.6121649,3.07034819 C11.7156367,3.07521426 11.8221251,3.07283832 11.9316656,3.06317724 C12.0259577,3.05486102 12.1091755,3.12413807 12.1175377,3.21791187 C12.1258998,3.31168566 12.0562399,3.39444597 11.9619478,3.40276219 C11.8371584,3.41376816 11.7151548,3.41649027 11.5959726,3.41088538 Z M12.6464638,3.26816586 C12.5557892,3.29520176 12.4602449,3.24401644 12.4330596,3.15384025 C12.4058742,3.06366407 12.4573425,2.9686449 12.5480171,2.94160901 C12.6568333,2.90916394 12.7580296,2.87279301 12.8516119,2.83255531 C12.9385009,2.79519552 13.0393919,2.83495971 13.0769581,2.92137112 C13.1145244,3.00778252 13.0745404,3.10811889 12.9876514,3.14547868 C12.8814979,3.19112167 12.7677668,3.2319977 12.6464638,3.26816586 Z M13.6240141,2.73039067 C13.5570911,2.79697224 13.448566,2.79699372 13.3816165,2.73043865 C13.3146669,2.66388357 13.3146453,2.555955 13.3815682,2.48937342 C13.4542614,2.417051 13.5153605,2.33876638 13.5651532,2.25431254 C13.6130341,2.17310145 13.7180476,2.14586861 13.7997076,2.19348629 C13.8813675,2.24110396 13.9087509,2.34554031 13.86087,2.4267514 C13.7961901,2.53645551 13.7171422,2.6377376 13.6240141,2.73039067 Z M14.0737534,1.67507429 C14.0695257,1.76912219 13.9894361,1.84195463 13.8948684,1.83775012 C13.8003007,1.8335456 13.7270657,1.75389629 13.7312935,1.65984839 C13.735736,1.56102363 13.7315555,1.45660441 13.7186404,1.34657477 C13.7076647,1.25306788 13.7749884,1.16841691 13.8690121,1.15750154 C13.9630358,1.14658617 14.0481547,1.21353983 14.0591304,1.30704672 C14.0741274,1.43481334 14.079039,1.55749452 14.0737534,1.67507429 Z M13.9009645,0.626845133 C13.9307614,0.716201484 13.8820787,0.812661574 13.7922284,0.842294775 C13.7023782,0.871927976 13.605385,0.823512798 13.575588,0.734156447 C13.5675983,0.710196614 13.5593037,0.686051653 13.5507041,0.661721834 C13.5193117,0.572907382 13.5662595,0.475600378 13.6555648,0.444380559 C13.7448701,0.41316074 13.842715,0.459850415 13.8741073,0.548664867 C13.8833785,0.574894495 13.8923309,0.600954495 13.9009645,0.626845133 Z" id="Path-119" fill="#FFFFFF" fill-rule="nonzero" opacity="0.5" mask="url(#mask-26)"></path>
                                            </g>
                                            <g id="hand" transform="translate(8.809607, 0.319899)">
                                                <mask id="mask-29" fill="white">
                                                    <use xlink:href="#path-28"></use>
                                                </mask>
                                                <use id="Path-28" fill="url(#linearGradient-27)" fill-rule="nonzero" xlink:href="#path-28"></use>
                                                <path d="M1.05261575,7.28379524 C2.08475292,8.14669621 3.22825017,8.3156548 4.4831075,7.790671 L4.4831075,8.62920249 L2.12991915,8.82723932 L1.05261575,7.96589102 L1.05261575,7.28379524 Z" id="Path-43" fill="#50211F" fill-rule="nonzero" opacity="0.200000003" mask="url(#mask-29)"></path>
                                            </g>
                                        </g>
                                    </g>
                                    <g id="Linda-pose-2" transform="translate(63.500000, 49.500000) scale(-1, 1) translate(-63.500000, -49.500000) translate(41.000000, 0.000000)">
                                        <g id="Pants" transform="translate(5.387324, 39.187500)">
                                            <mask id="mask-31" fill="white">
                                                <use xlink:href="#path-30"></use>
                                            </mask>
                                            <use id="Path-14" fill="url(#linearGradient-11)" fill-rule="nonzero" xlink:href="#path-30"></use>
                                            <path d="M24.6523261,3.07253939 C23.2892103,8.57304558 20.3141075,11.3232987 15.7270177,11.3232987 C8.84638299,11.3232987 14.5026101,14.9086866 7.47384306,16.6733868 C0.445076044,18.4380869 4.75436916,31.0684614 0.481207975,31.0684614 C-2.36756615,31.0684614 -1.55448391,20.3998379 2.92045469,-0.937409303 L24.6523261,3.07253939 Z" id="Path-16" fill="#151731" fill-rule="nonzero" opacity="0.300000012" mask="url(#mask-31)"></path>
                                            <path d="M12.885562,15.8633031 L15.456772,7.75 C16.6270657,9.99444798 16.8725751,12.35849 16.1933003,14.8421259 C15.174388,18.5675799 18.2412463,21.8976652 16.1933003,24.5035678 C14.1453543,27.1094703 18.2412463,33.9470479 14.0267914,37.9040732 C12.26015,39.5628037 13.6957377,36.3194644 13.8499512,30.0828341 C13.910648,27.6281668 13.5891849,22.8883232 12.885562,15.8633031 Z" id="Path-17" fill="#151731" fill-rule="nonzero" opacity="0.300000012" mask="url(#mask-31)"></path>
                                        </g>
                                        <g id="Hair" fill="url(#linearGradient-32)" fill-rule="nonzero">
                                            <path d="M19.2371953,0.323863636 C25.2676553,1.76673184 23.9222702,7.76970271 22.3377192,14.25 C20.7531683,20.7302973 16.8987719,32.9485891 8.79207246,31.9666127 C0.68537298,30.9846363 -1.57492963,25.9081669 1.36060473,20.1388462 C4.29613908,14.3695255 10.1430957,14.25 10.8310273,9.41288903 C11.5189588,4.57577806 13.2067354,-1.11900457 19.2371953,0.323863636 Z" id="Path-54"></path>
                                        </g>
                                        <g id="Shirt" transform="translate(0.000000, 13.656250)">
                                            <mask id="mask-35" fill="white">
                                                <use xlink:href="#path-34"></use>
                                            </mask>
                                            <use id="Path" fill="url(#linearGradient-33)" fill-rule="nonzero" xlink:href="#path-34"></use>
                                            <path d="M9.4654023,19.5795322 C13.8841807,19.4875567 17.2098761,19.3743964 19.4424883,19.2400513 C21.6751006,19.1057063 23.059629,18.9354339 23.5960737,18.7292341 C20.5703532,19.7873878 18.5288951,20.3164646 17.4716994,20.3164646 C15.8859058,20.3164646 15.9337513,19.1757289 14.1963995,21.5427389 C12.4590477,23.909749 11.0798085,20.8921056 9.4654023,25.3674198 C8.38913149,28.3509626 8.38913149,26.4216668 9.4654023,19.5795322 Z" id="Path-47" fill="#373A5B" fill-rule="nonzero" opacity="0.300000012" mask="url(#mask-35)"></path>
                                            <path d="M17.6370724,16.6039741 C18.5360026,17.0357873 18.1137009,17.251694 16.3701675,17.251694 C14.6266341,17.251694 11.8743888,17.0357873 8.11343171,16.6039741 L8.48365896,12.2365992 L11.4005113,7.29173411 C11.7995245,8.57457076 11.612113,10.2228591 10.8382767,12.2365992 C9.67752217,15.2572092 13.0045607,12.6416337 14.0779054,14.6145833 C14.7934685,15.9298831 15.9798575,16.5930133 17.6370724,16.6039741 Z" id="Path-48" fill="#373A5B" fill-rule="nonzero" opacity="0.300000012" mask="url(#mask-35)"></path>
                                            <ellipse id="Oval" fill="#FFFFFF" fill-rule="nonzero" opacity="0.300000012" mask="url(#mask-35)" cx="7.37550302" cy="6.03645833" rx="1" ry="1"></ellipse>
                                            <ellipse id="Oval-Copy-5" fill="#FFFFFF" fill-rule="nonzero" opacity="0.300000012" mask="url(#mask-35)" cx="13.7889839" cy="6.03645833" rx="1" ry="1"></ellipse>
                                            <ellipse id="Oval-Copy-6" fill="#FFFFFF" fill-rule="nonzero" opacity="0.300000012" mask="url(#mask-35)" cx="20.2024648" cy="6.03645833" rx="1" ry="1"></ellipse>
                                            <ellipse id="Oval-Copy-7" fill="#FFFFFF" fill-rule="nonzero" opacity="0.300000012" mask="url(#mask-35)" cx="26.6159457" cy="6.03645833" rx="1" ry="1"></ellipse>
                                            <ellipse id="Oval-Copy-52" fill="#FFFFFF" fill-rule="nonzero" opacity="0.300000012" mask="url(#mask-35)" cx="10.5822435" cy="2.859375" rx="1" ry="1"></ellipse>
                                            <ellipse id="Oval-Copy-51" fill="#FFFFFF" fill-rule="nonzero" opacity="0.300000012" mask="url(#mask-35)" cx="16.9957243" cy="2.859375" rx="1" ry="1"></ellipse>
                                            <ellipse id="Oval-Copy-50" fill="#FFFFFF" fill-rule="nonzero" opacity="0.300000012" mask="url(#mask-35)" cx="23.4092052" cy="2.859375" rx="1" ry="1"></ellipse>
                                            <ellipse id="Oval-Copy-49" fill="#FFFFFF" fill-rule="nonzero" opacity="0.300000012" mask="url(#mask-35)" cx="29.8226861" cy="2.859375" rx="1" ry="1"></ellipse>
                                            <ellipse id="Oval-Copy-8" fill="#FFFFFF" fill-rule="nonzero" opacity="0.300000012" mask="url(#mask-35)" cx="33.0294266" cy="6.03645833" rx="1" ry="1"></ellipse>
                                            <ellipse id="Oval-Copy-13" fill="#FFFFFF" fill-rule="nonzero" opacity="0.300000012" mask="url(#mask-35)" cx="4.16876258" cy="9.21354167" rx="1" ry="1"></ellipse>
                                            <ellipse id="Oval-Copy-12" fill="#FFFFFF" fill-rule="nonzero" opacity="0.300000012" mask="url(#mask-35)" cx="10.5822435" cy="9.21354167" rx="1" ry="1"></ellipse>
                                            <ellipse id="Oval-Copy-11" fill="#FFFFFF" fill-rule="nonzero" opacity="0.300000012" mask="url(#mask-35)" cx="16.9957243" cy="9.21354167" rx="1" ry="1"></ellipse>
                                            <ellipse id="Oval-Copy-10" fill="#FFFFFF" fill-rule="nonzero" opacity="0.300000012" mask="url(#mask-35)" cx="23.4092052" cy="9.21354167" rx="1" ry="1"></ellipse>
                                            <ellipse id="Oval-Copy-9" fill="#FFFFFF" fill-rule="nonzero" opacity="0.300000012" mask="url(#mask-35)" cx="29.8226861" cy="9.21354167" rx="1" ry="1"></ellipse>
                                            <ellipse id="Oval-Copy-18" fill="#FFFFFF" fill-rule="nonzero" opacity="0.300000012" mask="url(#mask-35)" cx="0.962022133" cy="12.390625" rx="1" ry="1"></ellipse>
                                            <ellipse id="Oval-Copy-17" fill="#FFFFFF" fill-rule="nonzero" opacity="0.300000012" mask="url(#mask-35)" cx="7.37550302" cy="12.390625" rx="1" ry="1"></ellipse>
                                            <ellipse id="Oval-Copy-16" fill="#FFFFFF" fill-rule="nonzero" opacity="0.300000012" mask="url(#mask-35)" cx="13.7889839" cy="12.390625" rx="1" ry="1"></ellipse>
                                            <ellipse id="Oval-Copy-15" fill="#FFFFFF" fill-rule="nonzero" opacity="0.300000012" mask="url(#mask-35)" cx="20.2024648" cy="12.390625" rx="1" ry="1"></ellipse>
                                            <ellipse id="Oval-Copy-14" fill="#FFFFFF" fill-rule="nonzero" opacity="0.300000012" mask="url(#mask-35)" cx="26.6159457" cy="12.390625" rx="1" ry="1"></ellipse>
                                            <ellipse id="Oval-Copy-23" fill="#FFFFFF" fill-rule="nonzero" opacity="0.300000012" mask="url(#mask-35)" cx="4.16876258" cy="15.5677083" rx="1" ry="1"></ellipse>
                                            <ellipse id="Oval-Copy-22" fill="#FFFFFF" fill-rule="nonzero" opacity="0.300000012" mask="url(#mask-35)" cx="10.5822435" cy="15.5677083" rx="1" ry="1"></ellipse>
                                            <ellipse id="Oval-Copy-21" fill="#FFFFFF" fill-rule="nonzero" opacity="0.300000012" mask="url(#mask-35)" cx="16.9957243" cy="15.5677083" rx="1" ry="1"></ellipse>
                                            <ellipse id="Oval-Copy-20" fill="#FFFFFF" fill-rule="nonzero" opacity="0.300000012" mask="url(#mask-35)" cx="23.4092052" cy="15.5677083" rx="1" ry="1"></ellipse>
                                            <ellipse id="Oval-Copy-19" fill="#FFFFFF" fill-rule="nonzero" opacity="0.300000012" mask="url(#mask-35)" cx="29.8226861" cy="15.5677083" rx="1" ry="1"></ellipse>
                                            <ellipse id="Oval-Copy-28" fill="#FFFFFF" fill-rule="nonzero" opacity="0.300000012" mask="url(#mask-35)" cx="0.962022133" cy="18.7447917" rx="1" ry="1"></ellipse>
                                            <ellipse id="Oval-Copy-27" fill="#FFFFFF" fill-rule="nonzero" opacity="0.300000012" mask="url(#mask-35)" cx="7.37550302" cy="18.7447917" rx="1" ry="1"></ellipse>
                                            <ellipse id="Oval-Copy-26" fill="#FFFFFF" fill-rule="nonzero" opacity="0.300000012" mask="url(#mask-35)" cx="13.7889839" cy="18.7447917" rx="1" ry="1"></ellipse>
                                            <ellipse id="Oval-Copy-25" fill="#FFFFFF" fill-rule="nonzero" opacity="0.300000012" mask="url(#mask-35)" cx="20.2024648" cy="18.7447917" rx="1" ry="1"></ellipse>
                                            <ellipse id="Oval-Copy-24" fill="#FFFFFF" fill-rule="nonzero" opacity="0.300000012" mask="url(#mask-35)" cx="26.6159457" cy="18.7447917" rx="1" ry="1"></ellipse>
                                            <ellipse id="Oval-Copy-33" fill="#FFFFFF" fill-rule="nonzero" opacity="0.300000012" mask="url(#mask-35)" cx="4.16876258" cy="21.921875" rx="1" ry="1"></ellipse>
                                            <ellipse id="Oval-Copy-32" fill="#FFFFFF" fill-rule="nonzero" opacity="0.300000012" mask="url(#mask-35)" cx="10.5822435" cy="21.921875" rx="1" ry="1"></ellipse>
                                            <ellipse id="Oval-Copy-31" fill="#FFFFFF" fill-rule="nonzero" opacity="0.300000012" mask="url(#mask-35)" cx="16.9957243" cy="21.921875" rx="1" ry="1"></ellipse>
                                            <ellipse id="Oval-Copy-30" fill="#FFFFFF" fill-rule="nonzero" opacity="0.300000012" mask="url(#mask-35)" cx="23.4092052" cy="21.921875" rx="1" ry="1"></ellipse>
                                            <ellipse id="Oval-Copy-29" fill="#FFFFFF" fill-rule="nonzero" opacity="0.300000012" mask="url(#mask-35)" cx="29.8226861" cy="21.921875" rx="1" ry="1"></ellipse>
                                            <ellipse id="Oval-Copy-38" fill="#FFFFFF" fill-rule="nonzero" opacity="0.300000012" mask="url(#mask-35)" cx="0.962022133" cy="25.0989583" rx="1" ry="1"></ellipse>
                                            <ellipse id="Oval-Copy-37" fill="#FFFFFF" fill-rule="nonzero" opacity="0.300000012" mask="url(#mask-35)" cx="7.37550302" cy="25.0989583" rx="1" ry="1"></ellipse>
                                            <ellipse id="Oval-Copy-36" fill="#FFFFFF" fill-rule="nonzero" opacity="0.300000012" mask="url(#mask-35)" cx="13.7889839" cy="25.0989583" rx="1" ry="1"></ellipse>
                                            <ellipse id="Oval-Copy-35" fill="#FFFFFF" fill-rule="nonzero" opacity="0.300000012" mask="url(#mask-35)" cx="20.2024648" cy="25.0989583" rx="1" ry="1"></ellipse>
                                            <ellipse id="Oval-Copy-34" fill="#FFFFFF" fill-rule="nonzero" opacity="0.300000012" mask="url(#mask-35)" cx="26.6159457" cy="25.0989583" rx="1" ry="1"></ellipse>
                                            <ellipse id="Oval-Copy-43" fill="#FFFFFF" fill-rule="nonzero" opacity="0.300000012" mask="url(#mask-35)" cx="4.16876258" cy="28.2760417" rx="1" ry="1"></ellipse>
                                            <ellipse id="Oval-Copy-42" fill="#FFFFFF" fill-rule="nonzero" opacity="0.300000012" mask="url(#mask-35)" cx="10.5822435" cy="28.2760417" rx="1" ry="1"></ellipse>
                                            <ellipse id="Oval-Copy-41" fill="#FFFFFF" fill-rule="nonzero" opacity="0.300000012" mask="url(#mask-35)" cx="16.9957243" cy="28.2760417" rx="1" ry="1"></ellipse>
                                            <ellipse id="Oval-Copy-40" fill="#FFFFFF" fill-rule="nonzero" opacity="0.300000012" mask="url(#mask-35)" cx="23.4092052" cy="28.2760417" rx="1" ry="1"></ellipse>
                                            <ellipse id="Oval-Copy-39" fill="#FFFFFF" fill-rule="nonzero" opacity="0.300000012" mask="url(#mask-35)" cx="29.8226861" cy="28.2760417" rx="1" ry="1"></ellipse>
                                            <ellipse id="Oval-Copy-48" fill="#FFFFFF" fill-rule="nonzero" opacity="0.300000012" mask="url(#mask-35)" cx="0.962022133" cy="31.453125" rx="1" ry="1"></ellipse>
                                            <ellipse id="Oval-Copy-47" fill="#FFFFFF" fill-rule="nonzero" opacity="0.300000012" mask="url(#mask-35)" cx="7.37550302" cy="31.453125" rx="1" ry="1"></ellipse>
                                            <ellipse id="Oval-Copy-46" fill="#FFFFFF" fill-rule="nonzero" opacity="0.300000012" mask="url(#mask-35)" cx="13.7889839" cy="31.453125" rx="1" ry="1"></ellipse>
                                            <ellipse id="Oval-Copy-45" fill="#FFFFFF" fill-rule="nonzero" opacity="0.300000012" mask="url(#mask-35)" cx="20.2024648" cy="31.453125" rx="1" ry="1"></ellipse>
                                            <ellipse id="Oval-Copy-44" fill="#FFFFFF" fill-rule="nonzero" opacity="0.300000012" mask="url(#mask-35)" cx="26.6159457" cy="31.453125" rx="1" ry="1"></ellipse>
                                            <path d="M17.9612928,3.1098646 C20.1053006,7.05389085 21.0443717,10.6928067 20.778506,14.026612 C20.5126403,17.3604174 20.9441508,24.9696023 22.0730374,36.8541667 L24.9716127,36.8541667 C23.5101057,33.5899958 22.7046558,31.1501759 22.5552632,29.534707 C21.927981,22.7515399 21.5369044,17.1481102 21.7523633,14.026612 C22.0447923,9.78999683 21.0684005,6.05620839 18.823188,2.82524671 L17.9612928,3.1098646 Z" id="Path-57" fill="#FFFFFF" fill-rule="nonzero" opacity="0.200000003" mask="url(#mask-35)"></path>
                                            <path d="M26.0160821,13.403219 C26.7682016,9.33646568 25.7764356,8.9417986 23.2861563,3.77837171 C25.6075198,6.61249005 26.8539673,9.11726618 27.0254988,11.2927001 C27.2827961,14.555851 28.9402342,11.4216223 30.001734,15.0822223 C31.0632339,18.7428222 32.7223662,17.4476552 33.3501006,18.4270833 C33.7685902,19.0800354 33.0063013,19.6855076 31.0632339,20.2434999 C28.8999008,18.3367574 27.2175169,16.0566637 26.0160821,13.403219 Z" id="Path-6" fill="#373A5B" fill-rule="nonzero" opacity="0.300000012" mask="url(#mask-35)"></path>
                                            <path d="M10.5042596,1.15201072 C10.5051842,2.90291805 12.1079731,3.77837171 15.3126261,3.77837171 C15.656263,3.77837171 16.7264963,5.42951403 16.8612201,5.2449665 C17.0738576,4.95369105 17.5998266,4.06727283 18.1818399,4.04214267 C19.3425503,3.99202554 20.8082779,5.00883287 21.0309645,4.49280346 C21.1162843,4.29509296 20.3177238,3.43290847 18.6352833,1.90625 C17.7233871,0.439737954 16.6731439,-0.348645285 15.4845537,-0.458899717 C14.2959635,-0.569154148 12.6358655,-0.0321840016 10.5042596,1.15201072 Z" id="Path-7" fill="#373A5B" fill-rule="nonzero" opacity="0.300000012" mask="url(#mask-35)"></path>
                                            <path d="M5.92633504,28.0452254 C6.47901701,26.7289722 7.5635369,25.7571616 9.17989471,25.1297935 L8.97992415,27.3969565 L6.59600498,28.3980907 L5.92633504,28.0452254 Z" id="Path-13" fill="#373A5B" fill-rule="nonzero" opacity="0.300000012" mask="url(#mask-35)"></path>
                                            <path d="M38.2366317,4.73452249 C38.4919861,6.50745292 39.1436094,7.39391813 40.1915016,7.39391813 C41.2393938,7.39391813 41.974863,6.85831163 42.3979092,5.78709864 L39.0056938,3.77837171 L38.2366317,4.73452249 Z" id="Path-20" fill="#373A5B" fill-rule="nonzero" opacity="0.300000012" mask="url(#mask-35)"></path>
                                            <path d="M14.430332,0.52139812 L16.3081417,4.16385575 C16.5612124,4.65474644 17.1643123,4.84753763 17.655203,4.59446693 C17.7704584,4.53504889 17.8730575,4.45378222 17.9572863,4.35519304 L18.823188,3.34166084 L18.823188,3.34166084 C19.2593264,3.60907188 19.8296659,3.47229133 20.0970769,3.03615294 C20.2738782,2.74779596 20.2794526,2.38599737 20.1116188,2.09233044 L19.4312237,0.901810287 L15.772145,-0.307789314 L14.3249757,0.52139812" id="Path-56" fill="#FFD5D7" fill-rule="nonzero" mask="url(#mask-35)"></path>
                                            <path d="M0.743669715,16.6470347 C0.376126349,18.5561884 1.95644569,19.3022807 2.39489304,19.3022807 C2.83334039,19.3022807 6.05204192,17.1109471 6.15354786,16.6470347 C6.25505379,16.1831224 6.34164445,15.0666019 5.68269257,14.963378 C5.02374069,14.8601542 1.11121308,14.7378811 0.743669715,16.6470347 Z" id="Path-53" fill="#FFD5D7" fill-rule="nonzero"></path>
                                            <path d="M32.5297798,12.1532914 C32.778776,11.426986 33.0277723,11.0638333 33.2767685,11.0638333 C33.6502628,11.0638333 36.0645888,13.6438951 35.5996729,15.633584 C35.1347571,17.6232729 34.0943286,18.0321615 33.7166568,17.6232729 C33.1270654,16.9548618 32.7314398,15.1315347 32.5297798,12.1532914 Z" id="Path-55" fill="#FFD5D7" fill-rule="nonzero"></path>
                                        </g>
                                        <g id="Head" transform="translate(13.767606, 3.562500)">
                                            <g id="Path-8" transform="translate(0.962022, 5.803906)">
                                                <mask id="mask-37" fill="white">
                                                    <use xlink:href="#path-36"></use>
                                                </mask>
                                                <use id="Path-3" fill="url(#linearGradient-19)" fill-rule="nonzero" xlink:href="#path-36"></use>
                                                <path d="M0.970906651,0.173259559 C1.43445202,3.06917859 2.65362304,4.63251235 4.62841971,4.86326084 C6.60321638,5.09400932 7.51444071,4.46421353 7.36209271,2.97387346 L0.970906651,0.173259559 Z" id="Path-9" fill="#DA433D" fill-rule="nonzero" opacity="0.200000003" mask="url(#mask-37)"></path>
                                            </g>
                                            <g id="Group">
                                                <mask id="mask-39" fill="white">
                                                    <use xlink:href="#path-38"></use>
                                                </mask>
                                                <use id="Path" fill="url(#linearGradient-22)" fill-rule="nonzero" xlink:href="#path-38"></use>
                                                <path d="M7.96337942,-0.385996374 C7.95966608,1.74102192 7.20058311,3.00878448 5.68613051,3.4172913 C4.17167791,3.82579812 3.07991402,3.76386206 2.41083884,3.23148313 C2.46096775,3.14000615 2.39594306,2.9505232 2.21576478,2.6630343 C2.0355865,2.3755454 3.95145804,1.35920184 7.96337942,-0.385996374 Z" id="Path-50" fill="#DA433D" fill-rule="nonzero" opacity="0.200000003" mask="url(#mask-39)"></path>
                                            </g>
                                        </g>
                                        <g id="Hands" transform="translate(2.394366, 12.468750)">
                                            <g id="Path-21" transform="translate(31.107907, 0.000000)">
                                                <mask id="mask-41" fill="white">
                                                    <use xlink:href="#path-40"></use>
                                                </mask>
                                                <use id="Path" fill="url(#linearGradient-27)" fill-rule="nonzero" xlink:href="#path-40"></use>
                                                <path d="M7.95315632,2.33233185 C7.16127686,2.43149347 6.76533713,2.92071618 6.76533713,3.8 C6.76533713,5.11892572 6.78358528,6.29440991 7.95315632,6.59649565 C6.58572806,6.48803743 5.97250021,5.65113034 6.11347278,4.08577436 C6.25444534,2.52041838 6.86767319,1.93593755 7.95315632,2.33233185 Z" id="Path-45" fill="#DA433D" fill-rule="nonzero" opacity="0.200000003" mask="url(#mask-41)"></path>
                                            </g>
                                            <polygon id="Path-49" fill="url(#linearGradient-42)" fill-rule="nonzero" points="17.599376 9.7019071 14.5540519 23.6508453 24.7799088 23.4333333 28.0450077 9.7019071"></polygon>
                                            <g id="Group-59" transform="translate(0.000000, 15.516667)">
                                                <mask id="mask-44" fill="white">
                                                    <use xlink:href="#path-43"></use>
                                                </mask>
                                                <use id="Path" fill="url(#linearGradient-27)" fill-rule="nonzero" xlink:href="#path-43"></use>
                                                <path d="M3.5575696,-2.16389358 C-0.156591877,-2.23323136 -2.29729367,-2.5736226 -2.86453579,-3.18506729 C-3.43177791,-3.79651197 -3.09358639,-4.16666672 -1.84996124,-4.29553154 L3.5575696,-2.16389358 Z" id="Path-82" fill="#DA433D" fill-rule="nonzero" opacity="0.200000003" mask="url(#mask-44)"></path>
                                            </g>
                                        </g>
                                    </g>
                                </g>
                            </g>
                        </g>
                    </g>
                </g>
            </g>
        </g>
    </g>
</svg>