<svg xmlns="http://www.w3.org/2000/svg" xmlns:xlink="http://www.w3.org/1999/xlink" viewBox="0 0 138.6 81.5"><defs><style>.cls-1{fill:#fff;}.cls-2{fill:#0277bd;}.cls-3{fill:#ffc107;}.cls-4{fill:#e44d26;}.cls-5{fill:#f16529;}.cls-6{fill:#ebebeb;}.cls-7{fill:#a4c639;}.cls-12,.cls-8{fill:none;}.cls-8{stroke:#a4c639;stroke-linecap:round;stroke-linejoin:round;stroke-width:3px;}.cls-9{fill:#e55b2d;}.cls-10{fill:#ed8e24;}.cls-11{fill:#f8bf3c;}.cls-13{fill:#2062af;}.cls-14{fill:#3c9cd7;}.cls-15{fill:url(#linear-gradient);}.cls-16{fill:url(#linear-gradient-2);}.cls-17{fill:url(#linear-gradient-3);}.cls-18{opacity:0.05;isolation:isolate;}.cls-19{fill:url(#linear-gradient-4);}</style><linearGradient id="linear-gradient" x1="-807.95" y1="161.86" x2="-807.95" y2="161.07" gradientTransform="translate(6582.04 -1028.5) scale(8.09 6.72)" gradientUnits="userSpaceOnUse"><stop offset="0.39" stop-color="#d1d3d4" stop-opacity="0"/><stop offset="1" stop-color="#d1d3d4"/></linearGradient><linearGradient id="linear-gradient-2" x1="-814.8" y1="158.29" x2="-814.8" y2="157.49" gradientTransform="translate(7112.92 -1049.1) scale(8.67 6.99)" xlink:href="#linear-gradient"/><linearGradient id="linear-gradient-3" x1="-858.3" y1="115.8" x2="-857.5" y2="115.8" gradientTransform="translate(13865.5 -1406.95) scale(16.11 12.68)" gradientUnits="userSpaceOnUse"><stop offset="0" stop-color="#e8e7e5"/><stop offset="1" stop-color="#fff"/></linearGradient><linearGradient id="linear-gradient-4" x1="-862.27" y1="255.31" x2="-861.47" y2="255.31" gradientTransform="translate(15118.72 -820.74) scale(17.49 3.42)" xlink:href="#linear-gradient-3"/></defs><title>Asset 1</title><g id="Layer_2" data-name="Layer 2"><g id="Layer_1-2" data-name="Layer 1"><g id="Adwords-Page"><g id="Home"><g id="Process-Flow"><g id="Process"><g id="Do2"><g id="courses"><g id="Group-10"><g id="Combined-Shape"><path id="path-1" d="M23,51.3A25.72,25.72,0,0,1,25.5,0,25.5,25.5,0,0,1,47.4,12.5a25.43,25.43,0,0,1,43.8,0,25.48,25.48,0,0,1,47.4,13.2,25.75,25.75,0,0,1-19.5,25,27.56,27.56,0,0,1,.5,5.1A25.5,25.5,0,0,1,71.1,67,25.5,25.5,0,0,1,22.6,55.8,22.82,22.82,0,0,1,23,51.3Z"/><path class="cls-1" d="M23,51.3A25.72,25.72,0,0,1,25.5,0,25.5,25.5,0,0,1,47.4,12.5a25.43,25.43,0,0,1,43.8,0,25.48,25.48,0,0,1,47.4,13.2,25.75,25.75,0,0,1-19.5,25,27.56,27.56,0,0,1,.5,5.1A25.5,25.5,0,0,1,71.1,67,25.5,25.5,0,0,1,22.6,55.8,22.82,22.82,0,0,1,23,51.3Z"/></g><g id="Python"><g id="surface1"><path id="Shape" class="cls-2" d="M25.73,8.66a16.86,16.86,0,0,0-3.3.3c-3.1.5-3.7,1.7-3.7,3.8v3.3h7.5v1.7H14.83a4.42,4.42,0,0,0-4.7,3.5,14,14,0,0,0,0,7.6c.5,2.2,1.7,3.9,3.9,3.9h3v-4.2a5,5,0,0,1,4.8-4.9h6c2.1,0,4.2-1.5,4.2-3.6v-7.3a4.06,4.06,0,0,0-3.5-3.9C28.53,9,27,8.66,25.73,8.66ZM21.63,12a1.24,1.24,0,0,1,1.2,1.3,1.2,1.2,0,0,1-2.1.8,1.27,1.27,0,0,1-.4-.9A1.31,1.31,0,0,1,21.63,12Z"/><path class="cls-3" d="M24.93,40.26a16.86,16.86,0,0,0,3.3-.3c3.2-.6,3.8-1.7,3.8-3.9v-3.3h-7.5v-1.7h11.4a4.42,4.42,0,0,0,4.7-3.5,14,14,0,0,0,0-7.6c-.6-2.2-1.8-3.9-3.9-3.9h-3v4.2a5,5,0,0,1-4.8,4.9h-6c-2.1,0-4.2,1.5-4.2,3.6v7.1a4.06,4.06,0,0,0,3.5,3.9C22.13,40,23.63,40.26,24.93,40.26Zm4.2-3.4a1.24,1.24,0,0,1-1.2-1.3,1.2,1.2,0,1,1,2.4,0A1.18,1.18,0,0,1,29.13,36.86Z"/></g></g></g><g id="Group-9"><g id="Html"><g id="Group"><polygon class="cls-4" points="81.03 16.05 78.93 39.45 69.63 42.05 60.23 39.45 58.23 16.05 81.03 16.05"/><polygon class="cls-5" points="69.63 40.05 77.13 37.95 78.93 17.95 69.63 17.95 69.63 40.05"/><path class="cls-6" d="M65.53,23.65h4v-2.8h-7.2l.1.8.7,7.9h6.4v-2.9h-3.8Zm.7,7.3h-2.9l.4,4.5,5.8,1.6h0V34h0l-3.2-.9Z"/><path d="M60.33,9.65h1.4V11H63V9.65h1.4V14H63v-1.5h-1.3V14h-1.4V9.65Zm6.1,1.4h-1.3V9.55h4V11h-1.3v3h-1.4V11Zm3.4-1.4h1.5l.9,1.5.9-1.5h1.5V14h-1.4v-2.2l-1,1.6h0l-1-1.6V14h-1.4Zm5.6,0h1.5v2.9h2V14h-3.5V9.65Z"/><path class="cls-1" d="M69.63,29.55h3.5l-.3,3.7-3.2.9v3l5.8-1.6V35l.7-7.6.1-.8h-6.6Zm0-5.9h6.9l.1-.6.1-1.5.1-.8h-7.1v2.9Z"/></g></g></g><g id="Group-11"><g id="Android"><path class="cls-7" d="M90.22,58.85a1.79,1.79,0,0,1,1.8,1.8v7.7a1.8,1.8,0,1,1-3.6,0v-7.6a1.81,1.81,0,0,1,1.8-1.9Z"/><path class="cls-7" d="M86,49.55v12a2.26,2.26,0,0,0,2.3,2.3h12a2.33,2.33,0,0,0,2.3-2.3v-12Z"/><path class="cls-7" d="M98.42,58.85a1.79,1.79,0,0,1,1.8,1.8v7.7a1.8,1.8,0,1,1-3.6,0v-7.6a1.88,1.88,0,0,1,1.8-1.9Zm-15.3-8.2a1.79,1.79,0,0,1,1.8,1.8v7.7a1.8,1.8,0,1,1-3.6,0v-7.7A1.79,1.79,0,0,1,83.12,50.65Zm22.4,0a1.79,1.79,0,0,1,1.8,1.8v7.7a1.8,1.8,0,1,1-3.6,0v-7.7A1.73,1.73,0,0,1,105.52,50.65Zm-19.4-1.8c.1-3.6,3.2-6.6,7.3-7h1.8c4.1.4,7.2,3.3,7.3,7Z"/><path class="cls-8" d="M86.72,41.55l1.9,3.3m13.2-3.3-1.9,3.3"/><path class="cls-1" d="M91.82,45.55a.9.9,0,0,1-1.8,0h0a.9.9,0,0,1,1.8,0Zm7,0a.9.9,0,1,1-1.8,0h0a.9.9,0,0,1,1.8,0Z"/></g></g><g id="Group-12-Copy"><g id="Tensorflow_logo" data-name="Tensorflow logo"><path id="path4508" class="cls-9" d="M115.22,16v4.3l7.4,4.3v-4.3Zm-14.8,4.3v4.3l3.7,2.1v-4.3Zm11.1,2.1-3.7,2.1v12.8l3.7,2.1v-8.5l3.7,2.1v-4.3l-3.7-2Z"/><path id="path4491" class="cls-10" d="M115.22,16,104,22.42v4.3l7.4-4.3v4.3l3.7-2.1V16Zm11.2,2.2-3.7,2.1v4.3l3.7-2.1Zm-7.4,8.5-3.7,2.1v4.3L119,31Zm-3.8,6.4-3.7-2.1v8.5l3.7-2.1Z"/><path id="path4506" class="cls-11" d="M115.22,11.82l-14.9,8.5,3.7,2.1,11.2-6.4,7.4,4.3,3.7-2.1Zm0,12.7-3.7,2.2,3.7,2.1,3.7-2.1Z"/></g></g><g id="Group-7"><g id="Css"><polygon class="cls-12" points="30.32 38.34 65.92 38.34 65.92 74.04 30.32 74.04 30.32 38.34"/><polygon class="cls-13" points="57.12 69.34 48.12 71.74 39.12 69.34 37.02 46.74 59.12 46.74 57.12 69.34"/><polygon class="cls-14" points="48.12 48.54 48.12 69.74 48.12 69.84 55.41 67.84 57.02 48.54 48.12 48.54"/><path d="M42.91,43.44V42h2v-1.5h-3.4v4.2h3.4v-1.3Zm5.5-1.4h1.4v-1.5h-3.4V42c.5.5.7.7,1.4,1.3h-1.4v1.3h3.4v-1.3Zm4.9,0h1.4v-1.5h-3.4V42c.5.5.7.7,1.4,1.3h-1.4v1.3h3.4v-1.3Z"/><polygon class="cls-1" points="48.12 54.24 41.62 56.84 41.81 59.54 48.12 56.84 54.72 54.04 55.02 51.34 48.12 54.24"/><polygon class="cls-15" points="41.62 56.84 41.81 59.54 48.12 56.84 48.12 54.24 41.62 56.84"/><polygon class="cls-16" points="55.02 51.34 48.12 54.24 48.12 56.84 54.72 54.04 55.02 51.34"/><polygon class="cls-17" points="41.62 56.84 41.81 59.54 51.41 59.54 51.22 63.14 48.02 64.04 45.02 63.24 44.81 61.04 42.02 61.04 42.41 65.34 48.12 67.04 53.72 65.34 54.41 56.84 41.62 56.84"/><path class="cls-18" d="M48.11,56.84h-6.4l.2,2.7h6.2Zm0,7.2h0l-3.1-.8-.2-2.2H42l.4,4.3,5.7,1.7Z"/><polygon class="cls-19" points="41.02 51.34 55.02 51.34 54.72 54.04 41.41 54.04 41.02 51.34"/><polygon class="cls-18" points="48.12 51.34 41.02 51.34 41.41 54.04 48.12 54.04 48.12 51.34"/></g></g></g></g></g></g></g></g></g></g></svg>