<?xml version="1.0" encoding="UTF-8"?>
<svg width="24px" height="24px" viewBox="0 0 24 24" version="1.1" xmlns="http://www.w3.org/2000/svg" xmlns:xlink="http://www.w3.org/1999/xlink">
    <!-- Generator: Sketch 52 (66869) - http://www.bohemiancoding.com/sketch -->
    <title>Group 5</title>
    <desc>Created with Sketch.</desc>
    <g id="Adwords-Page" stroke="none" stroke-width="1" fill="none" fill-rule="evenodd">
        <g id="Home-768" transform="translate(-267.000000, -734.000000)">
            <g id="Group-8" transform="translate(40.000000, 507.000000)">
                <g id="Events-Card" transform="translate(0.000000, 198.000000)">
                    <g id="content" transform="translate(32.000000, 27.000000)">
                        <g id="Group-16">
                            <g id="Group-5" transform="translate(195.000000, 2.000000)">
                                <circle id="Oval" fill="#FF8080" cx="12" cy="12" r="12"></circle>
                                <path d="M9.28150896,12 L6.56301793,9.28150896 C5.81232736,8.53081839 5.81232736,7.3137085 6.56301793,6.56301793 C7.3137085,5.81232736 8.53081839,5.81232736 9.28150896,6.56301793 L12,9.28150896 L14.718491,6.56301793 C15.4691816,5.81232736 16.6862915,5.81232736 17.4369821,6.56301793 C18.1876726,7.3137085 18.1876726,8.53081839 17.4369821,9.28150896 L14.718491,12 L17.4369821,14.718491 C18.1876726,15.4691816 18.1876726,16.6862915 17.4369821,17.4369821 C16.6862915,18.1876726 15.4691816,18.1876726 14.718491,17.4369821 L12,14.718491 L9.28150896,17.4369821 C8.53081839,18.1876726 7.3137085,18.1876726 6.56301793,17.4369821 C5.81232736,16.6862915 5.81232736,15.4691816 6.56301793,14.718491 L9.28150896,12 Z" id="Combined-Shape" fill="#FFFFFF"></path>
                            </g>
                        </g>
                    </g>
                </g>
            </g>
        </g>
    </g>
</svg>