<svg xmlns="http://www.w3.org/2000/svg" xmlns:xlink="http://www.w3.org/1999/xlink" viewBox="0 0 138.8 92.03"><defs><style>.cls-1{fill:url(#linear-gradient);}.cls-2{fill:#2dc76d;}.cls-3,.cls-5{fill:#fff;}.cls-4{fill:url(#linear-gradient-2);}.cls-5{opacity:0.45;isolation:isolate;}.cls-6{fill:#f3757c;}.cls-7{fill:#c1a4ff;}.cls-8{fill:#85cff3;}.cls-9{fill:#eaf2ff;}.cls-10{fill:#f2f4ff;}.cls-11{fill:#13b53e;}.cls-12{fill:#18a12b;}.cls-13{fill:#f2f2f2;}</style><linearGradient id="linear-gradient" x1="-850.78" y1="-4.88" x2="-850.29" y2="-5.63" gradientTransform="translate(136153.8 616.63) scale(160 109)" gradientUnits="userSpaceOnUse"><stop offset="0" stop-color="#fcefff"/><stop offset="1" stop-color="#c9e7ff"/></linearGradient><linearGradient id="linear-gradient-2" x1="-824.98" y1="-4.35" x2="-824.49" y2="-5.09" gradientTransform="translate(22279.2 519.75) scale(27 100)" xlink:href="#linear-gradient"/></defs><title>Asset 1</title><g id="Layer_2" data-name="Layer 2"><g id="Layer_1-2" data-name="Layer 1"><g id="Adwords-Page"><g id="Home"><g id="Process-Flow"><g id="Process"><g id="Do1"><g id="first_session_free" data-name="first session free"><g id="Path"><path class="cls-1" d="M2.7,8.13H120.5a2.69,2.69,0,0,1,2.7,2.7v78.5a2.69,2.69,0,0,1-2.7,2.7H2.7A2.69,2.69,0,0,1,0,89.33V10.73A2.67,2.67,0,0,1,2.7,8.13Z"/></g><g id="Button"><g id="Rectangle-5"><path id="path-4" d="M36.2,58.93H83.9a6.23,6.23,0,0,1,6.2,6.2v7.7A6.23,6.23,0,0,1,83.9,79H36.2a6.23,6.23,0,0,1-6.2-6.2v-7.7A6.23,6.23,0,0,1,36.2,58.93Z"/><path class="cls-2" d="M36.2,58.93H83.9a6.23,6.23,0,0,1,6.2,6.2v7.7A6.23,6.23,0,0,1,83.9,79H36.2a6.23,6.23,0,0,1-6.2-6.2v-7.7A6.23,6.23,0,0,1,36.2,58.93Z"/></g><path id="Sign-up-now" class="cls-3" d="M40,69.33a2.76,2.76,0,0,0,.6.8,1.88,1.88,0,0,0,.8.2,1.27,1.27,0,0,0,.6-.1.76.76,0,0,0,.2-.5.37.37,0,0,0-.1-.3c0-.2-.1-.2-.2-.3s-.1-.1-.2-.2a.37.37,0,0,0-.3-.1c-.1,0-.2-.1-.4-.1-.9-.3-1.4-.8-1.4-1.5a1.39,1.39,0,0,1,.5-1,1.59,1.59,0,0,1,1.2-.4,1.8,1.8,0,0,1,1.1.3,1.56,1.56,0,0,1,.6.8l-.7.4a2.18,2.18,0,0,0-.4-.5,1,1,0,0,0-1.2,0c-.2.1-.2.2-.2.4a.37.37,0,0,0,.1.3c.1,0,.2.1.3.2s.3.1.4.2a1.69,1.69,0,0,1,.5.2c.9.3,1.4.8,1.4,1.5a1.43,1.43,0,0,1-.5,1.1,1.84,1.84,0,0,1-1.3.4,1.59,1.59,0,0,1-1.2-.4,2.54,2.54,0,0,1-.8-1Zm4.1-2.7a.37.37,0,0,1-.1-.3c0-.1.1-.3.2-.3s.2-.1.4-.1.3,0,.4.1v.3c0,.1-.1.3-.2.3s-.2.1-.4.1S44.2,66.73,44.1,66.63Zm0,1h.8V71h-.8Zm2.2,3a1.54,1.54,0,0,1-.5-1.3,1.9,1.9,0,0,1,.5-1.3,1.66,1.66,0,0,1,1.2-.5,1.43,1.43,0,0,1,1.2.6v-.5h.8v3.3a1.73,1.73,0,0,1-.5,1.3,1.66,1.66,0,0,1-1.3.5,1.7,1.7,0,0,1-1.3-.4,1.52,1.52,0,0,1-.6-1.1h.8a.86.86,0,0,0,.3.6.84.84,0,0,0,.7.2.91.91,0,0,0,.7-.3,1.14,1.14,0,0,0,.3-.8v-.5a1.15,1.15,0,0,1-1.1.6A1.59,1.59,0,0,1,46.3,70.63Zm.6-2.1a1.1,1.1,0,0,0,.8,1.9.91.91,0,0,0,.7-.3,1.22,1.22,0,0,0,0-1.6.84.84,0,0,0-.7-.2A1.08,1.08,0,0,0,46.9,68.53Zm5.9.5c0-.5-.2-.8-.6-.8a1.42,1.42,0,0,0-.6.2,1.07,1.07,0,0,0-.2.6v2.1h-.8v-3.4h.8v.5a1.15,1.15,0,0,1,1.1-.6,1.22,1.22,0,0,1,.9.3,1.33,1.33,0,0,1,.3,1V71h-.9Zm5.1.7c0,.5.2.8.7.8a1.42,1.42,0,0,0,.6-.2.76.76,0,0,0,.2-.5v-2.1h.8v3.4h-.8v-.6a1.15,1.15,0,0,1-1.1.6,1.22,1.22,0,0,1-.9-.3,1.33,1.33,0,0,1-.3-1v-2.1H58v2ZM64.5,68a1.94,1.94,0,0,1,0,2.6,1.66,1.66,0,0,1-1.2.5,1.31,1.31,0,0,1-1.2-.7v2.2h-.8v-5h.8v.6a1.52,1.52,0,0,1,1.2-.7A2.2,2.2,0,0,1,64.5,68Zm-.6,2.1a1,1,0,0,0,.3-.8,1,1,0,0,0-1.1-1.1.91.91,0,0,0-.7.3,1.22,1.22,0,0,0,0,1.6.91.91,0,0,0,.7.3A1.33,1.33,0,0,0,63.9,70.13ZM70.4,69c0-.5-.2-.8-.6-.8a1.42,1.42,0,0,0-.6.2.76.76,0,0,0-.2.5V71h-.8v-3.4H69v.6a1.15,1.15,0,0,1,1.1-.6,1.22,1.22,0,0,1,.9.3,1.33,1.33,0,0,1,.3,1V71h-.9Zm2.2,1.6a1.43,1.43,0,0,1-.5-1.3,1.9,1.9,0,0,1,.5-1.3,2.17,2.17,0,0,1,1.4-.5,2.39,2.39,0,0,1,1.4.5,1.43,1.43,0,0,1,.5,1.3,1.9,1.9,0,0,1-.5,1.3,2.21,2.21,0,0,1-2.8,0Zm.6-2a1.22,1.22,0,0,0,0,1.6,1.1,1.1,0,1,0,0-1.6Zm2.9-1H77l.8,2,1-2.3,1,2.3.8-2h.9L80,71.23l-1.1-2.3-1.1,2.3Z"/></g><path class="cls-4" d="M0,15H20.8V92H2.7A2.69,2.69,0,0,1,0,89.33Z"/><path id="Oval" class="cls-3" d="M10,28.13a3.8,3.8,0,1,1,3.8-3.8A3.68,3.68,0,0,1,10,28.13Zm0-.9a2.9,2.9,0,0,0,0-5.8,2.82,2.82,0,0,0-2.9,2.8A2.93,2.93,0,0,0,10,27.23Z"/><path class="cls-5" d="M2.7,8.13H120.5a2.69,2.69,0,0,1,2.7,2.7V15H0v-4.2A2.69,2.69,0,0,1,2.7,8.13Z"/><circle class="cls-6" cx="4.7" cy="11.13" r="0.8"/><circle id="Oval-Copy-69" class="cls-7" cx="7.7" cy="11.13" r="0.8"/><circle id="Oval-Copy-70" class="cls-8" cx="10.8" cy="11.13" r="0.8"/><path id="Path-162" class="cls-3" d="M8.2,33.53a.4.4,0,0,1,0-.8H12a.4.4,0,0,1,0,.8Z"/><path id="Path-162-Copy-2" class="cls-3" d="M27.4,22.73a.4.4,0,0,1,0-.8h3.8a.4.4,0,0,1,0,.8Z"/><path id="Path-162-Copy" class="cls-9" d="M5.9,35.83a.4.4,0,0,1,0-.8h8.4a.4.4,0,0,1,0,.8Z"/><path id="Path-162-Copy-3" class="cls-10" d="M27.4,24.23a.4.4,0,0,1,0-.8h8.4a.4.4,0,0,1,0,.8Z"/><g id="Group"><polygon class="cls-11" points="70.53 24.05 134.48 6.92 132.4 16.17 138.8 23.05 74.85 40.19 77.05 31 70.53 24.05"/><polygon class="cls-12" points="73.8 25.04 132.14 9.41 129.89 16.85 135.56 22.16 77.22 37.79 79.47 30.36 73.8 25.04"/><path class="cls-13" d="M124.74,35.51c-.42.73-5.67,1.62-6.25,2.19s-1.43,5.87-2.22,6.39-5.68-1.48-6.55-1.25-4.22,4.34-5,4.35-4.24-4.25-5-4.45S93.89,44.4,93.16,44s-1.65-5.77-2.22-6.34-5.8-1.55-6.3-2.25,1.46-5.77,1.22-6.64-4.37-4.32-4.28-5.17,4.05-4.19,4.33-5.09-1.68-5.87-1.25-6.6C85,11,90.28,10.07,90.86,9.5s1.5-6,2.22-6.39,5.68,1.48,6.55,1.25,4.22-4.34,5-4.35,4.24,4.25,5,4.45,5.77-1.65,6.5-1.23,1.65,5.77,2.22,6.34,5.8,1.55,6.3,2.25-1.46,5.77-1.22,6.64,4.37,4.32,4.28,5.17-4,4.29-4.33,5.09C123.31,29.79,125.17,34.78,124.74,35.51Z"/><path class="cls-11" d="M123.27,34.67c-.42.73-5.19,1.49-5.76,2.06s-1.34,5.43-2.06,5.83-5.24-1.39-6-1.18-3.89,4-4.61,4-3.95-3.91-4.63-4.14-5.29,1.52-6,1.1-1.52-5.29-2.09-5.86S86.73,35,86.33,34.32s1.37-5.34,1.16-6.11-4-4-4-4.74,3.82-3.92,4-4.7S86,13.29,86.42,12.65s5.19-1.49,5.76-2.06,1.34-5.43,2.06-5.83,5.24,1.39,6,1.18,3.89-4,4.61-4,3.95,3.91,4.63,4.14,5.29-1.52,6-1.1,1.52,5.29,2.09,5.86S123,12.28,123.37,13s-1.37,5.34-1.16,6.11,4,4,4,4.74-3.82,3.92-4,4.7S123.6,34,123.27,34.67Z"/><path class="cls-12" d="M120.43,32.94c-.35.61-4.42,1.29-4.92,1.73s-1.13,4.65-1.66,5-4.46-1.19-5.14-1-3.22,3.45-3.94,3.44-3.26-3.27-3.94-3.5-4.51,1.31-5.13,1-1.31-4.51-1.76-5S89.39,33.39,89,32.77s1.16-4.56,1-5.23-3.38-3.34-3.37-4.07,3.24-3.35,3.38-4-1.34-4.61-1-5.22,4.42-1.29,4.92-1.73,1.13-4.65,1.69-4.9,4.46,1.19,5.14,1,3.22-3.45,3.94-3.44,3.26,3.27,3.94,3.5,4.51-1.31,5.13-1,1.31,4.51,1.76,5,4.56,1.16,4.93,1.78-1.16,4.56-1,5.23,3.38,3.34,3.37,4.07-3.24,3.35-3.38,4S120.81,32.43,120.43,32.94Z"/><path class="cls-11" d="M90.34,20.71,115.1,14.6c2.54-.58,4.51-1.31,4.66-1.15l2.37,2.68-1,5,3.56,4c.15.17-3.79.91-6.3,1.59L93.6,32.88c-2.54.58-4.61,1.34-4.66,1.15L85.68,21.86c-.05-.19,7.17-1.82,4.66-1.15Z"/><path id="Shape" class="cls-13" d="M94.14,21.35l2.51,9.37,1.45-.39-1-3.86L98.9,26l-.36-1.35-1.84.49-.75-2.8,2.41-.65L98,20.32ZM104,18.71l2.51,9.37,4-1.06-.36-1.35-2.51.67-.72-2.7,1.93-.52-.36-1.35-1.93.52-.7-2.61,2.41-.65-.36-1.35Zm-5.31,1.42,2.51,9.37,1.45-.39-1-3.77.48-.13c.68-.18,1,0,1.28.9l.39,1.45a10.53,10.53,0,0,0,.41,1.13l1.45-.39a4.48,4.48,0,0,1-.41-1.13l-.39-1.45c-.26-1-.63-1.59-1.51-1.77a1.93,1.93,0,0,0,.45-2.19l-.21-.77a1.92,1.92,0,0,0-2.69-1.56l-2.22.6Zm10-2.69,2.51,9.37,4-1.06-.36-1.35-2.51.67-.72-2.7,1.93-.52-.36-1.35-1.93.52-.7-2.61,2.51-.67-.36-1.35Zm-8.23,3.66.68-.18c.48-.13.85.08,1,.76l.26,1c.21.77,0,1-.61,1.2l-.58.16Z"/></g></g></g></g></g></g></g></g></g></svg>