<?xml version="1.0" encoding="UTF-8"?>
<svg width="478px" height="339px" viewBox="0 0 478 339" version="1.1" xmlns="http://www.w3.org/2000/svg" xmlns:xlink="http://www.w3.org/1999/xlink">
    <!-- Generator: Sketch 52 (66869) - http://www.bohemiancoding.com/sketch -->
    <title>free_session</title>
    <desc>Created with Sketch.</desc>
    <defs>
        <linearGradient x1="25.7898403%" y1="92.5182164%" x2="89.6981579%" y2="-3.7934039%" id="linearGradient-1">
            <stop stop-color="#FCEFFF" offset="0%"></stop>
            <stop stop-color="#C9E7FF" offset="100%"></stop>
        </linearGradient>
        <path d="M6.97826087,1.14801785e-15 L314.021739,0 C317.875726,-7.8680088e-16 321,3.47217465 321,7.75531915 L321,235.244681 C321,239.527825 317.875726,243 314.021739,243 L6.97826087,243 C3.12427381,243 4.71977292e-16,239.527825 0,235.244681 L0,7.75531915 C-4.71977292e-16,3.47217465 3.12427381,1.93481873e-15 6.97826087,1.14801785e-15 Z" id="path-2"></path>
        <rect id="path-4" x="0" y="0.712903992" width="271.719867" height="79.5725737"></rect>
        <filter x="-1.8%" y="-7.5%" width="103.7%" height="112.6%" filterUnits="objectBoundingBox" id="filter-5">
            <feOffset dx="0" dy="-1" in="SourceAlpha" result="shadowOffsetOuter1"></feOffset>
            <feGaussianBlur stdDeviation="1.5" in="shadowOffsetOuter1" result="shadowBlurOuter1"></feGaussianBlur>
            <feColorMatrix values="0 0 0 0 1   0 0 0 0 1   0 0 0 0 1  0 0 0 0.2 0" type="matrix" in="shadowBlurOuter1"></feColorMatrix>
        </filter>
        <linearGradient x1="50%" y1="47.7642909%" x2="50%" y2="97.9532047%" id="linearGradient-6">
            <stop stop-color="#000000" stop-opacity="0" offset="0%"></stop>
            <stop stop-color="#000000" stop-opacity="0.1" offset="100%"></stop>
        </linearGradient>
        <rect id="path-7" x="0" y="0.414140313" width="272.034394" height="147.732715"></rect>
        <rect id="path-9" x="34.5319382" y="0.207070156" width="240.039083" height="9.9393675"></rect>
        <filter x="-2.1%" y="-40.2%" width="104.2%" height="200.6%" filterUnits="objectBoundingBox" id="filter-10">
            <feOffset dx="0" dy="1" in="SourceAlpha" result="shadowOffsetOuter1"></feOffset>
            <feGaussianBlur stdDeviation="1.5" in="shadowOffsetOuter1" result="shadowBlurOuter1"></feGaussianBlur>
            <feColorMatrix values="0 0 0 0 1   0 0 0 0 1   0 0 0 0 1  0 0 0 0.1 0" type="matrix" in="shadowBlurOuter1"></feColorMatrix>
        </filter>
        <filter x="-2.1%" y="-40.2%" width="104.2%" height="200.6%" filterUnits="objectBoundingBox" id="filter-11">
            <feGaussianBlur stdDeviation="1.5" in="SourceAlpha" result="shadowBlurInner1"></feGaussianBlur>
            <feOffset dx="0" dy="-1" in="shadowBlurInner1" result="shadowOffsetInner1"></feOffset>
            <feComposite in="shadowOffsetInner1" in2="SourceAlpha" operator="arithmetic" k2="-1" k3="1" result="shadowInnerInner1"></feComposite>
            <feColorMatrix values="0 0 0 0 0   0 0 0 0 0   0 0 0 0 0  0 0 0 0.1 0" type="matrix" in="shadowInnerInner1"></feColorMatrix>
        </filter>
        <rect id="path-12" x="0" y="0" width="90" height="63"></rect>
        <linearGradient x1="13.5614594%" y1="-68.3679207%" x2="98.6337839%" y2="97.338838%" id="linearGradient-14">
            <stop stop-color="#CE8BA0" offset="0%"></stop>
            <stop stop-color="#875151" offset="100%"></stop>
        </linearGradient>
        <path d="M14.6405678,0.549351022 C13.8814112,4.11530211 11.200189,6.03365302 6.59690139,6.30440375 C1.99361374,6.57515447 0.031667754,8.49350538 0.711063434,12.0594565 C13.5633769,12.0594565 21.2581103,12.0594565 23.7952638,12.0594565 C26.3324173,12.0594565 27.2936549,10.9912253 26.6789767,8.85476308 L24.775576,0.549351022 L14.6405678,0.549351022 Z" id="path-15"></path>
        <path d="M6.61542405,0.549351022 C5.58953873,2.68581328 4.10011595,4.60416419 2.14715572,6.30440375 C-0.782284637,8.85476308 0.331549046,12.0594565 1.93649157,12.0594565 C3.54143409,12.0594565 14.5959931,12.0594565 18.4017233,12.0594565 C20.9388767,12.0594565 21.9001144,10.9912253 21.2854362,8.85476308 L16.7504323,0.549351022 L6.61542405,0.549351022 Z" id="path-17"></path>
        <linearGradient x1="134.336457%" y1="14.6433308%" x2="6.66193047%" y2="100%" id="linearGradient-19">
            <stop stop-color="#404683" offset="0%"></stop>
            <stop stop-color="#373A5B" offset="100%"></stop>
        </linearGradient>
        <path d="M1.89003056,0.239587715 C-1.81465613,26.8956316 3.62403871,37.9144277 1.89003056,61.3760808 C1.49036352,66.7836964 1.89003056,87.3396567 2.38630044,97.6789129 C2.49351755,99.9126676 1.05254297,102.695447 3.41295652,103.222494 C5.77337006,103.749541 12.7593273,103.53798 14.2936185,103.53798 C15.8279097,103.53798 15.0013715,100.772605 15.0013715,98.6144257 C15.0013715,82.3179445 17.3804389,81.3058365 16.8707086,72.7478256 C16.2259838,61.9233499 17.8264976,46.9051008 21.6722502,27.6930782 C22.8896313,37.6452815 24.7572175,47.2804923 27.2750089,56.5987105 C29.3725256,64.3615132 27.4255369,74.2433238 29.2259469,89.3068069 C29.4863935,91.4858845 28.5984022,102.532363 30.9617412,102.907009 C33.3250801,103.281654 39.3659937,103.281654 40.9933981,103.222494 C42.6208024,103.163334 42.3952719,96.4986005 43.475031,89.3068069 C44.55479,82.1150134 43.475031,65.4772516 43.475031,56.5987105 C43.475031,50.6796832 40.7795407,31.8933089 35.38856,0.239587715 L1.89003056,0.239587715 Z" id="path-20"></path>
        <linearGradient x1="43.4983217%" y1="90.8808934%" x2="79.0409349%" y2="0%" id="linearGradient-22">
            <stop stop-color="#5D63D3" offset="0%"></stop>
            <stop stop-color="#B986FF" offset="100%"></stop>
        </linearGradient>
        <path d="M41.155267,1.8804711 C36.6294354,0.457166604 26.7215813,-0.848626285 16.3326803,1.03748 C11.3876043,1.93525917 8.02892036,4.60312021 6.10589779,9.12081704 C-0.420830988,24.453857 -2.63737562,41.1724342 6.92557307,41.1724342 C11.1507954,41.1724342 10.0376461,41.1724342 12.747279,41.1724342 C12.5861939,50.1675768 12.5118311,54.8684401 12.5241906,55.2750241 C12.5803225,57.1215722 11.8525374,59.3245275 16.9442258,60.1176381 C22.0359143,60.9107487 37.1952525,60.9107487 42.1830359,60.4499545 C47.1708194,59.9891604 52.1676351,59.4012377 49.8342086,54.2855878 C48.2785909,50.8751545 47.3538574,43.0891874 47.0600079,30.9276865 L56.537385,36.4452152 C59.8171065,40.7628455 62.3476034,41.7239186 64.1288759,39.3284346 C65.9101484,36.9329505 64.0973322,31.5931129 58.6904273,23.3089218 L47.0600079,5.88868628 C46.140735,4.16541249 44.172488,2.82934076 41.155267,1.8804711 Z" id="path-23"></path>
        <linearGradient x1="25.0928379%" y1="65.3020913%" x2="117.882934%" y2="-13.5297543%" id="linearGradient-25">
            <stop stop-color="#321847" offset="0%"></stop>
            <stop stop-color="#834A88" offset="100%"></stop>
        </linearGradient>
        <linearGradient x1="60.0821709%" y1="23.8262208%" x2="0%" y2="110.629515%" id="linearGradient-26">
            <stop stop-color="#F68585" offset="0%"></stop>
            <stop stop-color="#FF9B92" offset="100%"></stop>
        </linearGradient>
        <path d="M0.270106059,8.32799578 C2.18467162,10.4702615 4.02702228,11.5413943 5.79715804,11.5413943 C7.56729381,11.5413943 8.83280115,10.4702615 9.59368005,8.32799578 L8.92914109,4.19249447 L1.8527311,0.373485535 L0.270106059,8.32799578 Z" id="path-27"></path>
        <linearGradient x1="9.10523164%" y1="110.865056%" x2="87.6008642%" y2="23.8262208%" id="linearGradient-29">
            <stop stop-color="#FF9292" offset="0%"></stop>
            <stop stop-color="#FFB59D" offset="100%"></stop>
        </linearGradient>
        <path d="M5.38693509,0.470755304 C8.1061702,1.48900726 14.5215964,1.83383043 16.5463208,0.470755304 C16.1600871,10.866069 14.5415347,16.0637258 11.9739408,16.0637258 C8.12255005,16.0637258 3.91495732,14.0196724 2.94487535,9.72501616 C2.93430476,9.67821904 2.92398755,9.63182709 2.91392371,9.5858403 C2.81597478,9.60015527 2.71588584,9.60755819 2.61413009,9.60755819 C1.43794863,9.60755819 0.484465169,8.61847324 0.484465169,7.39837513 C0.484465169,6.17827702 1.43794863,5.18919207 2.61413009,5.18919207 C3.35337552,5.18919207 4.00464886,5.57990901 4.38651017,6.17312828 C4.60167334,6.2749918 5.43048965,2.97855133 5.38693509,0.470755304 Z" id="path-30"></path>
        <rect id="path-32" x="0" y="0" width="90" height="63"></rect>
        <path d="M14.6297072,0.445483581 C14.9785481,0.712153166 13.413819,1.81221376 9.93552009,3.74566537 C7.82808809,4.91710516 5.14210659,6.11709465 1.87757557,7.34563386 C-0.245974672,8.14478838 0.281715272,9.77933895 2.72064775,9.77933895 C14.4547356,9.77933895 21.3175128,9.77933895 23.3089795,9.77933895 C25.714373,9.77933895 26.6256914,8.91308147 26.0429348,7.18056653 L24.2383819,0.445483581 L14.6297072,0.445483581 Z" id="path-34"></path>
        <path d="M8.20562553,0.445483581 C5.74761796,3.08344984 3.59284484,5.09181806 1.74130618,6.47058824 C-1.03600182,8.5387435 0.81545657,9.77933895 2.33705086,9.77933895 C3.85864514,9.77933895 15.7717458,9.77933895 19.379836,9.77933895 C21.7852294,9.77933895 22.6965479,8.91308147 22.1137913,7.18056653 L17.8143002,0.445483581 L8.20562553,0.445483581 Z" id="path-36"></path>
        <path d="M7.61428571,0.399760607 C1.75714286,11.8128655 5.63637306,31.7165274 5.26405177,51.5031116 C4.95587595,67.8807594 1.13891445,87.1309247 0.867366202,90.9862989 C0.717621988,93.1123297 -0.585714286,99.8565289 1.97026778,100.117976 C4.52624984,100.379423 9.25930675,100.416752 10.7567262,100.416752 C12.2541456,100.416752 13.151144,92.0559714 13.4714286,90.1174115 C13.9579864,87.172463 15.9834644,73.5107772 18.3947873,58.4987426 C19.3674437,52.4433315 20.9865699,42.7124453 23.252166,29.3060842 C26.5344183,65.0336859 27.8158482,86.4392027 27.0964558,93.5226348 C26.8846428,95.608232 26.1939171,100.117976 27.3376703,100.117976 C28.4814235,100.117976 36.2706414,100.416752 37.1282483,100.416752 C37.9858553,100.416752 37.7307552,95.46782 38.5429972,90.1174115 C38.8527846,88.0767766 40.4424733,76.40348 40.4142857,57.2014456 C40.3974187,45.7112632 40.4424733,32.1935988 38.5429972,14.7660819 C38.2407338,11.9928436 37.5739128,8.05522177 36.5425341,2.95321637 L7.61428571,0.399760607 Z" id="path-38"></path>
        <linearGradient x1="50%" y1="0%" x2="50%" y2="100%" id="linearGradient-40">
            <stop stop-color="#AF3053" offset="0%"></stop>
            <stop stop-color="#7A3343" offset="100%"></stop>
        </linearGradient>
        <linearGradient x1="-8.21639051%" y1="126.905762%" x2="89.8115447%" y2="0%" id="linearGradient-41">
            <stop stop-color="#FFCFAA" offset="0%"></stop>
            <stop stop-color="#FA6EB9" offset="100%"></stop>
        </linearGradient>
        <path d="M36.803397,2.38596491 C28.54123,0.0587049764 36.6255048,-0.0680073246 26.7860694,0.918737769 C22.7549423,1.32299825 18.6778064,3.25229352 14.5546618,6.70662356 C10.0178571,10.4493165 5.41358469,17.7606649 3.0406852,22.8678434 C0.667785705,27.975022 -1.21404701,32.8070175 3.0406852,34.9795899 C4.27399248,36.0653703 6.91029633,34.0737431 10.9495968,29.0047081 L17.4137216,19.6797447 C18.7547758,29.0237011 19.4324214,35.3637828 19.4466582,38.69999 C19.4676257,43.6134234 14.5546618,48.9285904 14.5546618,61.9340987 C14.9600532,61.9800197 17.0183743,51.4848333 17.4137216,51.5273903 C17.9009536,51.5798381 16.94148,61.8866429 17.4137216,61.9340987 C27.0671911,62.9041802 29.2539311,68.3735903 36.803397,67.4035088 C37.3688127,67.3308547 38.2172909,63.1706202 39.3488318,54.9228052 C40.5866447,63.3105788 41.566261,67.4708134 42.2876804,67.4035088 C45.2533909,67.1268238 47.5040667,64.6608761 49.6815983,64.6608761 C50.1285566,64.6608761 48.5757364,55.4289428 47.9496013,50.7017544 C47.6795014,48.6625561 46.7989281,42.7530885 46.7989281,34.5964912 C46.7989281,31.4152047 47.1824858,27.9179603 47.9496013,24.1047581 C53.5503537,30.0674097 57.7866389,33.1078644 60.6584569,33.2261221 C63.530275,33.3443799 65.6441227,32.6023392 67,31 C52.3770427,13.4754832 42.3115084,3.93747154 36.803397,2.38596491 Z" id="path-42"></path>
        <path d="M0.24763057,8.07527708 C2.14668495,11.9182258 7.10285502,13.0730558 8.16771923,13.0730558 C8.87762871,13.0730558 9.11423579,11.7290757 8.87754049,9.04111544 L9.10650987,4.04460576 L1.86678145,0.322404112 C2.17096051,5.29719389 1.63124355,7.88148488 0.24763057,8.07527708 Z" id="path-44"></path>
        <path d="M15.0773317,0.458822223 C16.1562005,3.24655135 16.6278466,5.21667359 16.4922697,6.36918896 C15.763922,12.5607494 14.5714286,18 11.7339548,18 C7.79367674,18 4.0053117,13.6642905 3.01284094,9.47849868 C3.00202639,9.43288781 2.99147107,9.38767184 2.98117496,9.34285077 C2.88096544,9.35680286 2.77856652,9.36401813 2.67446232,9.36401813 C1.47113545,9.36401813 0.495646275,8.4000053 0.495646275,7.21083521 C0.495646275,6.02166512 1.47113545,5.05765229 2.67446232,5.05765229 C3.43076901,5.05765229 4.09707326,5.43846501 4.48774765,6.01664689 C4.70787663,6.11592829 12.2863694,6.41285421 15.0773317,0.458822223 Z" id="path-46"></path>
        <linearGradient x1="50%" y1="0%" x2="50%" y2="100%" id="linearGradient-48">
            <stop stop-color="#A3EDED" offset="0%"></stop>
            <stop stop-color="#9FCFFF" offset="100%"></stop>
        </linearGradient>
        <linearGradient x1="9.10523164%" y1="110.865056%" x2="71.9003911%" y2="24.892819%" id="linearGradient-49">
            <stop stop-color="#FF9292" offset="0%"></stop>
            <stop stop-color="#FFB59D" offset="100%"></stop>
        </linearGradient>
        <path d="M0.4039841,7.8363974 C0.145242263,5.06689801 2.33433364,2.85694044 6.97125823,1.20652468 L25.006986,3.28456332 C25.0043961,3.26608419 25.0017418,3.24770042 24.9990194,3.22941093 C26.8994016,1.60612292 28.3856349,0.794478913 29.4577191,0.794478913 L29.0349181,2.77595301 C31.6750041,2.67131742 33.6079212,2.01082605 34.8336694,0.794478913 C36.6722918,-1.03004179 35.7625769,3.05073085 34.5711481,3.68214832 C33.3797193,4.31356578 33.8996288,7.94757045 31.0414096,8.51851308 C29.1359301,8.89914149 24.0685724,8.27037844 24.096481,8.14620239 C7.50248811,9.30487169 2.60956956,9.71906741 0.4039841,7.8363974 Z" id="path-50"></path>
        <linearGradient x1="84.8730605%" y1="26.0032028%" x2="13.4080176%" y2="100%" id="linearGradient-52">
            <stop stop-color="#E6AAFF" offset="0%"></stop>
            <stop stop-color="#ED3434" offset="100%"></stop>
        </linearGradient>
        <linearGradient x1="21.5188281%" y1="92.5918865%" x2="70.4057443%" y2="-8.05897386%" id="linearGradient-53">
            <stop stop-color="#39ABC5" offset="0%"></stop>
            <stop stop-color="#A8EB9D" offset="100%"></stop>
        </linearGradient>
        <path d="M85.029444,2.69355211 C75.5335134,-0.347409147 55.8772682,-1.33620832 34.0796648,2.69355211 C23.7040913,4.61170222 15.5249824,8.51062815 11.4901684,18.1629135 C7.47811178,27.7607573 2.27674886,38.4456303 0.211294484,47.5789449 C9.77786431,52.049911 18.6783254,54.7624977 26.9126779,55.716705 L26.9126779,86.496337 C27.5963781,101.711152 27.1004409,113.925796 25.4248661,123.140269 C22.7018349,138.115009 21.5178053,148.754378 21.5338268,149.291074 C21.6516006,153.236316 23.5475526,151.909022 34.2307429,153.603542 C44.9139333,155.298063 76.190774,150.275584 86.6559547,149.291074 C93.6327418,148.634734 101.735369,148.634734 110.963835,149.291074 L97.3862747,50.3473054 L113.674042,36.0505092 L97.4185507,11.2573044 C95.4897667,7.57544371 91.3600645,4.72085962 85.029444,2.69355211 Z" id="path-54"></path>
        <linearGradient x1="24.2424206%" y1="93.5834549%" x2="117.882934%" y2="-13.5297543%" id="linearGradient-56">
            <stop stop-color="#FFA77B" offset="0%"></stop>
            <stop stop-color="#FFE6CA" offset="100%"></stop>
        </linearGradient>
        <path d="M0.605964617,17.9455075 C9.07770186,25.311848 14.8668204,28.9950182 17.9733202,28.9950182 C21.0798199,28.9950182 22.26297,25.311848 21.5227703,17.9455075 L20.0319222,9.03415936 L4.15647652,0.804801977 L0.605964617,17.9455075 Z" id="path-57"></path>
        <path d="M32.1271428,0.0858314448 C34.4929116,6.24917815 35.527148,10.6048906 35.229852,13.1529688 C33.6327139,26.8417929 30.4308787,33.686205 25.9279412,33.686205 C17.2876073,33.686205 7.84815851,29.2815947 5.67184543,20.027293 C5.64813103,19.9264526 5.62498507,19.8264854 5.60240753,19.7273911 C5.38266575,19.7582376 5.158123,19.7741897 4.92984089,19.7741897 C2.29115759,19.7741897 0.152082129,17.6428689 0.152082129,15.0137513 C0.152082129,12.3846338 2.29115759,10.2533129 4.92984089,10.2533129 C6.58828786,10.2533129 8.0493754,11.0952458 8.90605533,12.373539 C9.38875931,12.5930387 26.0070553,13.2495076 32.1271428,0.0858314448 Z" id="path-59"></path>
        <path d="M29.5563492,76.3833152 C24.2604113,77.1455254 14.4178998,74.0656782 0.0288149212,67.1437737 L0.0288149212,46.6235537 L15.7182301,36.4729377 L24.6539449,47.9575934 L48.1297553,20.2811072 C49.9715756,16.1043039 51.1719195,12.2959854 53.0185693,10.1130072 C55.9729058,6.62060047 53.025863,0.889649998 56.2740565,0.889649998 C56.8961697,0.889649998 58.9425214,2.27743091 59.2633029,3.96 C59.5169339,5.29034958 59.5169339,6.84891149 59.2633029,8.63568571 C63.6054829,9.05478371 66.2900226,9.87823324 67.3169221,11.1060343 C68.9285221,13.0329261 68.2525871,20.8131427 67.3169221,23.3730993 C66.0115601,26.9445382 64.3015876,26.9445382 60.6300601,28.0628269 C59.728636,28.3373863 58.4634372,28.9570368 56.8344638,29.9217784 C43.9078808,60.1392778 34.8151808,75.6264456 29.5563492,76.3833152 Z" id="path-61"></path>
        <path d="M5.54902455,43.4089554 C0.49021711,39.0799054 -1.96855489,27.3587294 2.26981971,8.74722394 C11.10008,12.5920775 19.1431189,14.8609576 26.3989365,15.5538644 L22.1732294,24.3508219 L68.052716,32.4702675 C68.0469034,32.4286894 68.0409463,32.387326 68.0348363,32.3461746 C72.2999375,28.6937766 75.6355481,26.8675776 78.0416683,26.8675776 L77.0927595,31.3258943 C83.0180065,31.0904642 87.356127,29.6043586 90.1071211,26.8675776 C94.2336123,22.762406 92.1919041,31.9441444 89.5179344,33.3648337 C86.8439647,34.785523 88.0108177,42.9620335 81.5960059,44.2466544 C77.3194648,45.1030684 66.8785991,44.9628985 66.9412355,44.6835024 C29.6986964,47.2905083 10.4991052,47.6449629 5.54902455,43.4089554 Z" id="path-63"></path>
    </defs>
    <g id="Adwords-Page" stroke="none" stroke-width="1" fill="none" fill-rule="evenodd">
        <g id="Home" transform="translate(-878.000000, -3089.000000)">
            <g id="Free-Session" transform="translate(0.000000, 3042.000000)">
                <g transform="translate(-24.000000, -156.000000)" id="free_session">
                    <g transform="translate(886.000000, 187.000000)">
                        <g id="Desktop-browser" transform="translate(61.000000, 39.000000)">
                            <mask id="mask-3" fill="white">
                                <use xlink:href="#path-2"></use>
                            </mask>
                            <use id="Path" fill="url(#linearGradient-1)" fill-rule="nonzero" xlink:href="#path-2"></use>
                            <g id="Group-7" mask="url(#mask-3)">
                                <g transform="translate(-3.000000, 17.000000)">
                                    <g id="Group-6" stroke-width="1" fill="none" fill-rule="evenodd">
                                        <g id="Left-Bar" transform="translate(0.410980, 0.510152)">
                                            <rect id="Sidebar-bg" fill="#2F3545" x="0" y="9.1138483" width="51.7736585" height="217.903828"></rect>
                                            <g id="File-Top">
                                                <rect id="Rectangle-29" fill="#272C39" x="0" y="-6.21724894e-15" width="52.2795593" height="9.94237996"></rect>
                                                <g id="Group-3" transform="translate(30.603053, 3.521260)">
                                                    <g id="Plus">
                                                        <g id="plus_x5F_alt"></g>
                                                    </g>
                                                </g>
                                                <g id="Group-3" transform="translate(38.358621, 6.628253)">
                                                    <g id="Group-5"></g>
                                                </g>
                                            </g>
                                        </g>
                                        <g id="Preview-Window" transform="translate(52.184638, 147.231199)">
                                            <g id="Console">
                                                <use fill="black" fill-opacity="1" filter="url(#filter-5)" xlink:href="#path-4"></use>
                                                <use fill="#282D3A" fill-rule="evenodd" xlink:href="#path-4"></use>
                                            </g>
                                            <rect id="Shadow" fill="url(#linearGradient-6)" x="5.68434189e-14" y="7.10542736e-15" width="271.719867" height="9.62337449"></rect>
                                        </g>
                                        <g id="Library" transform="translate(0.410980, 216.814634)">
                                            <g id="File-Top">
                                                <rect id="Rectangle-29" fill="#272C39" x="0" y="0" width="51.9866826" height="9.94657171"></rect>
                                                <g id="Group-2" transform="translate(11.996927, 2.901083)">
                                                    <g id="Group-3" transform="translate(22.731019, 0.621661)">
                                                        <g id="Plus">
                                                            <g id="plus_x5F_alt"></g>
                                                        </g>
                                                    </g>
                                                    <g id="Library,-Books,-Read,-Study,-Peace">
                                                        <g id="Group">
                                                            <polygon id="Shape" points="0 0 3.78850319 0 3.78850319 3.72996439 0 3.72996439"></polygon>
                                                        </g>
                                                    </g>
                                                </g>
                                                <g id="Group-3" transform="translate(38.516449, 6.631048)">
                                                    <g id="Group-5"></g>
                                                </g>
                                            </g>
                                        </g>
                                        <g id="Code-Window" transform="translate(52.184638, 0.000000)">
                                            <mask id="mask-8" fill="white">
                                                <use xlink:href="#path-7"></use>
                                            </mask>
                                            <use id="Content" fill="#485061" xlink:href="#path-7"></use>
                                            <g id="Tabs-bg" mask="url(#mask-8)">
                                                <use fill="black" fill-opacity="1" filter="url(#filter-10)" xlink:href="#path-9"></use>
                                                <use fill="#272C39" fill-rule="evenodd" xlink:href="#path-9"></use>
                                                <use fill="black" fill-opacity="1" filter="url(#filter-11)" xlink:href="#path-9"></use>
                                            </g>
                                            <g id="Group-3" mask="url(#mask-8)">
                                                <g transform="translate(71.801164, 3.520193)" id="Plus">
                                                    <g>
                                                        <g id="plus_x5F_alt"></g>
                                                    </g>
                                                </g>
                                            </g>
                                            <rect id="Separator" fill="#2F3545" mask="url(#mask-8)" x="69.0638765" y="0.207070156" width="1" height="9.9393675"></rect>
                                            <rect id="Separator-Copy" fill="#2F3545" mask="url(#mask-8)" x="78.3285428" y="0.207070156" width="1" height="9.9393675"></rect>
                                        </g>
                                    </g>
                                    <g id="Rendi-pose-2" stroke-width="1" fill="none" fill-rule="evenodd" transform="translate(228.000000, 16.000000)">
                                        <mask id="mask-13" fill="white">
                                            <use xlink:href="#path-12"></use>
                                        </mask>
                                        <use id="Mask" fill="#FFFFFF" xlink:href="#path-12"></use>
                                        <g mask="url(#mask-13)">
                                            <g transform="translate(13.571429, 7.875000)">
                                                <g id="Shoes" transform="translate(10.714286, 180.409091)">
                                                    <g id="Path-24" transform="translate(31.418887, 0.000000)">
                                                        <mask id="mask-16" fill="white">
                                                            <use xlink:href="#path-15"></use>
                                                        </mask>
                                                        <use id="Path-23" fill="url(#linearGradient-14)" fill-rule="nonzero" transform="translate(13.719395, 6.304404) scale(-1, 1) translate(-13.719395, -6.304404) " xlink:href="#path-15"></use>
                                                        <rect id="Rectangle" fill="#373A5B" fill-rule="nonzero" opacity="0.200000003" mask="url(#mask-16)" x="0.579999789" y="7.97924866" width="26.2787911" height="4.09583157"></rect>
                                                    </g>
                                                    <g id="Path-23-Copy-2">
                                                        <mask id="mask-18" fill="white">
                                                            <use xlink:href="#path-17"></use>
                                                        </mask>
                                                        <use id="Path-23-Copy" fill="url(#linearGradient-14)" fill-rule="nonzero" transform="translate(10.895115, 6.304404) scale(-1, 1) translate(-10.895115, -6.304404) " xlink:href="#path-17"></use>
                                                        <rect id="Rectangle" fill="#373A5B" fill-rule="nonzero" opacity="0.200000003" mask="url(#mask-18)" x="0.324979628" y="7.97924866" width="21.1402707" height="4.09583157"></rect>
                                                    </g>
                                                </g>
                                                <g id="Pants" transform="translate(14.285714, 79.465909)">
                                                    <mask id="mask-21" fill="white">
                                                        <use xlink:href="#path-20"></use>
                                                    </mask>
                                                    <use id="Path-14" fill="url(#linearGradient-19)" fill-rule="nonzero" xlink:href="#path-20"></use>
                                                    <path d="M35.6103329,0.239587715 C35.3045573,6.00609619 30.9158128,8.88935042 22.4440994,8.88935042 C9.73652917,8.88935042 20.6017787,23.624432 7.6206289,27.0327437 C-5.36052091,30.4410555 2.17915182,47.0248202 -5.71277935,47.0248202 C-10.9740668,47.0248202 -8.70742308,31.7475129 1.08715179,1.19289825 L35.6103329,0.239587715 Z" id="Path-16" fill="#151731" fill-rule="nonzero" opacity="0.300000012" mask="url(#mask-21)"></path>
                                                    <path d="M22.9853626,30.3864825 L29.1774553,15.2688713 C30.412377,19.2112419 30.3896228,23.5824906 29.1091926,28.3826175 C27.1885474,35.5828079 32.8234538,41.979158 29.0121307,47.0289199 C25.2008076,52.0786818 32.7024018,65.234117 24.8732262,72.9131358 C19.6537759,78.0324817 18.5070475,77.6197646 21.4330411,71.6749844 L22.9853626,30.3864825 Z" id="Path-17" fill="#151731" fill-rule="nonzero" opacity="0.300000012" mask="url(#mask-21)" transform="translate(25.112440, 45.867536) rotate(-8.000000) translate(-25.112440, -45.867536) "></path>
                                                </g>
                                                <g id="Shirt" transform="translate(0.000000, 22.909091)">
                                                    <mask id="mask-24" fill="white">
                                                        <use xlink:href="#path-23"></use>
                                                    </mask>
                                                    <use id="Path" fill="url(#linearGradient-22)" fill-rule="nonzero" xlink:href="#path-23"></use>
                                                    <path d="M14.1565463,24.6302071 L14.3102266,24.0068815 C33.2134153,24.5550713 43.699465,23.791754 48.0440388,21.7229267 C48.2005474,21.6483995 48.388797,21.7128779 48.4645061,21.8669434 C48.5402152,22.0210088 48.4747143,22.2063199 48.3182057,22.2808471 C43.8281836,24.4189349 33.3049387,25.1933911 14.1565463,24.6302071 Z" id="Path-12" fill="#FFFFFF" fill-rule="nonzero" opacity="0.5" mask="url(#mask-24)"></path>
                                                    <ellipse id="Oval" fill="#FFFFFF" fill-rule="nonzero" opacity="0.200000003" mask="url(#mask-24)" cx="46.1002286" cy="25.9643499" rx="1" ry="1"></ellipse>
                                                    <ellipse id="Oval-Copy" fill="#FFFFFF" fill-rule="nonzero" opacity="0.200000003" mask="url(#mask-24)" cx="39.0172561" cy="27.2038888" rx="1" ry="1"></ellipse>
                                                    <ellipse id="Oval-Copy-4" fill="#FFFFFF" fill-rule="nonzero" opacity="0.200000003" mask="url(#mask-24)" cx="31.9342837" cy="27.5272835" rx="1" ry="1"></ellipse>
                                                    <ellipse id="Oval-Copy-2" fill="#FFFFFF" fill-rule="nonzero" opacity="0.200000003" mask="url(#mask-24)" cx="24.8354483" cy="27.4965055" rx="1" ry="1"></ellipse>
                                                    <ellipse id="Oval-Copy-3" fill="#FFFFFF" fill-rule="nonzero" opacity="0.200000003" mask="url(#mask-24)" cx="17.8166172" cy="27.3071746" rx="1" ry="1"></ellipse>
                                                    <path d="M12.747279,30.4207663 C31.781008,30.9805779 43.6836894,29.9969608 48.0440388,27.9206214 C48.2005474,27.8460941 48.388797,27.9105726 48.4645061,28.064638 C48.5402152,28.2187035 48.4747143,28.4040145 48.3182057,28.4785418 C44.0217592,30.5244515 33.624217,31.4060324 15.9089728,30.9775401 C13.6853229,30.6029501 12.631425,30.4173588 12.747279,30.4207663 Z" id="Path-12-Copy" fill="#FFFFFF" fill-rule="nonzero" opacity="0.5" mask="url(#mask-24)"></path>
                                                    <path d="M47.0485898,30.9306358 C47.0627028,24.0741398 46.4595192,18.5530504 45.239039,14.3673678 C47.4379526,15.6447299 48.7057981,18.4052746 49.0425756,22.6490018 C49.5477419,29.0145927 52.8018842,22.9004967 54.8859871,30.0414114 C56.97009,37.182326 62.231707,32.5032642 63.4641735,34.4138835 C64.2858178,35.6876297 62.1211233,37.5862594 56.97009,40.1097728 L47.0485898,30.9306358 Z" id="Path-6" fill="#373A5B" fill-rule="nonzero" opacity="0.300000012" mask="url(#mask-24)"></path>
                                                    <path d="M13.9451662,0.366410261 C13.9469815,3.78199236 17.0938278,5.48978342 23.3857051,5.48978342 C29.6775823,5.48978342 32.8708326,2.1896056 32.9654558,-4.41075002 L13.9451662,0.366410261 Z" id="Path-7" fill="#373A5B" fill-rule="nonzero" opacity="0.300000012" mask="url(#mask-24)"></path>
                                                    <path d="M5.96913199,55.3289871 C7.05424386,52.7613064 9.18354331,50.8655471 12.3570303,49.641709 L11.9644168,54.0643767 L7.28393298,56.017339 L5.96913199,55.3289871 Z" id="Path-13" fill="#373A5B" fill-rule="nonzero" opacity="0.300000012" mask="url(#mask-24)"></path>
                                                    <path d="M12.747279,41.2530458 C21.4229175,41.0736246 27.9524439,40.8528771 32.3358582,40.5908035 C36.7192726,40.3287299 39.4375959,39.9965711 40.4908282,39.5943269 C34.5502594,41.65852 30.5421488,42.6906165 28.4664965,42.6906165 C25.353018,42.6906165 25.4469558,40.4653266 22.0359143,45.0827709 C18.6248728,49.7002152 15.9169344,43.8135481 12.747279,52.5437663 C10.6341754,58.3639118 10.6341754,54.6003383 12.747279,41.2530458 Z" id="Path-47" fill="#373A5B" fill-rule="nonzero" opacity="0.300000012" mask="url(#mask-24)"></path>
                                                    <path d="M32.7390727,33.6388487 L12.747279,30.4607274 L16.3366495,15.4976972 C18.2404873,17.6164447 18.4327478,20.63997 16.913431,24.5682729 C14.6344558,30.4607274 20.6358173,24.984059 22.7431758,28.83279 C24.1480815,31.3986107 27.4800471,33.0006303 32.7390727,33.6388487 Z" id="Path-48" fill="#373A5B" fill-rule="nonzero" opacity="0.300000012" mask="url(#mask-24)"></path>
                                                </g>
                                                <g id="Head" transform="translate(19.285714, 0.000000)">
                                                    <path d="M3.42476803,4.83012192 C3.4257502,1.71580795 5.07863686,0.308836013 8.38342799,0.609206117 C10.4578141,0.797745587 16.9887488,-0.692409749 19.0766954,1.39113568 C21.1646419,3.47468111 19.5776805,10.4071367 16.6338978,12.4422384 C13.6901151,14.4773401 13.2625821,11.9779347 10.1038575,11.0762014 C7.99804101,10.4750459 6.22712295,13.1202696 4.79110327,19.0118726 C3.64243187,18.8607393 2.92669485,18.4603925 2.64389222,17.8108321 C-0.23151069,11.206411 -0.0663928672,5.61769976 1.67135825,4.83012192 C1.96816787,4.69560284 2.5526378,4.69560284 3.42476803,4.83012192 Z" id="Path-2" fill="url(#linearGradient-25)" fill-rule="nonzero"></path>
                                                    <g id="Path-8" transform="translate(2.373786, 15.390121)">
                                                        <mask id="mask-28" fill="white">
                                                            <use xlink:href="#path-27"></use>
                                                        </mask>
                                                        <use id="Path-3" fill="url(#linearGradient-26)" fill-rule="nonzero" xlink:href="#path-27"></use>
                                                        <path d="M1.69235398,0.533295538 C2.55020139,6.06221877 4.80642648,9.04695427 8.46102925,9.48750203 C12.115632,9.9280498 13.8019641,8.72563615 13.5200255,5.88026108 L1.69235398,0.533295538 Z" id="Path-9" fill="#DA433D" fill-rule="nonzero" opacity="0.200000003" mask="url(#mask-28)"></path>
                                                    </g>
                                                    <g id="Group" transform="translate(1.186893, 6.156048)">
                                                        <mask id="mask-31" fill="white">
                                                            <use xlink:href="#path-30"></use>
                                                        </mask>
                                                        <use id="Path" fill="url(#linearGradient-29)" fill-rule="nonzero" xlink:href="#path-30"></use>
                                                        <path d="M16.5463208,0.470755304 C14.2045249,2.57798895 11.9410486,3.39887077 9.75589197,2.93340075 C6.478157,2.23519571 7.18706856,7.37540125 4.46155214,6.02959952 L5.5678204,-0.704972007 L16.5463208,0.470755304 Z" id="Path-11" fill="#DA433D" fill-rule="nonzero" opacity="0.200000003" mask="url(#mask-31)"></path>
                                                    </g>
                                                </g>
                                                <g id="Hands" transform="translate(32.142857, 55.840909)">
                                                    <g id="Group-2" transform="translate(0.000000, 0.120250)" fill="url(#linearGradient-29)" fill-rule="nonzero">
                                                        <path d="M0.220888547,9.36938677 C0.83587218,6.70177681 1.03493221,4.62258344 0.818068636,3.13180665 C2.79492719,1.40393777 4.34097035,0.540003327 5.4561981,0.540003327 L5.01638242,2.64913456 C7.76271237,2.53775778 9.77341513,1.83471404 11.0484907,0.540003327 C12.961104,-1.40206274 12.0147799,2.94161505 10.7754048,3.6137118 C9.53602979,4.28580854 10.0768619,8.15393518 7.10362042,8.76166097 C5.12145946,9.1668115 2.8272155,9.36938677 0.220888547,9.36938677 Z" id="Path-46"></path>
                                                    </g>
                                                </g>
                                            </g>
                                        </g>
                                    </g>
                                    <g id="Dini-pose-2" stroke-width="1" fill="none" fill-rule="evenodd" transform="translate(228.000000, 79.000000)">
                                        <mask id="mask-33" fill="white">
                                            <use xlink:href="#path-32"></use>
                                        </mask>
                                        <use id="Mask" fill="#FFFFFF" xlink:href="#path-32"></use>
                                        <g id="Linda-pose-2" mask="url(#mask-33)">
                                            <g transform="translate(51.500000, 99.000000) scale(-1, 1) translate(-51.500000, -99.000000) translate(18.000000, 8.000000)">
                                                <g id="Shoes" transform="translate(6.000000, 172.000000)">
                                                    <g id="Path-24" transform="translate(29.191489, 0.000000)">
                                                        <mask id="mask-35" fill="white">
                                                            <use xlink:href="#path-34"></use>
                                                        </mask>
                                                        <use id="Path-23" fill="url(#linearGradient-19)" fill-rule="nonzero" transform="translate(13.381645, 5.112411) scale(-1, 1) translate(-13.381645, -5.112411) " xlink:href="#path-34"></use>
                                                        <path d="M-0.92087262,5.69031432 C11.9651746,7.15837213 18.7795088,5.84983599 19.5221302,1.76470588 C20.2647516,-2.32042422 13.7573748,-3.30015125 3.99680289e-15,-1.17447519 L-0.92087262,5.69031432 Z" id="Path-58" fill="url(#linearGradient-29)" fill-rule="nonzero" mask="url(#mask-35)"></path>
                                                    </g>
                                                    <g id="Path-23-Copy-2">
                                                        <mask id="mask-37" fill="white">
                                                            <use xlink:href="#path-36"></use>
                                                        </mask>
                                                        <use id="Path-23-Copy" fill="url(#linearGradient-19)" fill-rule="nonzero" transform="translate(11.296185, 5.112411) scale(-1, 1) translate(-11.296185, -5.112411) " xlink:href="#path-36"></use>
                                                        <path d="M1.89678678,3.80369438 C9.25023334,5.78475617 14.9127722,5.56347439 18.8844034,3.13984904 C22.8560346,0.716223691 17.5541413,-0.886222438 2.9787234,-1.66748935 L1.89678678,3.80369438 Z" id="Path-59" fill="url(#linearGradient-29)" fill-rule="nonzero" mask="url(#mask-37)"></path>
                                                    </g>
                                                </g>
                                                <g id="Pants" transform="translate(10.000000, 73.000000)">
                                                    <mask id="mask-39" fill="white">
                                                        <use xlink:href="#path-38"></use>
                                                    </mask>
                                                    <use id="Path-14" fill="url(#linearGradient-19)" fill-rule="nonzero" xlink:href="#path-38"></use>
                                                    <path d="M44.4352454,5.61994754 C41.9782608,15.6808621 36.6157071,20.7113194 28.3475842,20.7113194 C15.9453999,20.7113194 26.1406179,27.2693124 13.4714286,30.4971059 C0.802239235,33.7248993 8.56964001,56.8269764 0.867366202,56.8269764 C-4.26748301,56.8269764 -2.80192115,37.313116 5.26405177,-1.71460491 L44.4352454,5.61994754 Z" id="Path-16" fill="#151731" fill-rule="nonzero" opacity="0.300000012" mask="url(#mask-39)"></path>
                                                    <path d="M23.2259264,29.0153909 L27.8604727,14.1754386 C29.9698999,18.2807334 30.4124249,22.6047762 29.1880477,27.1475671 C27.351482,33.9617534 32.8794229,40.0527753 29.1880477,44.8192026 C25.4966726,49.5856299 32.8794229,62.0921669 25.2829658,69.3299177 C22.0986357,72.3638831 24.6862492,66.4315274 24.9642155,55.0241765 C25.0736199,50.5343719 24.4941902,41.8647767 23.2259264,29.0153909 Z" id="Path-17" fill="#151731" fill-rule="nonzero" opacity="0.300000012" mask="url(#mask-39)"></path>
                                                </g>
                                                <g id="Hair" transform="translate(1.000000, 0.000000)">
                                                    <path d="M35.3511754,0.595959596 C46.4330324,3.2510621 43.9606894,14.2974646 41.048844,26.2222222 C38.1369987,38.1469798 31.0539785,60.6305422 16.1567261,58.8235525 C1.25947364,57.0165628 -2.8941648,47.6750674 2.50031128,37.0586176 C7.89478735,26.4421677 18.6394299,26.2222222 19.9036054,17.3211837 C21.1677808,8.42014519 24.2693184,-2.05914291 35.3511754,0.595959596 Z" id="Path-54" fill="url(#linearGradient-40)" fill-rule="nonzero"></path>
                                                </g>
                                                <g id="Shirt" transform="translate(0.000000, 24.000000)">
                                                    <mask id="mask-43" fill="white">
                                                        <use xlink:href="#path-42"></use>
                                                    </mask>
                                                    <use id="Path" fill="url(#linearGradient-41)" fill-rule="nonzero" xlink:href="#path-42"></use>
                                                    <path d="M17.3940687,36.7601917 C25.5142239,36.5875094 31.6256781,36.3750531 35.7284315,36.1228229 C39.8311848,35.8705926 42.3754595,35.5509095 43.3612555,35.1637734 C37.801049,37.1504364 34.0495696,38.1437679 32.106817,38.1437679 C29.1926882,38.1437679 29.2806113,36.0020587 26.0879718,40.4460741 C22.8953323,44.8900895 20.3607775,39.2245227 17.3940687,47.6268383 C15.4162628,53.228382 15.4162628,49.6061664 17.3940687,36.7601917 Z" id="Path-47" fill="#373A5B" fill-rule="nonzero" opacity="0.300000012" mask="url(#mask-43)"></path>
                                                    <path d="M32.4107143,31.173639 C34.0626306,31.98436 33.2865892,32.3897205 30.0825901,32.3897205 C26.8785911,32.3897205 21.8209357,31.98436 14.9096239,31.173639 L15.5899709,22.9739774 L20.950116,13.6900892 C21.6833615,16.0985902 21.3389653,19.1932195 19.9169272,22.9739774 C17.7838702,28.6451142 23.8977927,23.7344219 25.8702214,27.4385965 C27.1851739,29.9080462 29.3653381,31.1530604 32.4107143,31.173639 Z" id="Path-48" fill="#373A5B" fill-rule="nonzero" opacity="0.300000012" mask="url(#mask-43)"></path>
                                                    <ellipse id="Oval" fill="#FFFFFF" fill-rule="nonzero" opacity="0.300000012" mask="url(#mask-43)" cx="13.5535714" cy="11.3333333" rx="1.76785714" ry="1.78947368"></ellipse>
                                                    <ellipse id="Oval-Copy-5" fill="#FFFFFF" fill-rule="nonzero" opacity="0.300000012" mask="url(#mask-43)" cx="25.3392857" cy="11.3333333" rx="1.76785714" ry="1.78947368"></ellipse>
                                                    <ellipse id="Oval-Copy-6" fill="#FFFFFF" fill-rule="nonzero" opacity="0.300000012" mask="url(#mask-43)" cx="37.125" cy="11.3333333" rx="1.76785714" ry="1.78947368"></ellipse>
                                                    <ellipse id="Oval-Copy-7" fill="#FFFFFF" fill-rule="nonzero" opacity="0.300000012" mask="url(#mask-43)" cx="48.9107143" cy="11.3333333" rx="1.76785714" ry="1.78947368"></ellipse>
                                                    <ellipse id="Oval-Copy-52" fill="#FFFFFF" fill-rule="nonzero" opacity="0.300000012" mask="url(#mask-43)" cx="19.4464286" cy="5.36842105" rx="1.76785714" ry="1.78947368"></ellipse>
                                                    <ellipse id="Oval-Copy-51" fill="#FFFFFF" fill-rule="nonzero" opacity="0.300000012" mask="url(#mask-43)" cx="31.2321429" cy="5.36842105" rx="1.76785714" ry="1.78947368"></ellipse>
                                                    <ellipse id="Oval-Copy-50" fill="#FFFFFF" fill-rule="nonzero" opacity="0.300000012" mask="url(#mask-43)" cx="43.0178571" cy="5.36842105" rx="1.76785714" ry="1.78947368"></ellipse>
                                                    <ellipse id="Oval-Copy-49" fill="#FFFFFF" fill-rule="nonzero" opacity="0.300000012" mask="url(#mask-43)" cx="54.8035714" cy="5.36842105" rx="1.76785714" ry="1.78947368"></ellipse>
                                                    <ellipse id="Oval-Copy-8" fill="#FFFFFF" fill-rule="nonzero" opacity="0.300000012" mask="url(#mask-43)" cx="60.6964286" cy="11.3333333" rx="1.76785714" ry="1.78947368"></ellipse>
                                                    <ellipse id="Oval-Copy-13" fill="#FFFFFF" fill-rule="nonzero" opacity="0.300000012" mask="url(#mask-43)" cx="7.66071429" cy="17.2982456" rx="1.76785714" ry="1.78947368"></ellipse>
                                                    <ellipse id="Oval-Copy-12" fill="#FFFFFF" fill-rule="nonzero" opacity="0.300000012" mask="url(#mask-43)" cx="19.4464286" cy="17.2982456" rx="1.76785714" ry="1.78947368"></ellipse>
                                                    <ellipse id="Oval-Copy-11" fill="#FFFFFF" fill-rule="nonzero" opacity="0.300000012" mask="url(#mask-43)" cx="31.2321429" cy="17.2982456" rx="1.76785714" ry="1.78947368"></ellipse>
                                                    <ellipse id="Oval-Copy-10" fill="#FFFFFF" fill-rule="nonzero" opacity="0.300000012" mask="url(#mask-43)" cx="43.0178571" cy="17.2982456" rx="1.76785714" ry="1.78947368"></ellipse>
                                                    <ellipse id="Oval-Copy-9" fill="#FFFFFF" fill-rule="nonzero" opacity="0.300000012" mask="url(#mask-43)" cx="54.8035714" cy="17.2982456" rx="1.76785714" ry="1.78947368"></ellipse>
                                                    <ellipse id="Oval-Copy-18" fill="#FFFFFF" fill-rule="nonzero" opacity="0.300000012" mask="url(#mask-43)" cx="1.76785714" cy="23.2631579" rx="1.76785714" ry="1.78947368"></ellipse>
                                                    <ellipse id="Oval-Copy-17" fill="#FFFFFF" fill-rule="nonzero" opacity="0.300000012" mask="url(#mask-43)" cx="13.5535714" cy="23.2631579" rx="1.76785714" ry="1.78947368"></ellipse>
                                                    <ellipse id="Oval-Copy-16" fill="#FFFFFF" fill-rule="nonzero" opacity="0.300000012" mask="url(#mask-43)" cx="25.3392857" cy="23.2631579" rx="1.76785714" ry="1.78947368"></ellipse>
                                                    <ellipse id="Oval-Copy-15" fill="#FFFFFF" fill-rule="nonzero" opacity="0.300000012" mask="url(#mask-43)" cx="37.125" cy="23.2631579" rx="1.76785714" ry="1.78947368"></ellipse>
                                                    <ellipse id="Oval-Copy-14" fill="#FFFFFF" fill-rule="nonzero" opacity="0.300000012" mask="url(#mask-43)" cx="48.9107143" cy="23.2631579" rx="1.76785714" ry="1.78947368"></ellipse>
                                                    <ellipse id="Oval-Copy-23" fill="#FFFFFF" fill-rule="nonzero" opacity="0.300000012" mask="url(#mask-43)" cx="7.66071429" cy="29.2280702" rx="1.76785714" ry="1.78947368"></ellipse>
                                                    <ellipse id="Oval-Copy-22" fill="#FFFFFF" fill-rule="nonzero" opacity="0.300000012" mask="url(#mask-43)" cx="19.4464286" cy="29.2280702" rx="1.76785714" ry="1.78947368"></ellipse>
                                                    <ellipse id="Oval-Copy-21" fill="#FFFFFF" fill-rule="nonzero" opacity="0.300000012" mask="url(#mask-43)" cx="31.2321429" cy="29.2280702" rx="1.76785714" ry="1.78947368"></ellipse>
                                                    <ellipse id="Oval-Copy-20" fill="#FFFFFF" fill-rule="nonzero" opacity="0.300000012" mask="url(#mask-43)" cx="43.0178571" cy="29.2280702" rx="1.76785714" ry="1.78947368"></ellipse>
                                                    <ellipse id="Oval-Copy-19" fill="#FFFFFF" fill-rule="nonzero" opacity="0.300000012" mask="url(#mask-43)" cx="54.8035714" cy="29.2280702" rx="1.76785714" ry="1.78947368"></ellipse>
                                                    <ellipse id="Oval-Copy-28" fill="#FFFFFF" fill-rule="nonzero" opacity="0.300000012" mask="url(#mask-43)" cx="1.76785714" cy="35.1929825" rx="1.76785714" ry="1.78947368"></ellipse>
                                                    <ellipse id="Oval-Copy-27" fill="#FFFFFF" fill-rule="nonzero" opacity="0.300000012" mask="url(#mask-43)" cx="13.5535714" cy="35.1929825" rx="1.76785714" ry="1.78947368"></ellipse>
                                                    <ellipse id="Oval-Copy-26" fill="#FFFFFF" fill-rule="nonzero" opacity="0.300000012" mask="url(#mask-43)" cx="25.3392857" cy="35.1929825" rx="1.76785714" ry="1.78947368"></ellipse>
                                                    <ellipse id="Oval-Copy-25" fill="#FFFFFF" fill-rule="nonzero" opacity="0.300000012" mask="url(#mask-43)" cx="37.125" cy="35.1929825" rx="1.76785714" ry="1.78947368"></ellipse>
                                                    <ellipse id="Oval-Copy-24" fill="#FFFFFF" fill-rule="nonzero" opacity="0.300000012" mask="url(#mask-43)" cx="48.9107143" cy="35.1929825" rx="1.76785714" ry="1.78947368"></ellipse>
                                                    <ellipse id="Oval-Copy-33" fill="#FFFFFF" fill-rule="nonzero" opacity="0.300000012" mask="url(#mask-43)" cx="7.66071429" cy="41.1578947" rx="1.76785714" ry="1.78947368"></ellipse>
                                                    <ellipse id="Oval-Copy-32" fill="#FFFFFF" fill-rule="nonzero" opacity="0.300000012" mask="url(#mask-43)" cx="19.4464286" cy="41.1578947" rx="1.76785714" ry="1.78947368"></ellipse>
                                                    <ellipse id="Oval-Copy-31" fill="#FFFFFF" fill-rule="nonzero" opacity="0.300000012" mask="url(#mask-43)" cx="31.2321429" cy="41.1578947" rx="1.76785714" ry="1.78947368"></ellipse>
                                                    <ellipse id="Oval-Copy-30" fill="#FFFFFF" fill-rule="nonzero" opacity="0.300000012" mask="url(#mask-43)" cx="43.0178571" cy="41.1578947" rx="1.76785714" ry="1.78947368"></ellipse>
                                                    <ellipse id="Oval-Copy-29" fill="#FFFFFF" fill-rule="nonzero" opacity="0.300000012" mask="url(#mask-43)" cx="54.8035714" cy="41.1578947" rx="1.76785714" ry="1.78947368"></ellipse>
                                                    <ellipse id="Oval-Copy-38" fill="#FFFFFF" fill-rule="nonzero" opacity="0.300000012" mask="url(#mask-43)" cx="1.76785714" cy="47.122807" rx="1.76785714" ry="1.78947368"></ellipse>
                                                    <ellipse id="Oval-Copy-37" fill="#FFFFFF" fill-rule="nonzero" opacity="0.300000012" mask="url(#mask-43)" cx="13.5535714" cy="47.122807" rx="1.76785714" ry="1.78947368"></ellipse>
                                                    <ellipse id="Oval-Copy-36" fill="#FFFFFF" fill-rule="nonzero" opacity="0.300000012" mask="url(#mask-43)" cx="25.3392857" cy="47.122807" rx="1.76785714" ry="1.78947368"></ellipse>
                                                    <ellipse id="Oval-Copy-35" fill="#FFFFFF" fill-rule="nonzero" opacity="0.300000012" mask="url(#mask-43)" cx="37.125" cy="47.122807" rx="1.76785714" ry="1.78947368"></ellipse>
                                                    <ellipse id="Oval-Copy-34" fill="#FFFFFF" fill-rule="nonzero" opacity="0.300000012" mask="url(#mask-43)" cx="48.9107143" cy="47.122807" rx="1.76785714" ry="1.78947368"></ellipse>
                                                    <ellipse id="Oval-Copy-43" fill="#FFFFFF" fill-rule="nonzero" opacity="0.300000012" mask="url(#mask-43)" cx="7.66071429" cy="53.0877193" rx="1.76785714" ry="1.78947368"></ellipse>
                                                    <ellipse id="Oval-Copy-42" fill="#FFFFFF" fill-rule="nonzero" opacity="0.300000012" mask="url(#mask-43)" cx="19.4464286" cy="53.0877193" rx="1.76785714" ry="1.78947368"></ellipse>
                                                    <ellipse id="Oval-Copy-41" fill="#FFFFFF" fill-rule="nonzero" opacity="0.300000012" mask="url(#mask-43)" cx="31.2321429" cy="53.0877193" rx="1.76785714" ry="1.78947368"></ellipse>
                                                    <ellipse id="Oval-Copy-40" fill="#FFFFFF" fill-rule="nonzero" opacity="0.300000012" mask="url(#mask-43)" cx="43.0178571" cy="53.0877193" rx="1.76785714" ry="1.78947368"></ellipse>
                                                    <ellipse id="Oval-Copy-39" fill="#FFFFFF" fill-rule="nonzero" opacity="0.300000012" mask="url(#mask-43)" cx="54.8035714" cy="53.0877193" rx="1.76785714" ry="1.78947368"></ellipse>
                                                    <ellipse id="Oval-Copy-48" fill="#FFFFFF" fill-rule="nonzero" opacity="0.300000012" mask="url(#mask-43)" cx="1.76785714" cy="59.0526316" rx="1.76785714" ry="1.78947368"></ellipse>
                                                    <ellipse id="Oval-Copy-47" fill="#FFFFFF" fill-rule="nonzero" opacity="0.300000012" mask="url(#mask-43)" cx="13.5535714" cy="59.0526316" rx="1.76785714" ry="1.78947368"></ellipse>
                                                    <ellipse id="Oval-Copy-46" fill="#FFFFFF" fill-rule="nonzero" opacity="0.300000012" mask="url(#mask-43)" cx="25.3392857" cy="59.0526316" rx="1.76785714" ry="1.78947368"></ellipse>
                                                    <ellipse id="Oval-Copy-45" fill="#FFFFFF" fill-rule="nonzero" opacity="0.300000012" mask="url(#mask-43)" cx="37.125" cy="59.0526316" rx="1.76785714" ry="1.78947368"></ellipse>
                                                    <ellipse id="Oval-Copy-44" fill="#FFFFFF" fill-rule="nonzero" opacity="0.300000012" mask="url(#mask-43)" cx="48.9107143" cy="59.0526316" rx="1.76785714" ry="1.78947368"></ellipse>
                                                    <path d="M33.0065169,5.83871042 C36.9464465,13.2435431 38.6721277,20.0755369 38.1835604,26.3346918 C37.6949932,32.5938466 38.4879571,46.8799435 40.5624522,69.1929825 L45.8890107,69.1929825 C43.2032765,63.064565 41.723144,58.4838505 41.4486131,55.450839 C40.2958898,42.7155746 39.5772291,32.195244 39.9731665,26.3346918 C40.5105477,18.380529 38.7162842,11.3704137 34.5903761,5.30434586 L33.0065169,5.83871042 Z" id="Path-57" fill="#FFFFFF" fill-rule="nonzero" opacity="0.200000003" mask="url(#mask-43)"></path>
                                                    <path d="M47.8083768,25.1642834 C49.1905069,17.5290331 47.367991,16.7880533 42.7917366,7.09381954 C47.0575835,12.4148217 49.3481141,17.1174903 49.6633284,21.2018252 C50.1361499,27.3283276 53.1819362,21.4438741 55.1325983,28.3165795 C57.0832604,35.1892849 60.1321601,32.7576339 61.2857143,34.5964912 C62.0547504,35.8223961 60.6539325,36.9591585 57.0832604,38.0067782 C53.1078178,34.426906 50.0161899,30.1460744 47.8083768,25.1642834 Z" id="Path-6" fill="#373A5B" fill-rule="nonzero" opacity="0.300000012" mask="url(#mask-43)"></path>
                                                    <path d="M19.3031218,2.16287777 C19.3048209,5.45017229 22.2501811,7.09381954 28.1392024,7.09381954 C28.7706857,7.09381954 30.7373968,10.1938072 30.9849715,9.84732278 C31.3757242,9.30045879 32.3422696,7.63622578 33.4118047,7.5890444 C35.5447807,7.49495046 38.2382707,9.40398647 38.6474901,8.43515127 C38.8042777,8.06395364 37.3368055,6.44521901 34.2450735,3.57894737 C32.5693301,0.825599472 30.6393538,-0.654574753 28.4551446,-0.861575309 C26.2709353,-1.06857586 23.2202611,-0.0604248382 19.3031218,2.16287777 Z" id="Path-7" fill="#373A5B" fill-rule="nonzero" opacity="0.300000012" mask="url(#mask-43)"></path>
                                                    <path d="M10.8905122,52.6543662 C11.9061465,50.1831264 13.8991113,48.3585709 16.8694065,47.1806995 L16.5019312,51.437254 L12.1211291,53.316864 L10.8905122,52.6543662 Z" id="Path-13" fill="#373A5B" fill-rule="nonzero" opacity="0.300000012" mask="url(#mask-43)"></path>
                                                    <path d="M70.2654338,8.88897407 C70.7346851,12.2176165 71.9321388,13.8819377 73.8577947,13.8819377 C75.7834507,13.8819377 77.1349835,12.8763469 77.9123932,10.8651654 L71.6786985,7.09381954 L70.2654338,8.88897407 Z" id="Path-20" fill="#373A5B" fill-rule="nonzero" opacity="0.300000012" mask="url(#mask-43)"></path>
                                                    <path d="M26.5178571,0.978914848 L30.5373716,8.94472365 C30.7861721,9.43779238 31.3875759,9.63581094 31.8806447,9.38701048 C32.0021976,9.32567534 32.1099454,9.24016449 32.1972847,9.13571846 L34.5903761,6.27390336 L36.9442192,7.7484071 C37.412256,8.04159654 38.0293517,7.89985478 38.3225412,7.43181803 C38.5164649,7.12224533 38.5261563,6.73156374 38.3478203,6.41275667 L35.7077312,1.69313131 L28.9836359,-0.577868462 L26.3242495,0.978914848" id="Path-56" fill="#FFD5D7" fill-rule="nonzero" mask="url(#mask-43)"></path>
                                                    <path d="M1.36660247,31.2544846 C0.691187478,34.8388834 3.59525666,36.2396574 4.40096815,36.2396574 C5.20667964,36.2396574 11.121517,32.1254709 11.3080491,31.2544846 C11.4945812,30.3834982 11.6537043,28.2872526 10.4427833,28.0934518 C9.23186229,27.899651 2.04201745,27.6700857 1.36660247,31.2544846 Z" id="Path-53" fill="#FFD5D7" fill-rule="nonzero"></path>
                                                </g>
                                                <g id="Head" transform="translate(25.000000, 6.000000)">
                                                    <g id="Path-8" transform="translate(1.821429, 10.800000)">
                                                        <mask id="mask-45" fill="white">
                                                            <use xlink:href="#path-44"></use>
                                                        </mask>
                                                        <use id="Path-3" fill="url(#linearGradient-26)" fill-rule="nonzero" xlink:href="#path-44"></use>
                                                        <path d="M1.83824993,0.322404112 C2.71589583,5.71117578 5.02419296,8.62025182 8.76314132,9.04963223 C12.5020897,9.47901264 14.2273411,8.30707873 13.9388955,5.5338305 L1.83824993,0.322404112 Z" id="Path-9" fill="#DA433D" fill-rule="nonzero" opacity="0.200000003" mask="url(#mask-45)"></path>
                                                    </g>
                                                    <g id="Group">
                                                        <mask id="mask-47" fill="white">
                                                            <use xlink:href="#path-46"></use>
                                                        </mask>
                                                        <use id="Path" fill="url(#linearGradient-29)" fill-rule="nonzero" xlink:href="#path-46"></use>
                                                        <path d="M15.0773317,-0.718268121 C15.0703011,3.23972097 13.633104,5.59879347 10.7657404,6.35894938 C7.89837685,7.11910529 5.83130388,7.0038537 4.56452154,6.01319462 C4.65943228,5.84297281 4.53631887,5.49037996 4.19518132,4.95541609 C3.85404377,4.42045222 7.48142723,2.52922415 15.0773317,-0.718268121 Z" id="Path-50" fill="#DA433D" fill-rule="nonzero" opacity="0.200000003" mask="url(#mask-47)"></path>
                                                    </g>
                                                </g>
                                                <g id="Hands" transform="translate(5.000000, 40.000000)">
                                                    <polygon id="Path-49" fill="url(#linearGradient-48)" fill-rule="nonzero" points="32.0741569 0.974059475 26.5241759 26.8163028 45.1603899 26.4133333 51.1109018 0.974059475"></polygon>
                                                    <g id="Group-59" transform="translate(0.000000, 11.746667)">
                                                        <mask id="mask-51" fill="white">
                                                            <use xlink:href="#path-50"></use>
                                                        </mask>
                                                        <use id="Path" fill="url(#linearGradient-49)" fill-rule="nonzero" xlink:href="#path-50"></use>
                                                        <path d="M6.48352791,-4.00889757 C-0.285382415,-4.13735495 -4.18672558,-4.7679745 -5.22050159,-5.90075623 C-6.2542776,-7.03353797 -5.63793712,-7.71929835 -3.37148017,-7.95803739 L6.48352791,-4.00889757 Z" id="Path-82" fill="#DA433D" fill-rule="nonzero" opacity="0.200000003" mask="url(#mask-51)"></path>
                                                    </g>
                                                </g>
                                            </g>
                                        </g>
                                    </g>
                                    <g id="Phone" stroke-width="1" fill="none" fill-rule="evenodd" transform="translate(266.000000, 60.000000)">
                                        <circle id="Oval" fill="url(#linearGradient-52)" fill-rule="nonzero" cx="7" cy="7" r="7"></circle>
                                        <path d="M5.29364743,6.16023384 C5.08186425,6.93674497 5.18755021,7.56584167 5.61070533,8.04752393 C6.04553949,8.54250059 6.74741695,8.81351654 7.71633772,8.86057178 L7.72416967,8.86331321 L7.85440438,8.33001202 C7.88978847,8.18511687 8.01345759,8.07452232 8.16808961,8.04949026 L9.1361496,7.89277931 C9.34167729,7.85950819 9.538354,7.98569759 9.58218682,8.17896046 L9.79122099,9.10061104 C9.82999935,9.27158835 9.73703054,9.4403618 9.57707705,9.51188984 L9.58625608,9.51510279 C7.76832793,10.0947699 6.3088284,9.78987071 5.20775752,8.60040518 C4.10668663,7.41093966 3.9078842,6.01142666 4.61135024,4.40186618 L4.61268789,4.40510021 C4.67636086,4.28354431 4.80864011,4.2 4.96150037,4.2 C4.98599754,4.2 5.01044,4.20219267 5.03450243,4.20654882 L6.10254244,4.39990182 C6.3136911,4.4381272 6.45217678,4.63140086 6.41185885,4.83159062 C6.40981453,4.84174124 6.40732139,4.85180597 6.40438602,4.86175819 L6.13848445,5.7632842 C6.101111,5.88999701 5.99540486,5.98825874 5.86104415,6.02118564 L5.29364743,6.16023384 Z" id="Path" fill="#FFFFFF" fill-rule="nonzero"></path>
                                    </g>
                                    <path d="M67.5813129,35 C66.7079779,35 66,34.5522847 66,34 C66,33.4477153 66.7079779,33 67.5813129,33 L97.4186871,33 C98.2920221,33 99,33.4477153 99,34 C99,34.5522847 98.2920221,35 97.4186871,35 L67.5813129,35 Z" id="Path-162-Copy" fill="#EAE8E9" fill-rule="nonzero"></path>
                                    <path d="M67.5813129,43 C66.7079779,43 66,42.5522847 66,42 C66,41.4477153 66.7079779,41 67.5813129,41 L97.4186871,41 C98.2920221,41 99,41.4477153 99,42 C99,42.5522847 98.2920221,43 97.4186871,43 L67.5813129,43 Z" id="Path-162-Copy-4" fill="#EAE8E9" fill-rule="nonzero"></path>
                                    <path d="M67.7250686,51 C66.7723395,51 66,50.5522847 66,50 C66,49.4477153 66.7723395,49 67.7250686,49 L100.274931,49 C101.22766,49 102,49.4477153 102,50 C102,50.5522847 101.22766,51 100.274931,51 L67.7250686,51 Z" id="Path-162-Copy-5" fill="#EAE8E9" fill-rule="nonzero"></path>
                                    <path d="M67.7250686,58 C66.7723395,58 66,57.5522847 66,57 C66,56.4477153 66.7723395,56 67.7250686,56 L100.274931,56 C101.22766,56 102,56.4477153 102,57 C102,57.5522847 101.22766,58 100.274931,58 L67.7250686,58 Z" id="Path-162-Copy-6" fill="#EAE8E9" fill-rule="nonzero"></path>
                                    <path d="M67.5813129,66 C66.7079779,66 66,65.5522847 66,65 C66,64.4477153 66.7079779,64 67.5813129,64 L97.4186871,64 C98.2920221,64 99,64.4477153 99,65 C99,65.5522847 98.2920221,66 97.4186871,66 L67.5813129,66 Z" id="Path-162-Copy-7" fill="#EAE8E9" fill-rule="nonzero"></path>
                                    <path d="M69.1147072,74 C67.3945019,74 66,73.5522847 66,73 C66,72.4477153 67.3945019,72 69.1147072,72 L127.885293,72 C129.605498,72 131,72.4477153 131,73 C131,73.5522847 129.605498,74 127.885293,74 L69.1147072,74 Z" id="Path-162-Copy-8" fill="#EAE8E9" fill-rule="nonzero"></path>
                                </g>
                            </g>
                            <path d="M4.04347826,0 L313.956522,0 C317.846527,-6.67626606e-16 321,2.94625519 321,6.58064516 L321,17 L-3,17 L-3,6.58064516 C-3,2.94625519 0.153472632,2.61588895e-15 4.04347826,0 Z" id="Path" fill="#FFFFFF" fill-rule="nonzero" opacity="0.449823289" mask="url(#mask-3)"></path>
                            <circle id="Oval" fill="#F3757C" fill-rule="nonzero" mask="url(#mask-3)" cx="9.5" cy="10.5" r="2.5"></circle>
                            <circle id="Oval-Copy-69" fill="#C1A4FF" fill-rule="nonzero" mask="url(#mask-3)" cx="19.5" cy="10.5" r="2.5"></circle>
                            <circle id="Oval-Copy-70" fill="#85CFF3" fill-rule="nonzero" mask="url(#mask-3)" cx="28.5" cy="10.5" r="2.5"></circle>
                            <path d="M65.2880984,40 C64.5767013,40 64,39.5522847 64,39 C64,38.4477153 64.5767013,38 65.2880984,38 L76.7119016,38 C77.4232987,38 78,38.4477153 78,39 C78,39.5522847 77.4232987,40 76.7119016,40 L65.2880984,40 Z" id="Path-162-Copy-2" fill="#FFFFFF" fill-rule="nonzero" mask="url(#mask-3)"></path>
                            <path d="M65.34172,46 C64.6007085,46 64,45.5522847 64,45 C64,44.4477153 64.6007085,44 65.34172,44 L90.65828,44 C91.3992915,44 92,44.4477153 92,45 C92,45.5522847 91.3992915,46 90.65828,46 L65.34172,46 Z" id="Path-162-Copy-3" fill="#F2F4FF" fill-rule="nonzero" mask="url(#mask-3)"></path>
                        </g>
                        <g id="Yogi-pose-2" transform="translate(410.500000, 252.000000) scale(-1, 1) translate(-410.500000, -252.000000) translate(327.000000, 149.000000)">
                            <g id="Shirt" transform="translate(0.000000, 52.000000)">
                                <mask id="mask-55" fill="white">
                                    <use xlink:href="#path-54"></use>
                                </mask>
                                <use id="Path" fill="url(#linearGradient-53)" fill-rule="nonzero" xlink:href="#path-54"></use>
                                <polygon id="Rectangle-Copy" fill="#FFFFFF" fill-rule="nonzero" opacity="0.5" mask="url(#mask-55)" points="39.6299411 33.4826088 94.5619194 33.4826088 95.839975 39.7250541 35.4788012 39.7250541"></polygon>
                                <polygon id="Rectangle-Copy-2" fill="#FFFFFF" fill-rule="nonzero" opacity="0.5" mask="url(#mask-55)" points="26.3919212 54.2909072 136.22094 54.2909072 136.22094 60.9117496 26.3919212 60.9117496"></polygon>
                                <rect id="Rectangle-Copy-3" fill="#FFFFFF" fill-rule="nonzero" opacity="0.5" mask="url(#mask-55)" x="-11.9170219" y="75.4776027" width="148.137962" height="6.62084234"></rect>
                                <rect id="Rectangle-Copy-4" fill="#FFFFFF" fill-rule="nonzero" opacity="0.5" mask="url(#mask-55)" x="-11.9170219" y="96.6642982" width="148.137962" height="6.62084234"></rect>
                                <polygon id="Rectangle-Copy-5" fill="#FFFFFF" fill-rule="nonzero" opacity="0.5" mask="url(#mask-55)" points="-11.9170219 117.850994 136.22094 117.850994 136.22094 124.471836 -11.9170219 124.471836"></polygon>
                                <polygon id="Rectangle-Copy-6" fill="#FFFFFF" fill-rule="nonzero" opacity="0.5" mask="url(#mask-55)" points="-11.9170219 139.037689 136.22094 139.037689 136.22094 145.658532 -11.9170219 145.658532"></polygon>
                                <path d="M97.3945937,64.7606824 C97.4242049,50.1114356 96.1586276,38.315352 93.5978618,29.3724316 C98.21154,32.1015796 100.871686,37.9996214 101.5783,47.066557 C102.638221,60.6669604 109.465941,47.6038885 113.838728,62.8608099 C118.211514,78.1177313 129.251242,68.1206816 131.837157,72.2028153 C133.561101,74.9242378 129.01922,78.9807553 118.211514,84.3723677 L97.3945937,64.7606824 Z" id="Path-6" fill="#373A5B" fill-rule="nonzero" opacity="0.300000012" mask="url(#mask-55)"></path>
                                <path d="M27.9382283,-0.541314614 C27.9420371,6.75624743 34.5446323,10.4050285 47.7460138,10.4050285 C60.9473954,10.4050285 67.6473536,3.35403345 67.8458885,-10.7479566 L27.9382283,-0.541314614 Z" id="Path-7" fill="#373A5B" fill-rule="nonzero" opacity="0.300000012" mask="url(#mask-55)"></path>
                                <path d="M11.2032115,116.88898 C13.4799526,111.403002 17.9475691,107.352618 24.6060609,104.737826 L23.7822939,114.187077 L13.9618777,118.359679 L11.2032115,116.88898 Z" id="Path-13" fill="#373A5B" fill-rule="nonzero" opacity="0.300000012" mask="url(#mask-55)"></path>
                                <path d="M144.303596,19.7328957 C145.355513,27.1222472 148.039838,30.816923 152.356568,30.816923 C156.673299,30.816923 159.703022,28.5845823 161.445736,24.119901 L147.471702,15.7477792 L144.303596,19.7328957 Z" id="Path-20" fill="#373A5B" fill-rule="nonzero" opacity="0.300000012" mask="url(#mask-55)"></path>
                                <path d="M25.4248661,86.8150278 C43.6277663,86.4316853 57.3277744,85.9600474 66.5248905,85.400114 C75.7220065,84.8401806 81.4254909,84.1305066 83.6353435,83.2710919 C71.1710641,87.6813436 62.7613964,89.8864694 58.4063403,89.8864694 C51.8737563,89.8864694 52.0708529,85.1320262 44.9139333,94.997427 C37.7570136,104.862828 32.0753184,92.285669 25.4248661,110.938217 C20.9912312,123.373249 20.9912312,115.332186 25.4248661,86.8150278 Z" id="Path-47" fill="#373A5B" fill-rule="nonzero" opacity="0.300000012" mask="url(#mask-55)"></path>
                                <path d="M67.8458885,72.956947 L25.4248661,66.9285351 L26.0268558,56.1609874 L38.0426589,35.5514103 C38.6460802,37.5689048 37.353904,42.77416 34.1661304,51.1671758 C29.3844699,63.7566996 41.9763022,52.0555234 46.397883,60.2785299 C49.3456035,65.7605343 56.4949387,69.9866733 67.8458885,72.956947 Z" id="Path-48" fill="#373A5B" fill-rule="nonzero" opacity="0.300000012" mask="url(#mask-55)"></path>
                            </g>
                            <g id="Head" transform="translate(44.000000, 0.000000)">
                                <path d="M10.405764,3.76983623 C17.8693043,0.735055475 34.059001,-2.89217035 37.6745718,5.63827486 C41.2901426,14.1687201 45.5508701,24.792002 38.9466933,29.1773228 C32.3425165,33.5626436 28.1189932,40.2765879 21.0326087,38.333496 C16.3083524,37.0381014 12.1249413,38.3583011 8.48237546,42.294095 C5.90540911,41.9684267 4.29970167,41.1057429 3.66525315,39.7060435 C-2.78551818,25.4745655 0.204854977,7.91766971 10.405764,3.76983623 Z" id="Path-2" fill="url(#linearGradient-56)" fill-rule="nonzero"></path>
                                <g id="Path-8" transform="translate(3.059289, 34.489796)">
                                    <mask id="mask-58" fill="white">
                                        <use xlink:href="#path-57"></use>
                                    </mask>
                                    <use id="Path-3" fill="url(#linearGradient-26)" fill-rule="nonzero" xlink:href="#path-57"></use>
                                    <path d="M3.79668134,1.14916714 C5.7212038,13.0631181 10.7828917,19.4947488 18.9817451,20.4440592 C27.1805984,21.3933697 30.96377,18.8023593 30.3312599,12.6710282 L3.79668134,1.14916714 Z" id="Path-9" fill="#DA433D" fill-rule="nonzero" opacity="0.200000003" mask="url(#mask-58)"></path>
                                </g>
                                <g id="Group" transform="translate(1.331357, 15.520408)">
                                    <mask id="mask-60" fill="white">
                                        <use xlink:href="#path-59"></use>
                                    </mask>
                                    <use id="Path" fill="url(#linearGradient-29)" fill-rule="nonzero" xlink:href="#path-59"></use>
                                    <path d="M32.1271428,-2.51657918 C32.1117259,6.23407697 28.9602066,11.4497134 22.6725847,13.1303303 C16.3849628,14.8109471 11.8522368,14.5561391 9.07440692,12.3659065 C9.2825294,11.9895657 9.01256344,11.2100237 8.26450904,10.0272805 C7.51645465,8.84453722 15.4706659,4.66325067 32.1271428,-2.51657918 Z" id="Path-50" fill="#DA433D" fill-rule="nonzero" opacity="0.200000003" mask="url(#mask-60)"></path>
                                </g>
                            </g>
                            <g id="Hands" transform="translate(0.000000, 52.000000)">
                                <g id="Path-21" transform="translate(97.681746, 0.000000)">
                                    <mask id="mask-62" fill="white">
                                        <use xlink:href="#path-61"></use>
                                    </mask>
                                    <use id="Path" fill="url(#linearGradient-29)" fill-rule="nonzero" xlink:href="#path-61"></use>
                                    <path d="M60.7610886,9.72214118 C57.5221297,10.1354886 55.9026502,12.1747748 55.9026502,15.84 C55.9026502,21.3378378 55.9772891,26.2377508 60.7610886,27.4969713 C55.1680101,27.0448718 52.659775,23.5562907 53.2363835,17.0312279 C53.8129919,10.506165 56.3212269,8.06980282 60.7610886,9.72214118 Z" id="Path-45" fill="#DA433D" fill-rule="nonzero" opacity="0.200000003" mask="url(#mask-62)"></path>
                                </g>
                                <g id="Group-2" transform="translate(0.000000, 39.600000)">
                                    <polygon id="Path-49" fill="url(#linearGradient-48)" fill-rule="nonzero" points="83.9138406 0.841633819 71.4578038 58.9866813 113.283779 58.08 126.638742 0.841633819"></polygon>
                                    <mask id="mask-64" fill="white">
                                        <use xlink:href="#path-63"></use>
                                    </mask>
                                    <use id="Path" fill="url(#linearGradient-49)" fill-rule="nonzero" xlink:href="#path-63"></use>
                                    <path d="M26.4798035,16.0599805 C11.2880767,15.7709514 2.53214149,14.3520574 0.211998073,11.8032985 C-2.10814535,9.25453957 -0.724868617,7.71157871 4.36182827,7.17441588 L26.4798035,16.0599805 Z" id="Path-82" fill="#DA433D" fill-rule="nonzero" opacity="0.200000003" mask="url(#mask-64)"></path>
                                </g>
                            </g>
                        </g>
                        <g id="Offer,-Discount,-Label,-Sticker,-Tag,-Coupon,-Shop,-Shopping" transform="translate(58.739092, 58.739092) rotate(-30.000000) translate(-58.739092, -58.739092) translate(15.739092, 15.739092)">
                            <g id="Group" transform="translate(0.466950, 0.531795)">
                                <path d="M63.7030618,79.214731 C62.1939627,80.071669 52.1878507,76.8177931 50.5011654,77.2268414 C48.873385,77.6216276 41.8414564,85.0130207 40.1689539,84.9216828 C38.4359314,84.8276138 31.7780879,76.6821517 30.137937,76.1147034 C28.5550609,75.5672828 18.6417128,77.9851586 17.2841149,77.0044138 C15.877391,75.9881655 14.6816347,65.5383172 13.6087523,64.1746207 C12.5733372,62.8585655 2.92598627,59.5352 2.3143205,57.9763862 C1.68052104,56.3614345 6.32649596,46.9241931 6.16151461,45.1969655 C6.00229443,43.5304276 -0.316091625,35.5209103 0.0123741786,33.8792552 C0.352726018,32.1778207 9.365368,26.7497379 10.1606684,25.2076138 C10.928195,23.7195034 9.94481695,13.566731 11.1091278,12.3632552 C12.3155714,11.1157793 22.8334304,11.4198345 24.3365109,10.5525793 C25.7870996,9.71536552 30.4509434,0.643172414 32.0814407,0.259613793 C33.7709371,-0.1376 42.4546677,5.8024 44.1883095,5.88493793 C45.86141,5.96383448 54.6917382,0.852855172 56.2707498,1.41150345 C57.9068996,1.99048276 61.9994766,11.6801931 63.4132634,12.6864276 C64.7776743,13.6577655 74.9709229,14.1296276 75.9971248,15.4529655 C77.0604566,16.8239448 75.2625184,27.1873103 75.9075713,28.7980138 C76.5301052,30.3522759 84.8499902,36.2579862 84.9975654,37.9257379 C85.1504743,39.6538759 78.0328627,47.4006069 77.7043984,49.1041655 C77.387403,50.7482483 81.1924159,60.2124966 80.4145171,61.6951448 C79.6084682,63.2318069 69.4309568,65.9021517 68.2332521,67.1575172 C67.0773736,68.3694897 65.1594518,78.387531 63.7030527,79.214731 L63.7030618,79.214731 Z" id="Path" fill="#FFCC00"></path>
                                <path d="M60.4767714,73.6400828 C59.1972998,74.3668414 50.7137291,71.6078897 49.2836952,71.954731 C47.9035987,72.2894345 41.9416562,78.5562483 40.5236437,78.478869 C39.0543186,78.3999724 33.4095414,71.4931862 32.0189566,71.0119172 C30.6769371,70.5476414 22.2720151,72.5977379 21.1209912,71.7662897 C19.9283165,70.9044966 18.9145045,62.0447172 18.0048733,60.8885793 C17.1270085,59.7728 8.94761395,56.9549793 8.42901984,55.6334621 C7.89166016,54.2643034 11.8306934,46.2629793 11.6908162,44.7988414 C11.5558241,43.3856828 6.1988548,36.5948138 6.47734061,35.2028966 C6.76590346,33.7606069 14.4071673,29.1582069 15.0814538,27.8509517 C15.7321928,26.5892138 14.8984488,17.9812966 15.8855981,16.9608 C16.9084674,15.9032828 25.8259143,16.1612138 27.1002829,15.4256552 C28.3301479,14.7158897 32.2843387,7.02408276 33.6667362,6.69908966 C35.0991593,6.36226207 42.4615618,11.3982897 43.9314091,11.4683862 C45.3499286,11.5351448 52.8366254,7.20190345 54.1753693,7.67558621 C55.5625602,8.16626207 59.0324089,16.3818207 60.2310698,17.2351172 C61.3878712,18.0583724 70.0301005,18.4586207 70.9001545,19.580469 C71.8016887,20.7429793 70.2773321,29.5293241 70.8242312,30.8948414 C71.3520387,32.2127172 78.405955,37.2199172 78.531075,38.6339862 C78.6607304,40.0990345 72.6261341,46.666869 72.3476498,48.1112828 C72.078898,49.5050207 75.3049212,57.5294069 74.645388,58.7865931 C73.9619911,60.0892966 65.3331037,62.3533241 64.3176452,63.4178207 C63.3376437,64.4449931 61.7115543,72.9388138 60.4767623,73.6400828 L60.4767714,73.6400828 Z" id="Path" fill="#3477E0"></path>
                                <path d="M16.0705857,30.3716966 L67.4041621,30.3716966 C72.7245489,30.3716966 77.0077505,30.6690759 77.0077505,31.0353379 L80.3022109,37.6932966 L74.8720254,46.8000828 L77.0077505,55.3278897 C77.0974559,55.6865655 72.7245489,55.9912276 67.4041621,55.9912276 L16.0705857,55.9912276 C10.7501989,55.9912276 6.46699732,55.6968828 6.46699732,55.3278897 L6.46699732,31.0353379 C6.46699732,30.6675586 10.7501989,30.3716966 16.0705857,30.3716966 Z" id="Path" fill="#FFCC00"></path>
                                <path d="M23.3370536,33.4066709 C20.387216,33.4066709 18.771624,35.1553978 18.771624,38.2132461 L18.771624,48.1523636 C18.771624,51.2102119 20.387216,52.9530094 23.3370536,52.9530094 C26.2868905,52.9530094 27.8965538,51.2102088 27.8965538,48.1523636 L27.8965538,38.2132461 C27.8965538,35.1553978 26.2868905,33.4066709 23.3370536,33.4066709 Z M29.847237,33.6259608 L29.847237,52.7396458 L32.8533075,52.7396458 L32.8533075,44.8452508 L36.7309559,44.8452508 L36.7309559,42.1189561 L32.8533075,42.1189561 L32.8533075,36.3581818 L37.7982007,36.3581818 L37.7982007,33.6259608 L29.847237,33.6259608 Z M39.238978,33.6259608 L39.238978,52.7396458 L42.2391168,52.7396458 L42.2391168,44.8452508 L46.122697,44.8452508 L46.122697,42.1189561 L42.2391168,42.1189561 L42.2391168,36.3581818 L47.184013,36.3581818 L47.184013,33.6259608 L39.238978,33.6259608 Z M48.6247904,33.6259608 L48.6247904,52.7396458 L56.818848,52.7396458 L56.818848,50.0074279 L51.6308579,50.0074279 L51.6308579,44.4126003 L55.757535,44.4126003 L55.757535,41.6803793 L51.6308579,41.6803793 L51.6308579,36.3581818 L56.818848,36.3581818 L56.818848,33.6259608 L48.6247904,33.6259608 Z M58.6568789,33.6259608 L58.6568789,52.7396458 L61.6570177,52.7396458 L61.6570177,44.9578574 L62.6946157,44.9578574 C64.0602834,44.9578574 64.6630852,45.613248 64.6630852,47.3878135 L64.6630852,50.3867382 C64.6630852,51.9431244 64.771958,52.2480596 64.9358259,52.7396458 L67.9952582,52.7396458 C67.6948105,52.0298803 67.6691557,51.3446182 67.6691557,50.4163699 L67.6691557,47.4707884 C67.6691557,45.4777401 67.1792005,44.026963 65.6769682,43.3991286 C67.0153205,42.7712941 67.6395089,41.4887881 67.6395089,39.5230532 L67.6395089,38.0235909 C67.6395089,35.074984 66.3004493,33.6259608 63.1867323,33.6259608 L58.6568789,33.6259608 Z M23.3370536,36.1388919 C24.2930213,36.1388919 24.8904863,36.6586806 24.8904863,38.0235909 L24.8904863,48.3420188 C24.8904863,49.7072326 24.2930213,50.2267148 23.3370536,50.2267148 C22.3810877,50.2267148 21.7776924,49.7072295 21.7776924,48.3420188 L21.7776924,38.0235909 C21.7776924,36.6586806 22.3810877,36.1388919 23.3370536,36.1388919 Z M61.6570177,36.3581818 L63.1096525,36.3581818 C64.1748725,36.3581818 64.6393702,36.9547126 64.6393702,38.3199263 L64.6393702,40.2046254 C64.6393702,41.7337012 63.9508307,42.2256364 62.8309861,42.2256364 L61.6570177,42.2256364 L61.6570177,36.3581818 Z" id="Shape" fill="#3477E0" fill-rule="nonzero"></path>
                            </g>
                        </g>
                    </g>
                </g>
            </g>
        </g>
    </g>
</svg>