<?xml version="1.0" encoding="UTF-8"?>
<svg width="33px" height="30px" viewBox="0 0 33 30" version="1.1" xmlns="http://www.w3.org/2000/svg" xmlns:xlink="http://www.w3.org/1999/xlink">
    <!-- Generator: Sketch 52 (66869) - http://www.bohemiancoding.com/sketch -->
    <title>Logo</title>
    <desc>Created with Sketch.</desc>
    <defs>
        <polygon id="path-1" points="0.000129166667 0.7626 32.06175 0.7626 32.06175 29.7083333 0.000129166667 29.7083333"></polygon>
        <polygon id="path-3" points="0 30.2375292 32.06175 30.2375292 32.06175 1.29127917 0 1.29127917"></polygon>
    </defs>
    <g id="Adwords-Page" stroke="none" stroke-width="1" fill="none" fill-rule="evenodd">
        <g id="Home-1920" transform="translate(-340.000000, -30.000000)">
            <g id="Header" transform="translate(240.000000, 0.000000)">
                <g id="Logo">
                    <g transform="translate(100.000000, 29.000000)">
                        <path d="M22.4326333,3.99422083 C22.7762167,3.99422083 23.0526333,4.27192917 23.0526333,4.61422083 C23.0526333,4.95780417 22.7762167,5.23422083 22.4326333,5.23422083 C22.0903417,5.23422083 21.813925,4.95780417 21.813925,4.61422083 C21.813925,4.27192917 22.0903417,3.99422083 22.4326333,3.99422083" id="Fill-1" fill="#FFFFFF"></path>
                        <path d="M24.8103333,3.99422083 C25.1539167,3.99422083 25.4303333,4.27192917 25.4303333,4.61422083 C25.4303333,4.95780417 25.1539167,5.23422083 24.8103333,5.23422083 C24.4680417,5.23422083 24.191625,4.95780417 24.191625,4.61422083 C24.191625,4.27192917 24.4680417,3.99422083 24.8103333,3.99422083" id="Fill-3" fill="#FFFFFF"></path>
                        <path d="M27.2322083,3.99422083 C27.5757917,3.99422083 27.8522083,4.27192917 27.8522083,4.61422083 C27.8522083,4.95780417 27.5757917,5.23422083 27.2322083,5.23422083 C26.8899167,5.23422083 26.6135,4.95780417 26.6135,4.61422083 C26.6135,4.27192917 26.8899167,3.99422083 27.2322083,3.99422083" id="Fill-5" fill="#FFFFFF"></path>
                        <path d="M8.07795417,13.4016875 C6.3212875,13.4313958 4.72607917,14.1250208 3.94332917,15.9708125 C3.1902875,17.7584792 3.58812083,19.4557292 4.8875375,20.9036875 C6.29157917,22.4549792 9.0531625,22.8980208 11.0164958,21.9073125 C12.5974958,21.1103542 13.4254542,19.7967292 13.5287875,18.0387708 C13.6166208,16.2963125 12.7886625,15.0705208 11.3277875,14.1986458 C10.3525792,13.6380625 9.31924583,13.4158958 8.07795417,13.4016875 M24.1604958,22.4394792 C25.1951208,22.4110625 26.5229542,22.0261458 27.4981625,20.8300625 C28.5469958,19.5603542 29.0946625,18.0542708 28.5612042,16.4887708 C28.0161208,14.8793542 26.7606208,13.8589375 25.0323708,13.6083542 C24.2948292,13.5050208 23.5107875,13.4753125 22.7577458,13.5489375 C20.8086208,13.7258958 19.0364542,15.1441458 18.6825375,16.7251458 C18.2821208,18.4818125 19.2431208,20.7564375 20.7944125,21.6722292 C21.6947042,22.2031042 22.6699125,22.4549792 24.1604958,22.4394792 M30.7324958,16.6218125 L30.7324958,18.3048542 C29.7882875,18.2906458 29.5067042,18.9984792 29.1824958,19.7231042 C28.2822042,21.7600625 26.7296208,22.9716458 24.4704958,23.1188958 C22.0344125,23.2816458 19.9380375,22.6022292 18.6373292,20.3573125 C18.2382042,19.6778958 17.9139958,18.9403542 17.6194958,18.2170208 C17.5161625,17.9496458 17.4851625,17.6848542 17.3082042,17.5815208 C17.1609542,17.4923958 15.2260375,17.3890625 14.9754542,17.5957292 C14.7248708,17.7881875 14.5763292,18.2454375 14.3257458,18.9700625 C12.8041625,23.3255625 7.19187083,24.6107708 4.1784125,21.2731042 C3.60362083,20.6388958 3.24970417,19.7967292 2.83507917,19.0281875 C2.61420417,18.6290625 2.06782917,18.3642708 1.59507917,18.2454375 C1.4620375,18.2170208 1.6247875,17.9496458 1.6247875,17.8166042 C1.58087083,17.3890625 1.6092875,16.9602292 1.6092875,16.4887708 C2.39332917,16.4293542 2.83507917,15.9566042 3.2057875,15.3663125 C5.50882917,11.6889375 10.8098292,12.2947292 12.8932875,14.5086458 C13.0844542,14.7011042 13.2627042,14.9077708 13.4383708,15.1144375 C13.9124125,15.6466042 14.2818292,16.0302292 14.9160375,16.1477708 C15.1382042,16.1929792 16.9839958,16.2523958 17.3676208,16.1477708 C17.9734125,15.9863125 18.3725375,15.5135625 18.8594958,14.8793542 C21.1186208,11.9395208 26.7012042,12.0867708 28.9009125,15.2771875 C29.6552458,16.3402292 29.6991625,16.3105208 30.7324958,16.6218125" id="Fill-7" fill="#FFFFFF"></path>
                        <path d="M8.07795417,13.4754417 C6.7010375,13.4986917 4.87720417,13.9559417 4.0117875,16.00065 C3.2949125,17.6991917 3.61782917,19.3783583 4.94307917,20.8547333 C6.3251625,22.3814833 9.0337875,22.824525 10.9842042,21.8428583 C12.5199958,21.0665667 13.3505375,19.786525 13.4538708,18.035025 C13.5365375,16.4139833 12.8287042,15.17915 11.2890375,14.2620667 C10.3706625,13.733775 9.38124583,13.4909417 8.07795417,13.4754417 Z M8.68374583,22.51065 C7.2164125,22.51065 5.74520417,21.9604 4.8332875,20.9541917 C3.46670417,19.4313167 3.13474583,17.6991917 3.87487083,15.942525 C4.58657917,14.2659417 6.0384125,13.361775 8.0766625,13.3281917 L8.07924583,13.3281917 C9.40837083,13.3436917 10.4210375,13.5929833 11.3639542,14.1354833 C12.9552875,15.0835667 13.6876625,16.361025 13.6011208,18.042775 C13.4952042,19.8511083 12.6362458,21.173775 11.0513708,21.9746083 C10.3293292,22.3375667 9.5065375,22.51065 8.68374583,22.51065 Z M23.6167042,13.58265 C23.3260792,13.58265 23.0393292,13.5955667 22.7654958,13.6226917 C20.8693292,13.795775 19.1074958,15.1649417 18.7548708,16.740775 C18.3596208,18.48065 19.3102875,20.7100667 20.8318708,21.607775 C21.7554125,22.1528583 22.7499958,22.382775 24.1592042,22.3659833 C24.9212875,22.344025 26.3602042,22.1089417 27.4413292,20.7836917 C28.2499125,19.8033167 29.0894958,18.267525 28.4927458,16.51215 C27.9567042,14.9337333 26.7244542,13.9288167 25.0207458,13.6821083 C24.5518708,13.6149417 24.0765375,13.58265 23.6167042,13.58265 Z M24.0390792,22.514525 C22.6647458,22.514525 21.6766208,22.2794417 20.7556625,21.73565 C19.1862875,20.8082333 18.2020375,18.5051917 18.6089125,16.7084833 C18.9770375,15.0732333 20.7957042,13.6536917 22.7512875,13.4754417 C23.4694542,13.4056917 24.2612458,13.4250667 25.0427042,13.5348583 C26.8032458,13.7906083 28.0768292,14.8316917 28.6322458,16.4643583 C29.1217875,17.9058583 28.7497875,19.4313167 27.5549958,20.8766917 C26.4377042,22.2484417 24.9509958,22.491275 24.1630792,22.514525 L24.1617875,22.514525 L24.0390792,22.514525 Z M1.68420417,16.5560667 C1.6829125,16.671025 1.68032917,16.7821083 1.6790375,16.8931917 C1.67257917,17.2109417 1.6674125,17.5106083 1.6984125,17.8089833 C1.6984125,17.87615 1.67774583,17.942025 1.65449583,18.0143583 C1.63899583,18.0634417 1.60799583,18.1564417 1.61832917,18.1809833 C1.83920417,18.2313583 2.60257917,18.4574 2.8996625,18.99215 C2.99524583,19.1691083 3.08695417,19.34865 3.1786625,19.5294833 C3.48220417,20.12365 3.79737083,20.7410667 4.23395417,21.22415 C5.5889125,22.7250667 7.61295417,23.3773583 9.6460375,22.9666083 C11.8057042,22.5313167 13.5287875,21.0278167 14.2547042,18.9443583 L14.2947458,18.8281083 C14.5324125,18.1448167 14.6744958,17.7314833 14.9302458,17.5377333 C15.2221625,17.2961917 17.1958292,17.4279417 17.3469542,17.5170667 C17.4993708,17.6074833 17.5562042,17.7883167 17.6169125,17.980775 C17.6375792,18.0479417 17.6595375,18.1189833 17.6866625,18.1887333 C17.9540375,18.8436083 18.2847042,19.6108583 18.7019125,20.3199833 C19.8682875,22.3349833 21.7528292,23.2262333 24.4666208,23.0454 C26.6288708,22.9046083 28.1930792,21.7756917 29.1140375,19.6922333 L29.1502042,19.61215 C29.4498708,18.9443583 29.7585792,18.2533167 30.6588708,18.2313583 L30.6588708,16.6761917 L30.5684542,16.6490667 C29.6668708,16.3804 29.5738708,16.353275 28.8414958,15.3199417 C27.8120375,13.8280667 25.9404125,12.9058167 23.8324125,12.8515667 C21.7980375,12.7947333 19.9548292,13.5736083 18.9176208,14.9234 C18.4164542,15.5756917 18.0134542,16.0523167 17.3869958,16.2202333 C16.9930375,16.32615 15.1511208,16.2706083 14.9005375,16.2202333 C14.2572875,16.1014 13.8827042,15.7242333 13.3828292,15.16365 C13.2097458,14.9608583 13.0302042,14.7516083 12.8416208,14.5617333 C11.6855792,13.3320667 9.5685375,12.6397333 7.5729125,12.8334833 C5.72324583,13.0143167 4.19262083,13.927525 3.26649583,15.4051917 C2.94099583,15.9257333 2.49924583,16.4669417 1.68420417,16.5560667 Z M8.44995417,23.235275 C6.80049583,23.235275 5.24145417,22.5597333 4.1241625,21.3223167 C3.67337083,20.825025 3.35562083,20.1998583 3.04562083,19.5953583 C2.95520417,19.4171083 2.8647875,19.2375667 2.77049583,19.0631917 C2.5586625,18.6795667 2.01487083,18.4264 1.57699583,18.3179 C1.52920417,18.306275 1.50207917,18.2765667 1.4891625,18.2533167 C1.4465375,18.1796917 1.48012083,18.07765 1.51370417,17.96915 C1.5317875,17.9149 1.54987083,17.8529 1.54987083,17.8167333 C1.51887083,17.5170667 1.52532917,17.2122333 1.5317875,16.8906083 C1.53437083,16.7588583 1.53695417,16.6258167 1.53695417,16.4889 L1.53695417,16.41915 L1.60412083,16.4139833 C2.3959125,16.3545667 2.81182917,15.8559833 3.14249583,15.3264 C4.0931625,13.8099833 5.66124583,12.8722333 7.55999583,12.6862333 C9.59824583,12.4873167 11.7630792,13.199025 12.9475375,14.4584 C13.1387042,14.6508583 13.3208292,14.8626917 13.4952042,15.066775 C13.9718292,15.6028167 14.3309125,15.9644833 14.9302458,16.0755667 C15.1433708,16.1181917 16.9852875,16.175025 17.3482458,16.0768583 C17.9307875,15.9218583 18.3169958,15.4633167 18.8013708,14.8329833 C19.8669958,13.4457333 21.7502458,12.6461917 23.8362875,12.703025 C25.9907875,12.7585667 27.9076208,13.7053583 28.9629125,15.2346917 C29.6642875,16.2254 29.7172458,16.2421917 30.6097875,16.5069833 L30.8074125,16.5664 L30.8074125,18.3799 L30.7312042,18.3786083 C29.8644958,18.368275 29.5984125,18.9701917 29.2858292,19.6728583 L29.2496625,19.7529417 C28.3041625,21.89065 26.6986208,23.0479833 24.4756625,23.19265 C21.7011625,23.37865 19.7714125,22.4628583 18.5740375,20.3936083 C18.1529542,19.6767333 17.8197042,18.9043167 17.5497458,18.244275 C17.5213292,18.1693583 17.4980792,18.0957333 17.4761208,18.0246917 C17.4218708,17.8541917 17.3753708,17.70565 17.2707458,17.6449417 C17.1325375,17.5739 15.2441208,17.4705667 15.0219542,17.6526917 C14.7997875,17.8219 14.6551208,18.2416917 14.4355375,18.8771917 L14.3954958,18.9934417 C13.6502042,21.1259833 11.8857875,22.66565 9.67445417,23.111275 C9.26499583,23.1939417 8.8555375,23.235275 8.44995417,23.235275 Z" id="Fill-9" fill="#FFFFFF"></path>
                        <g id="Group-13" transform="translate(0.000000, 0.529196)">
                            <mask id="mask-2" fill="white">
                                <use xlink:href="#path-1"></use>
                            </mask>
                            <g id="Clip-12"></g>
                            <path d="M2.3625875,2.53476667 C2.04225417,2.53476667 1.77229583,2.804725 1.77229583,3.12635 L1.77229583,27.3451 C1.77229583,27.6654333 2.04225417,27.9366833 2.3625875,27.9366833 L29.6994208,27.9366833 C30.0197542,27.9366833 30.2897125,27.6654333 30.2897125,27.3451 L30.2897125,3.12635 C30.2897125,2.804725 30.0197542,2.53476667 29.6994208,2.53476667 L2.3625875,2.53476667 Z M29.6994208,29.70885 L2.3625875,29.70885 C1.05929583,29.70885 0.000129166667,28.6483917 0.000129166667,27.3451 L0.000129166667,3.12635 C0.000129166667,1.82305833 1.05929583,0.7626 2.3625875,0.7626 L29.6994208,0.7626 C31.0027125,0.7626 32.0618792,1.82305833 32.0618792,3.12635 L32.0618792,27.3451 C32.0618792,28.6483917 31.0027125,29.70885 29.6994208,29.70885 Z" id="Fill-11" fill="#FFFFFF" mask="url(#mask-2)"></path>
                        </g>
                        <mask id="mask-4" fill="white">
                            <use xlink:href="#path-3"></use>
                        </mask>
                        <g id="Clip-15"></g>
                        <polygon id="Fill-14" fill="#FFFFFF" mask="url(#mask-4)" points="0.887375 7.5093625 31.1756667 7.5093625 31.1756667 6.1802375 0.887375 6.1802375"></polygon>
                        <path d="M8.4184375,16.3407458 L6.0701875,16.3407458 C5.89322917,16.3407458 5.7446875,16.1934958 5.7446875,16.0165375 C5.7446875,15.8382875 5.89322917,15.6910375 6.0701875,15.6910375 L8.4029375,15.6910375 C8.57989583,15.6910375 8.72714583,15.8382875 8.72714583,16.0165375 C8.74264583,16.1934958 8.59539583,16.3407458 8.4184375,16.3407458" id="Fill-16" fill="#FFFFFF" mask="url(#mask-4)"></path>
                        <path d="M9.96869583,19.9142708 L6.06915417,19.9142708 C5.8934875,19.9142708 5.74365417,19.7670208 5.74365417,19.5900625 C5.74365417,19.4118125 5.8934875,19.2645625 6.06915417,19.2645625 L9.96869583,19.2645625 C10.1456542,19.2645625 10.2929042,19.4118125 10.2929042,19.5900625 C10.2929042,19.7670208 10.1456542,19.9142708 9.96869583,19.9142708" id="Fill-17" fill="#FFFFFF" mask="url(#mask-4)"></path>
                        <path d="M11.2086958,17.5075083 L7.30915417,17.5075083 C7.1334875,17.5075083 6.98494583,17.3589667 6.98494583,17.1820083 C6.98494583,17.00505 7.1334875,16.8578 7.30915417,16.8578 L11.2086958,16.8578 C11.3869458,16.8578 11.5341958,17.00505 11.5341958,17.1820083 C11.5341958,17.3589667 11.3869458,17.5075083 11.2086958,17.5075083" id="Fill-18" fill="#FFFFFF" mask="url(#mask-4)"></path>
                        <path d="M11.3423833,18.7184458 L7.44284167,18.7184458 C7.26588333,18.7184458 7.11734167,18.5711958 7.11734167,18.3942375 C7.11734167,18.2159875 7.26588333,18.0687375 7.44284167,18.0687375 L11.3423833,18.0687375 C11.5193417,18.0687375 11.6665917,18.2159875 11.6665917,18.3942375 C11.6665917,18.5711958 11.5193417,18.7184458 11.3423833,18.7184458" id="Fill-19" fill="#FFFFFF" mask="url(#mask-4)"></path>
                        <polygon id="Fill-20" fill="#FFFFFF" mask="url(#mask-4)" points="26.7756042 13.9271375 19.8677708 20.8349708 19.0346458 20.0005542 25.9411875 13.0927208"></polygon>
                        <polygon id="Fill-21" fill="#FFFFFF" mask="url(#mask-4)" points="27.9561875 15.1064292 21.0470625 22.0142625 20.2139375 21.1798458 27.1217708 14.2720125"></polygon>
                    </g>
                </g>
            </g>
        </g>
    </g>
</svg>