<svg xmlns="http://www.w3.org/2000/svg" viewBox="0 0 94.72 22.41"><defs><style>.cls-1,.cls-2{fill:#fff;}.cls-2{opacity:0.3;}</style></defs><title>logo with text</title><g id="Layer_2" data-name="Layer 2"><g id="Layer_2-2" data-name="Layer 2"><path class="cls-1" d="M38.83,8a.31.31,0,0,1,.09.07.17.17,0,0,1,0,.1.3.3,0,0,1,0,.1L38.51,9a.22.22,0,0,1-.16.1h-.06l-.07,0a2.29,2.29,0,0,0-.58-.3A2.09,2.09,0,0,0,37,8.6a2,2,0,0,0-.81.17,2,2,0,0,0-.63.45,2.11,2.11,0,0,0-.42.67,2.31,2.31,0,0,0-.15.83,2.25,2.25,0,0,0,.15.82A1.94,1.94,0,0,0,37,12.82a2.09,2.09,0,0,0,.67-.1,2.55,2.55,0,0,0,.59-.31l.07,0,.06,0a.22.22,0,0,1,.15.1l.43.72a.22.22,0,0,1,0,.1.13.13,0,0,1,0,.1l-.08.07a3.4,3.4,0,0,1-.88.42A3.21,3.21,0,0,1,37,14a3.66,3.66,0,0,1-.88-.11,3.25,3.25,0,0,1-.79-.34,3.3,3.3,0,0,1-.67-.51,4.15,4.15,0,0,1-.52-.67,3.46,3.46,0,0,1-.33-.79,3.29,3.29,0,0,1,0-1.76,3.46,3.46,0,0,1,.33-.79,3.83,3.83,0,0,1,.52-.68,3.3,3.3,0,0,1,.67-.51A3.24,3.24,0,0,1,37,7.4a3.14,3.14,0,0,1,1,.15A3.18,3.18,0,0,1,38.83,8Z"/><path class="cls-1" d="M39.83,11.19a2.68,2.68,0,0,1,.1-.76,2.58,2.58,0,0,1,.29-.68,2.68,2.68,0,0,1,1-1,3.08,3.08,0,0,1,.67-.29,3.17,3.17,0,0,1,.76-.1,3.08,3.08,0,0,1,.75.1,3.16,3.16,0,0,1,.68.29,2.71,2.71,0,0,1,.57.44,3.21,3.21,0,0,1,.45.58,2.56,2.56,0,0,1,.28.68,2.65,2.65,0,0,1,0,1.51,2.56,2.56,0,0,1-.28.68,3.6,3.6,0,0,1-.45.58,2.71,2.71,0,0,1-.57.44,3.16,3.16,0,0,1-.68.29,3.08,3.08,0,0,1-.75.1,3.17,3.17,0,0,1-.76-.1,3.08,3.08,0,0,1-.67-.29,2.77,2.77,0,0,1-.58-.44,3.06,3.06,0,0,1-.44-.58,2.58,2.58,0,0,1-.29-.68A2.66,2.66,0,0,1,39.83,11.19Zm1.22,0a1.75,1.75,0,0,0,.12.65,1.5,1.5,0,0,0,.34.54,1.46,1.46,0,0,0,.51.37,1.54,1.54,0,0,0,.65.13,1.48,1.48,0,0,0,.63-.13,1.42,1.42,0,0,0,.5-.37,1.5,1.5,0,0,0,.34-.54,1.74,1.74,0,0,0,.11-.65,1.83,1.83,0,0,0-.11-.66A1.6,1.6,0,0,0,43.8,10a1.45,1.45,0,0,0-.5-.38,1.49,1.49,0,0,0-.63-.14,1.55,1.55,0,0,0-.65.14,1.48,1.48,0,0,0-.51.38,1.6,1.6,0,0,0-.34.54A1.84,1.84,0,0,0,41.05,11.19Z"/><path class="cls-1" d="M50.75,13.3a2.46,2.46,0,0,1-.34.29,2.5,2.5,0,0,1-.39.23,3,3,0,0,1-.45.15,1.93,1.93,0,0,1-.49.06A2.66,2.66,0,0,1,48,13.8a2.81,2.81,0,0,1-.88-.6,2.78,2.78,0,0,1-.58-.91,3,3,0,0,1,0-2.21,2.78,2.78,0,0,1,.58-.91,2.81,2.81,0,0,1,.88-.6,2.66,2.66,0,0,1,1.09-.23,2.27,2.27,0,0,1,.93.19,2.61,2.61,0,0,1,.72.51v-2a.25.25,0,0,1,.07-.19A.24.24,0,0,1,51,6.8h.71a.27.27,0,0,1,.18.07.23.23,0,0,1,.09.19v6.61c0,.17-.09.26-.28.26h-.65a.2.2,0,0,1-.18-.07.57.57,0,0,1-.08-.19Zm-3.22-2.11a1.75,1.75,0,0,0,.12.65,1.66,1.66,0,0,0,.34.54,1.46,1.46,0,0,0,.51.37,1.5,1.5,0,0,0,.64.13,1.53,1.53,0,0,0,.64-.13,1.66,1.66,0,0,0,.53-.36,1.77,1.77,0,0,0,.36-.53,1.71,1.71,0,0,0,.14-.64v0a1.65,1.65,0,0,0-.13-.66,1.82,1.82,0,0,0-.36-.54,1.56,1.56,0,0,0-.53-.38,1.58,1.58,0,0,0-.65-.14,1.5,1.5,0,0,0-.64.14A1.48,1.48,0,0,0,48,10a1.77,1.77,0,0,0-.34.54A1.84,1.84,0,0,0,47.53,11.19Z"/><path class="cls-1" d="M57.64,13.32a2.86,2.86,0,0,1-.83.51,2.51,2.51,0,0,1-1,.19,2.89,2.89,0,0,1-2-.83,3,3,0,0,1-.63-.9,2.8,2.8,0,0,1-.23-1.12,2.64,2.64,0,0,1,.1-.74,2.61,2.61,0,0,1,.27-.67,3,3,0,0,1,.42-.58,3.45,3.45,0,0,1,.56-.45A3.08,3.08,0,0,1,55,8.44a3.25,3.25,0,0,1,.77-.1,2.89,2.89,0,0,1,.65.08,3.47,3.47,0,0,1,.61.23,3.17,3.17,0,0,1,.54.36,3.27,3.27,0,0,1,.44.47,2.62,2.62,0,0,1,.38.79,3.38,3.38,0,0,1,.12.93,1.34,1.34,0,0,1,0,.21.26.26,0,0,1-.06.13s-.07.06-.13.08l-.24,0H54.18a1.41,1.41,0,0,0,.22.55,1.62,1.62,0,0,0,.37.41,1.68,1.68,0,0,0,1,.34,2.33,2.33,0,0,0,.38,0,1.6,1.6,0,0,0,.33-.11,1.32,1.32,0,0,0,.29-.15,1.06,1.06,0,0,0,.23-.17h0l.1-.07a.17.17,0,0,1,.1,0l.09,0a.22.22,0,0,1,.09.08l.2.24.14.16a.49.49,0,0,1,.07.11.22.22,0,0,1,0,.1C57.81,13.16,57.75,13.24,57.64,13.32Zm-1.92-3.9a1.43,1.43,0,0,0-.5.09,1.73,1.73,0,0,0-.44.25,1.8,1.8,0,0,0-.35.38,1.35,1.35,0,0,0-.22.47h3.06a1.43,1.43,0,0,0-.21-.49,1.33,1.33,0,0,0-.34-.37,1.41,1.41,0,0,0-.45-.25A1.92,1.92,0,0,0,55.72,9.42Z"/><path class="cls-1" d="M59.54,7.7a.18.18,0,0,1,.2-.2h2.45a2,2,0,0,1,.81.17,1.83,1.83,0,0,1,.63.46,2.13,2.13,0,0,1,.42.65,2.07,2.07,0,0,1,.14.78,1.92,1.92,0,0,1-.14.75,2.1,2.1,0,0,1-1,1.11,1.94,1.94,0,0,1-.8.17H60.79v2.15a.17.17,0,0,1-.19.19h-.87a.17.17,0,0,1-.19-.19Zm3.39,1.85a.84.84,0,0,0-.07-.35,1,1,0,0,0-.19-.3,1.06,1.06,0,0,0-.29-.22A.91.91,0,0,0,62,8.6H60.79v1.9H62a.86.86,0,0,0,.36-.08.81.81,0,0,0,.3-.21,1.17,1.17,0,0,0,.19-.3A.92.92,0,0,0,62.93,9.55Z"/><path class="cls-1" d="M65.16,8.69a.23.23,0,0,1,.08-.2.33.33,0,0,1,.19-.06H66a.21.21,0,0,1,.16.06.51.51,0,0,1,.09.16,1.55,1.55,0,0,1,0,.21l0,.2.22-.26a1.49,1.49,0,0,1,.27-.23,1.53,1.53,0,0,1,.34-.16,1.44,1.44,0,0,1,.43-.06,2.21,2.21,0,0,1,.39,0,1.59,1.59,0,0,1,.33.09,1.77,1.77,0,0,1,.31.15l.33.22.13.1a.27.27,0,0,1,0,.15s0,.05,0,.07l0,.08-.35.56a.21.21,0,0,1-.08.06.13.13,0,0,1-.08,0,.35.35,0,0,1-.14,0l-.26-.15-.23-.12a.88.88,0,0,0-.23-.07,1.09,1.09,0,0,0-.26,0,1,1,0,0,0-.66.24,1.34,1.34,0,0,0-.35.68v3.27a.24.24,0,0,1-.27.26h-.71a.24.24,0,0,1-.27-.26Z"/><path class="cls-1" d="M69.69,11.19a2.68,2.68,0,0,1,.1-.76,2.58,2.58,0,0,1,.29-.68,2.77,2.77,0,0,1,.44-.58,3.06,3.06,0,0,1,.58-.44,3.16,3.16,0,0,1,.68-.29,2.86,2.86,0,0,1,1.5,0,3,3,0,0,1,.68.29,2.71,2.71,0,0,1,.57.44,2.51,2.51,0,0,1,.45.58,3,3,0,0,1,.29.68,2.9,2.9,0,0,1,0,1.51,3,3,0,0,1-.29.68,2.74,2.74,0,0,1-.45.58,2.71,2.71,0,0,1-.57.44,3,3,0,0,1-.68.29,2.86,2.86,0,0,1-1.5,0,3.16,3.16,0,0,1-.68-.29,2.68,2.68,0,0,1-1-1,2.58,2.58,0,0,1-.29-.68A2.66,2.66,0,0,1,69.69,11.19Zm1.22,0a1.75,1.75,0,0,0,.12.65,1.5,1.5,0,0,0,.34.54,1.46,1.46,0,0,0,.51.37,1.54,1.54,0,0,0,.65.13,1.51,1.51,0,0,0,1.14-.5,1.63,1.63,0,0,0,.33-.54,1.75,1.75,0,0,0,.12-.65,1.84,1.84,0,0,0-.12-.66,1.74,1.74,0,0,0-.33-.54,1.48,1.48,0,0,0-.51-.38,1.46,1.46,0,0,0-.63-.14,1.55,1.55,0,0,0-.65.14,1.48,1.48,0,0,0-.51.38,1.6,1.6,0,0,0-.34.54A1.84,1.84,0,0,0,70.91,11.19Z"/><path class="cls-1" d="M76.48,8.48a.68.68,0,0,1,.27-.05h.44a.24.24,0,0,1,.19.08.71.71,0,0,1,.08.18l.05.42a1.49,1.49,0,0,1,.23-.28,1.28,1.28,0,0,1,.31-.24,1.6,1.6,0,0,1,.42-.17A2.29,2.29,0,0,1,79,8.36a3.12,3.12,0,0,1,.55.05,1.57,1.57,0,0,1,.44.18,1.93,1.93,0,0,1,.36.28,2,2,0,0,1,.29.39A1.43,1.43,0,0,1,81,8.88a2,2,0,0,1,.41-.29,2.21,2.21,0,0,1,.51-.18,2.25,2.25,0,0,1,.58-.07,2,2,0,0,1,.89.19A1.72,1.72,0,0,1,84,9a2,2,0,0,1,.39.76,3.1,3.1,0,0,1,.14.92v2.89a.35.35,0,0,1-.08.24.29.29,0,0,1-.21.08h-.66a.29.29,0,0,1-.23-.07.33.33,0,0,1-.06-.23v-2.9a1.68,1.68,0,0,0-.06-.45A1.25,1.25,0,0,0,83,9.9a1.17,1.17,0,0,0-.35-.27,1,1,0,0,0-.49-.1,1.27,1.27,0,0,0-.44.08,1.07,1.07,0,0,0-.35.25,1,1,0,0,0-.23.38,1.26,1.26,0,0,0-.09.49v2.89c0,.2-.09.31-.28.31h-.66c-.12,0-.19,0-.23-.07a.33.33,0,0,1-.06-.23v-2.9a1.67,1.67,0,0,0-.06-.44,1.23,1.23,0,0,0-.19-.38,1,1,0,0,0-.34-.27,1.12,1.12,0,0,0-.5-.11,1.09,1.09,0,0,0-.39.08,1.07,1.07,0,0,0-.37.22,1.18,1.18,0,0,0-.26.35,1,1,0,0,0-.11.47v3a.29.29,0,0,1-.07.19.32.32,0,0,1-.19.07h-.71a.25.25,0,0,1-.21-.07.24.24,0,0,1-.07-.19v-5A.22.22,0,0,1,76.48,8.48Z"/><path class="cls-1" d="M85.81,8.46l.11,0h.55a.22.22,0,0,1,.19.07.47.47,0,0,1,.07.19l.09.52a3.34,3.34,0,0,1,.33-.32,1.78,1.78,0,0,1,.38-.28A1.65,1.65,0,0,1,88,8.41a2,2,0,0,1,.57-.08,2.67,2.67,0,0,1,.75.11,2.43,2.43,0,0,1,.66.28,2.71,2.71,0,0,1,.57.44,3.48,3.48,0,0,1,.43.58,2.54,2.54,0,0,1,.27.68,2.9,2.9,0,0,1,0,1.51,2.68,2.68,0,0,1-.27.68,3.48,3.48,0,0,1-.43.58,2.71,2.71,0,0,1-.57.44,2.81,2.81,0,0,1-.66.29,3.08,3.08,0,0,1-.75.1,2,2,0,0,1-1-.23,1.85,1.85,0,0,1-.37-.25,3,3,0,0,1-.32-.3v2.11a.24.24,0,0,1-.07.18.24.24,0,0,1-.19.07h-.72a.32.32,0,0,1-.18-.06.23.23,0,0,1-.09-.19V8.67a.2.2,0,0,1,0-.14A.19.19,0,0,1,85.81,8.46Zm4.29,2.71a1.64,1.64,0,0,0-.13-.65,1.61,1.61,0,0,0-.84-.91,1.64,1.64,0,0,0-1.28,0,1.71,1.71,0,0,0-.89.89,1.61,1.61,0,0,0-.14.64v0a1.62,1.62,0,0,0,.13.66,1.87,1.87,0,0,0,.36.55,1.8,1.8,0,0,0,.53.37,1.58,1.58,0,0,0,.65.14,1.53,1.53,0,0,0,.64-.14,1.85,1.85,0,0,0,.51-.37,1.79,1.79,0,0,0,.33-.55A1.62,1.62,0,0,0,90.1,11.17Z"/><path class="cls-1" d="M94.3,13.93a2.2,2.2,0,0,1-.64-.11,1.58,1.58,0,0,1-.53-.28,1.42,1.42,0,0,1-.48-1.09V9.52h-.5A.29.29,0,0,1,92,9.46a.22.22,0,0,1-.06-.18V8.66A.24.24,0,0,1,92,8.48a.36.36,0,0,1,.19-.05h.5V8c0-.15,0-.3,0-.45a.16.16,0,0,1,0-.14.65.65,0,0,1,.17-.09l.17-.06.22-.07a.83.83,0,0,1,.21-.06l.18,0a.19.19,0,0,1,.17.08.36.36,0,0,1,0,.19V8.43h.62a.22.22,0,0,1,.17.06.24.24,0,0,1,.06.18v.59a.28.28,0,0,1-.06.2.22.22,0,0,1-.17.06h-.62v2.21h0v.59a.58.58,0,0,0,.11.41.44.44,0,0,0,.36.13.2.2,0,0,1,.15.06.3.3,0,0,1,.05.16v.6a.24.24,0,0,1-.06.17A.24.24,0,0,1,94.3,13.93Z"/><circle class="cls-1" cx="17.37" cy="2.57" r="0.48"/><circle class="cls-1" cx="19.21" cy="2.57" r="0.48"/><circle class="cls-1" cx="21.08" cy="2.57" r="0.48"/><path class="cls-1" d="M23.79,11.87v1.3c-.73,0-.95.54-1.2,1.1A4.08,4.08,0,0,1,19,16.9a4.44,4.44,0,0,1-4.52-2.14,13.25,13.25,0,0,1-.79-1.66c-.08-.2-.1-.41-.24-.49a4.79,4.79,0,0,0-1.81,0,2.57,2.57,0,0,0-.5,1.07,4.7,4.7,0,0,1-7.85,1.78,8.18,8.18,0,0,1-1-1.74,1.56,1.56,0,0,0-1-.6c-.1,0,0-.23,0-.34a8.61,8.61,0,0,1,0-1,1.58,1.58,0,0,0,1.23-.87c1.78-2.85,5.89-2.38,7.5-.67a6.14,6.14,0,0,1,.42.47,2,2,0,0,0,1.15.8,10,10,0,0,0,1.9,0,2.33,2.33,0,0,0,1.15-1c1.75-2.28,6.07-2.16,7.78.31C23,11.65,23,11.63,23.79,11.87Zm-5.08,4.5a3.43,3.43,0,0,0,2.58-1.24,3.45,3.45,0,0,0,.82-3.36,3.22,3.22,0,0,0-2.73-2.23,7.4,7.4,0,0,0-1.76,0A3.6,3.6,0,0,0,14.46,12a3.83,3.83,0,0,0,1.64,3.83A4.72,4.72,0,0,0,18.71,16.37Zm-12.46-7a3.27,3.27,0,0,0-3.2,2,3.45,3.45,0,0,0,.73,3.82A4.21,4.21,0,0,0,8.53,16a3.37,3.37,0,0,0,1.94-3,3.11,3.11,0,0,0-1.7-3A5,5,0,0,0,6.25,9.38Z"/><path class="cls-1" d="M6.54,17a4.48,4.48,0,0,1-3.35-1.48,6.13,6.13,0,0,1-.83-1.34c-.07-.14-.14-.28-.22-.41a1.49,1.49,0,0,0-.92-.58.1.1,0,0,1-.07,0c0-.06,0-.13,0-.22a.3.3,0,0,0,0-.12,5.55,5.55,0,0,1,0-.71v-.37h.05a1.5,1.5,0,0,0,1.19-.84,4.44,4.44,0,0,1,3.42-2A5.27,5.27,0,0,1,10,10.19c.15.15.29.32.43.47a2,2,0,0,0,1.11.79,11.65,11.65,0,0,0,1.87,0,2.31,2.31,0,0,0,1.13-1,4.68,4.68,0,0,1,3.89-1.64,4.88,4.88,0,0,1,4,2c.55.76.59.77,1.28,1l.15.05v1.4h-.06c-.67,0-.87.46-1.12,1l0,.06A4.12,4.12,0,0,1,19,17a4.46,4.46,0,0,1-4.57-2.17,12.45,12.45,0,0,1-.79-1.67,1,1,0,0,1-.06-.16.5.5,0,0,0-.16-.3,5.35,5.35,0,0,0-1.74,0,2.23,2.23,0,0,0-.45.94l0,.09a4.82,4.82,0,0,1-3.65,3.19A4.45,4.45,0,0,1,6.54,17ZM1.3,11.82v.26a5.58,5.58,0,0,0,0,.71.5.5,0,0,1,0,.16.79.79,0,0,0,0,.13,1.63,1.63,0,0,1,1,.62l.21.42a6,6,0,0,0,.82,1.31,4.41,4.41,0,0,0,4.19,1.35A4.76,4.76,0,0,0,11,13.67l0-.09c.18-.53.29-.85.49-1a4.54,4.54,0,0,1,1.87,0,.59.59,0,0,1,.21.36c0,.05,0,.11,0,.16a13.61,13.61,0,0,0,.79,1.65,4.33,4.33,0,0,0,4.46,2.11,4,4,0,0,0,3.6-2.59l0-.07c.23-.51.47-1,1.17-1.07v-1.2l-.07,0c-.7-.21-.77-.23-1.34-1A4.82,4.82,0,0,0,18.45,9a4.61,4.61,0,0,0-3.8,1.6,2.34,2.34,0,0,1-1.19,1,10.24,10.24,0,0,1-1.92,0,2.07,2.07,0,0,1-1.18-.82,6.14,6.14,0,0,0-.42-.47A5.1,5.1,0,0,0,5.86,8.94a4.3,4.3,0,0,0-3.33,2A1.66,1.66,0,0,1,1.3,11.82Zm17.31,4.61a4.71,4.71,0,0,1-2.54-.6,3.87,3.87,0,0,1-1.66-3.89,3.65,3.65,0,0,1,3.2-2.51,7.65,7.65,0,0,1,1.78.05,3.3,3.3,0,0,1,2.78,2.27,3.46,3.46,0,0,1-.84,3.41,3.48,3.48,0,0,1-2.62,1.27h-.1Zm-.33-6.91q-.33,0-.66,0A3.52,3.52,0,0,0,14.52,12a3.75,3.75,0,0,0,1.61,3.77,4.67,4.67,0,0,0,2.57.59,3.36,3.36,0,0,0,2.54-1.23,3.44,3.44,0,0,0,.82-3.31,3.19,3.19,0,0,0-2.69-2.19A8,8,0,0,0,18.28,9.52ZM6.72,16.43a4.08,4.08,0,0,1-3-1.21A3.49,3.49,0,0,1,3,11.34a3.3,3.3,0,0,1,3.25-2h0a5,5,0,0,1,2.55.62,3.15,3.15,0,0,1,1.73,3,3.43,3.43,0,0,1-2,3A4.14,4.14,0,0,1,6.72,16.43Zm-.47-7a3.23,3.23,0,0,0-3.14,2,3.37,3.37,0,0,0,.72,3.76,4.13,4.13,0,0,0,4.67.76A3.32,3.32,0,0,0,10.42,13,3,3,0,0,0,8.74,10,4.83,4.83,0,0,0,6.25,9.43Z"/><path class="cls-1" d="M23,22.41H1.83A1.83,1.83,0,0,1,0,20.58V1.83A1.83,1.83,0,0,1,1.83,0H23a1.83,1.83,0,0,1,1.83,1.83V20.58A1.83,1.83,0,0,1,23,22.41ZM1.83,1.37a.47.47,0,0,0-.46.46V20.58a.47.47,0,0,0,.46.46H23a.47.47,0,0,0,.46-.46V1.83A.47.47,0,0,0,23,1.37Z"/><rect class="cls-1" x="0.69" y="3.78" width="23.45" height="1.03"/><path class="cls-1" d="M6.52,11.65H4.7a.25.25,0,0,1-.25-.25h0a.25.25,0,0,1,.25-.25H6.51a.25.25,0,0,1,.25.25h0A.24.24,0,0,1,6.52,11.65Z"/><path class="cls-1" d="M7.72,14.42h-3a.25.25,0,0,1-.25-.25h0a.26.26,0,0,1,.25-.26h3a.26.26,0,0,1,.25.26H8A.26.26,0,0,1,7.72,14.42Z"/><path class="cls-1" d="M8.68,12.55h-3a.25.25,0,0,1-.25-.25h0a.25.25,0,0,1,.25-.25h3a.25.25,0,0,1,.25.25h0A.25.25,0,0,1,8.68,12.55Z"/><path class="cls-1" d="M8.78,13.49h-3a.25.25,0,0,1-.25-.25h0A.25.25,0,0,1,5.76,13h3a.25.25,0,0,1,.25.25H9A.25.25,0,0,1,8.78,13.49Z"/><rect class="cls-2" x="13.95" y="11.68" width="7.56" height="0.91" transform="translate(-3.39 16.09) rotate(-45)"/><rect class="cls-2" x="14.86" y="12.59" width="7.56" height="0.91" transform="translate(-3.76 17.01) rotate(-45)"/></g></g></svg>