<?xml version="1.0" encoding="UTF-8"?>
<svg width="24px" height="24px" viewBox="0 0 24 24" version="1.1" xmlns="http://www.w3.org/2000/svg" xmlns:xlink="http://www.w3.org/1999/xlink">
    <!-- Generator: Sketch 52 (66869) - http://www.bohemiancoding.com/sketch -->
    <title>Group 4</title>
    <desc>Created with Sketch.</desc>
    <g id="Adwords-Page" stroke="none" stroke-width="1" fill="none" fill-rule="evenodd">
        <g id="Home-768" transform="translate(-361.000000, -1181.000000)">
            <g id="Group-8" transform="translate(40.000000, 507.000000)">
                <g id="Events-Card-Copy-2" transform="translate(100.000000, 646.000000)">
                    <g id="content" transform="translate(30.000000, 27.000000)">
                        <g id="Group-14">
                            <g id="Group-4" transform="translate(191.000000, 1.000000)">
                                <circle id="Oval" fill="#71D19B" cx="12" cy="12" r="12"></circle>
                                <path d="M10,18 C9.5,18 9,17.8 8.6,17.4 L4.6,13.4 C3.8,12.6 3.8,11.4 4.6,10.6 C5.4,9.8 6.7,9.8 7.4,10.6 L10,13.2 L16.6,6.6 C17.4,5.8 18.6,5.8 19.4,6.6 C20.2,7.4 20.2,8.6 19.4,9.4 L11.4,17.4 C11,17.8 10.5,18 10,18 Z" id="check-path" fill="#FFFFFF"></path>
                            </g>
                        </g>
                    </g>
                </g>
            </g>
        </g>
    </g>
</svg>