<?xml version="1.0" encoding="UTF-8"?>
<svg width="313px" height="229px" viewBox="0 0 313 229" version="1.1" xmlns="http://www.w3.org/2000/svg" xmlns:xlink="http://www.w3.org/1999/xlink">
    <!-- Generator: Sketch 52 (66869) - http://www.bohemiancoding.com/sketch -->
    <title>with_codeprompt</title>
    <desc>Created with Sketch.</desc>
    <defs>
        <linearGradient x1="25.7898403%" y1="92.5182164%" x2="89.6981579%" y2="-3.7934039%" id="linearGradient-1">
            <stop stop-color="#FCEFFF" offset="0%"></stop>
            <stop stop-color="#C9E7FF" offset="100%"></stop>
        </linearGradient>
        <path d="M5.04347826,8.36210533e-16 L226.956522,0 C229.741958,-5.73101875e-16 232,2.52911487 232,5.64893617 L232,171.351064 C232,174.470885 229.741958,177 226.956522,177 L5.04347826,177 C2.25804213,177 3.41117544e-16,174.470885 0,171.351064 L0,5.64893617 C-3.41117544e-16,2.52911487 2.25804213,1.40931241e-15 5.04347826,8.36210533e-16 Z" id="path-2"></path>
        <rect id="path-4" x="0" y="0.519275748" width="196.383206" height="57.9602697"></rect>
        <filter x="-2.5%" y="-10.4%" width="105.1%" height="117.3%" filterUnits="objectBoundingBox" id="filter-5">
            <feOffset dx="0" dy="-1" in="SourceAlpha" result="shadowOffsetOuter1"></feOffset>
            <feGaussianBlur stdDeviation="1.5" in="shadowOffsetOuter1" result="shadowBlurOuter1"></feGaussianBlur>
            <feColorMatrix values="0 0 0 0 1   0 0 0 0 1   0 0 0 0 1  0 0 0 0.2 0" type="matrix" in="shadowBlurOuter1"></feColorMatrix>
        </filter>
        <linearGradient x1="50%" y1="47.7642909%" x2="50%" y2="97.9532047%" id="linearGradient-6">
            <stop stop-color="#000000" stop-opacity="0" offset="0%"></stop>
            <stop stop-color="#000000" stop-opacity="0.1" offset="100%"></stop>
        </linearGradient>
        <rect id="path-7" x="0" y="0.301657759" width="196.610528" height="107.60778"></rect>
        <rect id="path-9" x="24.9576625" y="0.150828879" width="173.486191" height="7.23978621"></rect>
        <filter x="-2.9%" y="-55.3%" width="105.8%" height="238.1%" filterUnits="objectBoundingBox" id="filter-10">
            <feOffset dx="0" dy="1" in="SourceAlpha" result="shadowOffsetOuter1"></feOffset>
            <feGaussianBlur stdDeviation="1.5" in="shadowOffsetOuter1" result="shadowBlurOuter1"></feGaussianBlur>
            <feColorMatrix values="0 0 0 0 1   0 0 0 0 1   0 0 0 0 1  0 0 0 0.1 0" type="matrix" in="shadowBlurOuter1"></feColorMatrix>
        </filter>
        <filter x="-2.9%" y="-55.3%" width="105.8%" height="238.1%" filterUnits="objectBoundingBox" id="filter-11">
            <feGaussianBlur stdDeviation="1.5" in="SourceAlpha" result="shadowBlurInner1"></feGaussianBlur>
            <feOffset dx="0" dy="-1" in="shadowBlurInner1" result="shadowOffsetInner1"></feOffset>
            <feComposite in="shadowOffsetInner1" in2="SourceAlpha" operator="arithmetic" k2="-1" k3="1" result="shadowInnerInner1"></feComposite>
            <feColorMatrix values="0 0 0 0 0   0 0 0 0 0   0 0 0 0 0  0 0 0 0.1 0" type="matrix" in="shadowInnerInner1"></feColorMatrix>
        </filter>
        <rect id="path-12" x="0" y="0" width="65.046729" height="45.8888889"></rect>
        <linearGradient x1="13.5614594%" y1="-68.3679207%" x2="98.6337839%" y2="97.338838%" id="linearGradient-14">
            <stop stop-color="#CE8BA0" offset="0%"></stop>
            <stop stop-color="#875151" offset="100%"></stop>
        </linearGradient>
        <path d="M10.5813449,0.400144572 C10.032671,2.99756574 8.09484068,4.39488306 4.76785396,4.59209656 C1.44086725,4.78931005 0.0228875979,6.18662738 0.513915006,8.78404854 C9.80281445,8.78404854 15.3641171,8.78404854 17.1978231,8.78404854 C19.031529,8.78404854 19.7262553,8.00595426 19.2820019,6.4497657 L17.9063353,0.400144572 L10.5813449,0.400144572 Z" id="path-15"></path>
        <path d="M4.78124106,0.400144572 C4.03979123,1.95633313 2.96332368,3.35365046 1.5518384,4.59209656 C-0.56538952,6.4497657 0.239624232,8.78404854 1.39958269,8.78404854 C2.55954115,8.78404854 10.549129,8.78404854 13.2996878,8.78404854 C15.1333938,8.78404854 15.82812,8.00595426 15.3838667,6.4497657 L12.1062314,0.400144572 L4.78124106,0.400144572 Z" id="path-17"></path>
        <linearGradient x1="134.336457%" y1="14.6433308%" x2="6.66193047%" y2="100%" id="linearGradient-19">
            <stop stop-color="#404683" offset="0%"></stop>
            <stop stop-color="#373A5B" offset="100%"></stop>
        </linearGradient>
        <path d="M1.3660034,0.174514509 C-1.31152717,19.5906452 2.61924293,27.6166819 1.3660034,44.7060341 C1.07714747,48.6449146 1.3660034,63.6177746 1.7246782,71.1488378 C1.80216845,72.7758937 0.760716416,74.8028566 2.46668508,75.1867551 C4.17265375,75.5706537 9.22169446,75.4165533 10.3305903,75.4165533 C11.4394861,75.4165533 10.8421127,73.4022675 10.8421127,71.8302607 C10.8421127,59.9599843 12.5615633,59.2227698 12.1931601,52.9891569 C11.7271908,45.1046622 12.8839484,34.1654438 15.6634332,20.1715014 C16.5432849,27.4206371 17.8930669,34.4388771 19.712779,41.2262212 C21.2287412,46.8806084 19.8215719,54.0784704 21.1228027,65.0506372 C21.3110383,66.6378665 20.6692502,74.6840671 22.3773332,74.956957 C24.0854162,75.2298469 28.4514347,75.2298469 29.6276273,75.1867551 C30.8038198,75.1436634 30.6408196,70.2891041 31.4212062,65.0506372 C32.2015928,59.8121703 31.4212062,47.6933067 31.4212062,41.2262212 C31.4212062,36.9148309 29.4730636,23.2309287 25.5767786,0.174514509 L1.3660034,0.174514509 Z" id="path-20"></path>
        <linearGradient x1="43.4983217%" y1="90.8808934%" x2="79.0409349%" y2="0%" id="linearGradient-22">
            <stop stop-color="#5D63D3" offset="0%"></stop>
            <stop stop-color="#B986FF" offset="100%"></stop>
        </linearGradient>
        <path d="M29.7446166,1.36972586 C26.4736106,0.332997897 19.3127939,-0.618135195 11.8043048,0.755695307 C8.23029347,1.40963322 5.80283341,3.35289003 4.41298532,6.64355809 C-0.304151992,17.8120687 -1.90614063,29.9897977 5.0053986,29.9897977 C8.05914188,29.9897977 7.25462273,29.9897977 9.21298669,29.9897977 C9.09656383,36.5418152 9.04281874,39.9659008 9.05175143,40.2620546 C9.09232028,41.6070711 8.56631983,43.2116929 12.2462941,43.7893907 C15.9262683,44.3670886 26.8825501,44.3670886 30.4874278,44.0314484 C34.0923056,43.6958082 37.7037113,43.2675682 36.0172473,39.5413541 C34.892938,37.0572113 34.2245947,31.3859513 34.0122176,22.5275741 L40.8619107,26.5465148 C43.2323013,29.6914554 45.0611962,30.3914963 46.3485957,28.6466375 C47.6359951,26.9017788 46.3257977,23.0122675 42.4180035,16.9781035 L34.0122176,4.28929001 C33.3478209,3.03406589 31.9252873,2.06087784 29.7446166,1.36972586 Z" id="path-23"></path>
        <linearGradient x1="25.0928379%" y1="65.3020913%" x2="117.882934%" y2="-13.5297543%" id="linearGradient-25">
            <stop stop-color="#321847" offset="0%"></stop>
            <stop stop-color="#834A88" offset="100%"></stop>
        </linearGradient>
        <linearGradient x1="60.0821709%" y1="23.8262208%" x2="0%" y2="110.629515%" id="linearGradient-26">
            <stop stop-color="#F68585" offset="0%"></stop>
            <stop stop-color="#FF9B92" offset="100%"></stop>
        </linearGradient>
        <path d="M0.19521684,6.066071 C1.5789527,7.62648676 2.91049585,8.40669464 4.18984631,8.40669464 C5.46919677,8.40669464 6.38383136,7.62648676 6.93375007,6.066071 L6.45346023,3.05379227 L1.33904553,0.272045019 L0.19521684,6.066071 Z" id="path-27"></path>
        <linearGradient x1="9.10523164%" y1="110.865056%" x2="87.6008642%" y2="23.8262208%" id="linearGradient-29">
            <stop stop-color="#FF9292" offset="0%"></stop>
            <stop stop-color="#FFB59D" offset="100%"></stop>
        </linearGradient>
        <path d="M3.89336119,0.342895839 C5.85866507,1.08458554 10.4953594,1.33575303 11.9587116,0.342895839 C11.6795645,7.91479097 10.5097696,11.7007385 8.65406315,11.7007385 C5.87050347,11.7007385 2.82950186,10.2118601 2.12838343,7.08365375 C2.12074363,7.04956695 2.11328695,7.01577529 2.1060134,6.98227874 C2.03522165,6.99270569 1.96288322,6.99809794 1.88934013,6.99809794 C1.03926506,6.99809794 0.350143051,6.27765335 0.350143051,5.38893991 C0.350143051,4.50022647 1.03926506,3.77978188 1.88934013,3.77978188 C2.42362343,3.77978188 2.89432565,4.06437816 3.17031264,4.49647615 C3.32581998,4.57067304 3.92483987,2.16956208 3.89336119,0.342895839 Z" id="path-30"></path>
        <rect id="path-32" x="0" y="0" width="65.046729" height="45.8888889"></rect>
        <path d="M10.5734956,0.32448804 C10.8256173,0.518728849 9.6947228,1.32000756 7.18081202,2.72832416 C5.65768361,3.58159511 3.71641348,4.45566154 1.35700166,5.35052343 C-0.177776087,5.93262363 0.203607299,7.1232222 1.96632486,7.1232222 C10.4470363,7.1232222 15.4070498,7.1232222 16.8463653,7.1232222 C18.5848428,7.1232222 19.2434904,6.49224453 18.822308,5.2302892 L17.5180829,0.32448804 L10.5734956,0.32448804 Z" id="path-34"></path>
        <path d="M5.93054555,0.32448804 C4.15404164,2.24596964 2.59669783,3.70885513 1.25851412,4.71314452 C-0.748761443,6.2195786 0.58936425,7.1232222 1.68908348,7.1232222 C2.78880272,7.1232222 11.3988942,7.1232222 14.0066104,7.1232222 C15.7450879,7.1232222 16.4037355,6.49224453 15.9825532,5.2302892 L12.8751329,0.32448804 L5.93054555,0.32448804 Z" id="path-36"></path>
        <path d="M5.50315977,0.291183652 C1.26995995,8.60443289 4.07364034,23.102162 3.80454832,37.5146122 C3.58181689,49.4440099 0.823140664,63.4657353 0.626881492,66.2739708 C0.518655144,67.8225612 -0.423319982,72.7350026 1.42399416,72.9254392 C3.2713083,73.1158758 6.69208463,73.1430663 7.77433169,73.1430663 C8.85657875,73.1430663 9.50487669,67.053115 9.73635959,65.6410775 C10.0880151,63.4959915 11.551912,53.5448871 13.2946749,42.6101953 C13.997654,38.1994637 15.1678636,31.1115342 16.8053038,21.346407 C19.1775235,47.3702156 20.103666,62.9618884 19.5837313,68.1214254 C19.4306453,69.6405641 18.9314292,72.9254392 19.758067,72.9254392 C20.5847048,72.9254392 26.2142954,73.1430663 26.8341234,73.1430663 C27.4539515,73.1430663 27.2695801,69.5382886 27.856621,65.6410775 C28.0805172,64.1546892 29.2294511,55.6519175 29.2090788,41.6652505 C29.1968883,33.2958584 29.2294511,23.4496584 27.856621,10.7555411 C27.6381628,8.73552805 27.1562236,5.86738376 26.4108034,2.15110822 L5.50315977,0.291183652 Z" id="path-38"></path>
        <linearGradient x1="50%" y1="0%" x2="50%" y2="100%" id="linearGradient-40">
            <stop stop-color="#AF3053" offset="0%"></stop>
            <stop stop-color="#7A3343" offset="100%"></stop>
        </linearGradient>
        <linearGradient x1="-8.21639051%" y1="126.905762%" x2="89.8115447%" y2="0%" id="linearGradient-41">
            <stop stop-color="#FFCFAA" offset="0%"></stop>
            <stop stop-color="#FA6EB9" offset="100%"></stop>
        </linearGradient>
        <path d="M26.5993399,1.73792506 C20.6279295,0.0427604149 26.4707698,-0.0495361994 19.3594022,0.669204054 C16.4459396,0.963665393 13.4992246,2.36895454 10.5192571,4.88507148 C7.24032043,7.61123055 3.91262196,12.9367806 2.19762918,16.6568242 C0.482636398,20.3768679 -0.877442074,23.8964696 2.19762918,25.4789605 C3.08899145,26.2698377 4.99435747,24.8191462 7.91372725,21.1268861 L12.5856181,14.3346288 C13.5548536,21.1407205 14.0446161,25.7588048 14.0549056,28.1888816 C14.0700597,31.7678023 10.5192571,35.6393436 10.5192571,45.1124916 C10.8122503,45.1459403 12.2998842,37.5012983 12.5856181,37.5322966 C12.9377608,37.5704994 12.2443095,45.0779251 12.5856181,45.1124916 C19.5625805,45.8190942 21.1430281,49.8029855 26.5993399,49.0963829 C27.0079892,49.0434621 27.6212196,46.0131678 28.4390311,40.0055001 C29.3336498,46.115113 30.041659,49.1454073 30.5630587,49.0963829 C32.7065006,48.894847 34.3331572,47.0986628 35.9069495,47.0986628 C36.2299848,47.0986628 35.1076973,40.3741682 34.6551636,36.9309075 C34.4599511,35.4455656 33.8235243,31.1411385 33.8235243,25.1999134 C33.8235243,22.88268 34.1007374,20.3353044 34.6551636,17.5577867 C38.7030593,21.9009527 41.7647982,24.1156049 43.8403801,24.2017433 C45.915962,24.2878817 47.4437273,23.7473829 48.423676,22.5802469 C37.8550589,9.81547544 30.5802802,2.86803482 26.5993399,1.73792506 Z" id="path-42"></path>
        <path d="M0.178972873,5.88199195 C1.55149815,8.68117683 5.13352761,9.52234927 5.9031491,9.52234927 C6.41623009,9.52234927 6.58723584,8.54340079 6.41616633,6.58550384 L6.58165199,2.94607086 L1.3492003,0.234837563 C1.56904311,3.85844987 1.1789673,5.74083467 0.178972873,5.88199195 Z" id="path-44"></path>
        <path d="M10.8970123,0.334203841 C11.6767555,2.36477197 12.0176336,3.79979928 11.9196467,4.63928578 C11.3932395,9.14918784 10.5313752,13.1111111 8.48061532,13.1111111 C5.6328131,13.1111111 2.89480472,9.95300175 2.17750498,6.90409163 C2.16968886,6.8708689 2.16206008,6.83793381 2.15461866,6.80528636 C2.08219309,6.815449 2.00818515,6.82070456 1.93294473,6.82070456 C1.06325054,6.82070456 0.358224099,6.11852238 0.358224099,5.25233676 C0.358224099,4.38615113 1.06325054,3.68396895 1.93294473,3.68396895 C2.47955891,3.68396895 2.9611246,3.96135106 3.24348117,4.38249588 C3.4025775,4.45481197 8.87986821,4.67109134 10.8970123,0.334203841 Z" id="path-46"></path>
        <linearGradient x1="50%" y1="0%" x2="50%" y2="100%" id="linearGradient-48">
            <stop stop-color="#A3EDED" offset="0%"></stop>
            <stop stop-color="#9FCFFF" offset="100%"></stop>
        </linearGradient>
        <linearGradient x1="9.10523164%" y1="110.865056%" x2="71.9003911%" y2="24.892819%" id="linearGradient-49">
            <stop stop-color="#FF9292" offset="0%"></stop>
            <stop stop-color="#FFB59D" offset="100%"></stop>
        </linearGradient>
        <path d="M0.291976048,5.70799317 C0.104972601,3.69070349 1.68711964,2.08098131 5.03841716,0.878826618 L18.0735849,2.3924597 C18.0717131,2.37899959 18.0697947,2.36560895 18.0678271,2.35228697 C19.4413121,1.169892 20.5154744,0.578694517 21.2903141,0.578694517 L20.9847383,2.02199047 C22.8928378,1.94577441 24.2898371,1.46467577 25.1757361,0.578694517 C26.5045847,-0.750277356 25.8470961,2.22213729 24.9860011,2.68205865 C24.1249061,3.14198001 24.5006663,5.78897107 22.4349129,6.20484286 C21.0577439,6.48209072 17.3953545,6.02410281 17.4155252,5.93365359 C5.42235901,6.77762259 1.88604404,7.07932071 0.291976048,5.70799317 Z" id="path-50"></path>
        <linearGradient x1="84.8730605%" y1="26.0032028%" x2="13.4080176%" y2="100%" id="linearGradient-52">
            <stop stop-color="#E6AAFF" offset="0%"></stop>
            <stop stop-color="#ED3434" offset="100%"></stop>
        </linearGradient>
        <linearGradient x1="21.5188281%" y1="92.5918865%" x2="70.4057443%" y2="-8.05897386%" id="linearGradient-53">
            <stop stop-color="#39ABC5" offset="0%"></stop>
            <stop stop-color="#A8EB9D" offset="100%"></stop>
        </linearGradient>
        <path d="M61.0990017,1.94511506 C54.2755785,-0.250877182 40.1513305,-0.964926175 24.4883819,1.94511506 C17.0328799,3.33028324 11.155676,6.14584396 8.25640841,13.1161214 C5.37349349,20.0470846 1.6359872,27.7630324 0.151828372,34.3585416 C7.02601028,37.587194 13.4215512,39.5460547 19.3384512,40.2351236 L19.3384512,62.4622509 C19.8297328,73.44944 19.4733707,82.2700929 18.2693648,88.9242094 C16.3126957,99.7380308 15.461896,107.421119 15.4734084,107.808687 C15.5580364,110.657694 16.9203971,109.699205 24.596941,110.922882 C32.273485,112.146559 54.7478616,108.519638 62.2677519,107.808687 C67.2810121,107.334719 73.1032589,107.334719 79.7344923,107.808687 L69.9781614,36.3576786 L81.6819463,26.0334255 L70.0013538,8.12932195 C68.6154012,5.47051218 65.6479505,3.40910989 61.0990017,1.94511506 Z" id="path-54"></path>
        <linearGradient x1="24.2424206%" y1="93.5834549%" x2="117.882934%" y2="-13.5297543%" id="linearGradient-56">
            <stop stop-color="#FFA77B" offset="0%"></stop>
            <stop stop-color="#FFE6CA" offset="100%"></stop>
        </linearGradient>
        <path d="M0.435423677,12.9591244 C6.52289954,18.2786353 10.6827452,20.9383908 12.9149606,20.9383908 C15.147176,20.9383908 15.9973437,18.2786353 15.4654637,12.9591244 L14.3941956,6.5239055 L2.98668971,0.58117771 L0.435423677,12.9591244 Z" id="path-57"></path>
        <path d="M23.085372,0.0619821073 C24.7853257,4.51276605 25.5284896,7.65818947 25.3148637,9.49825235 C24.1672196,19.383466 21.8664996,24.3260728 18.630856,24.3260728 C12.4222328,24.3260728 5.63939534,21.1453384 4.07557756,14.4624598 C4.05853727,14.3896392 4.04190544,14.3174491 4.02568206,14.2458895 C3.86778377,14.2681649 3.70643569,14.2796845 3.54240064,14.2796845 C1.64634078,14.2796845 0.109280572,12.7405777 0.109280572,10.8419932 C0.109280572,8.9434088 1.64634078,7.40430201 3.54240064,7.40430201 C4.73409906,7.40430201 5.78398232,8.01229335 6.39956072,8.93539689 C6.74641387,9.09390585 18.6877044,9.56796665 23.085372,0.0619821073 Z" id="path-59"></path>
        <path d="M21.2380952,55.1592584 C17.4326308,55.7096789 10.3601675,53.4856057 0.0207053326,48.4870387 L0.0207053326,33.6686178 L11.2945366,26.3384771 L17.7154095,34.6319779 L34.5842553,14.6457486 C35.907719,11.6295222 36.7702416,8.8793925 38.0971755,7.30298203 C40.2200521,4.78098405 38.1024165,0.642449649 40.4364478,0.642449649 C40.8834752,0.642449649 42.3539076,1.64461833 42.5844093,2.85966461 C42.7666591,3.82035997 42.7666591,4.94585601 42.5844093,6.23615272 C45.7045386,6.53879912 47.6335492,7.13344293 48.371441,8.02008415 C49.529477,9.411565 49.0437752,15.0299514 48.371441,16.8785921 C47.4334563,19.4576621 46.2047336,19.4576621 43.5665103,20.2652204 C42.9187804,20.4634901 42.0096555,20.910963 40.8391357,21.607639 C31.550573,43.4288294 25.0168964,54.6126944 21.2380952,55.1592584 Z" id="path-61"></path>
        <path d="M3.98732303,31.3472357 C0.352251816,28.2210663 -1.41453046,19.7567652 1.63100817,6.31669867 C7.97610538,9.09321168 13.7555346,10.7316552 18.9692957,11.2320292 L15.9328595,17.5846423 L48.9001552,23.4479986 C48.8959785,23.4179736 48.891698,23.3881035 48.8873075,23.3583865 C51.9520509,20.7208529 54.3488969,19.402086 56.0778455,19.402086 L55.3959949,22.6216038 C59.6536573,22.4515909 62.7708697,21.3784183 64.7476319,19.402086 C67.7127753,16.4375876 66.2456796,23.0680655 64.3242642,24.0939985 C62.4028489,25.1199316 63.2413061,31.0244966 58.6318606,31.9521696 C55.5588968,32.5706182 48.0564784,32.4693963 48.1014866,32.2676339 C21.3403806,34.1502507 7.54426719,34.4062157 3.98732303,31.3472357 Z" id="path-63"></path>
    </defs>
    <g id="Adwords-Page" stroke="none" stroke-width="1" fill="none" fill-rule="evenodd">
        <g id="Home" transform="translate(-927.000000, -995.000000)">
            <g id="How-it-works/?" transform="translate(104.000000, 677.000000)">
                <g id="Events-Card-Copy-2" transform="translate(742.000000, 242.000000)">
                    <g id="with_codeprompt" transform="translate(81.000000, 76.000000)">
                        <g id="Desktop-browser">
                            <mask id="mask-3" fill="white">
                                <use xlink:href="#path-2"></use>
                            </mask>
                            <use id="Path" fill="url(#linearGradient-1)" fill-rule="nonzero" xlink:href="#path-2"></use>
                            <g id="Group-7" mask="url(#mask-3)">
                                <g transform="translate(-2.168224, 12.382716)">
                                    <g id="Group-6" stroke-width="1" fill="none" fill-rule="evenodd">
                                        <g id="Left-Bar" transform="translate(0.297032, 0.371592)">
                                            <rect id="Sidebar-bg" fill="#2F3545" x="0" y="6.6384821" width="37.4189682" height="158.720072"></rect>
                                            <g id="File-Top">
                                                <rect id="Rectangle-29" fill="#272C39" x="0" y="-6.21724894e-15" width="37.7846036" height="7.24198047"></rect>
                                                <g id="Group-3" transform="translate(22.118095, 2.564868)">
                                                    <g id="Plus">
                                                        <g id="plus_x5F_alt"></g>
                                                    </g>
                                                </g>
                                                <g id="Group-3" transform="translate(27.723365, 4.827987)">
                                                    <g id="Group-5"></g>
                                                </g>
                                            </g>
                                        </g>
                                        <g id="Preview-Window" transform="translate(37.716000, 107.242479)">
                                            <g id="Console">
                                                <use fill="black" fill-opacity="1" filter="url(#filter-5)" xlink:href="#path-4"></use>
                                                <use fill="#282D3A" fill-rule="evenodd" xlink:href="#path-4"></use>
                                            </g>
                                            <rect id="Shadow" fill="url(#linearGradient-6)" x="5.68434189e-14" y="7.10542736e-15" width="196.383206" height="7.00961845"></rect>
                                        </g>
                                        <g id="Library" transform="translate(0.297032, 157.926709)">
                                            <g id="File-Top">
                                                <rect id="Rectangle-29" fill="#272C39" x="0" y="0" width="37.5729295" height="7.24503372"></rect>
                                                <g id="Group-2" transform="translate(8.670676, 2.113135)">
                                                    <g id="Group-3" transform="translate(16.428649, 0.452815)">
                                                        <g id="Plus">
                                                            <g id="plus_x5F_alt"></g>
                                                        </g>
                                                    </g>
                                                    <g id="Library,-Books,-Read,-Study,-Peace">
                                                        <g id="Group">
                                                            <polygon id="Shape" points="0 0 2.73810822 0 2.73810822 2.71688764 0 2.71688764"></polygon>
                                                        </g>
                                                    </g>
                                                </g>
                                                <g id="Group-3" transform="translate(27.837434, 4.830022)">
                                                    <g id="Group-5"></g>
                                                </g>
                                            </g>
                                        </g>
                                        <g id="Code-Window" transform="translate(37.716000, 0.000000)">
                                            <mask id="mask-8" fill="white">
                                                <use xlink:href="#path-7"></use>
                                            </mask>
                                            <use id="Content" fill="#485061" xlink:href="#path-7"></use>
                                            <g id="Tabs-bg" mask="url(#mask-8)">
                                                <use fill="black" fill-opacity="1" filter="url(#filter-10)" xlink:href="#path-9"></use>
                                                <use fill="#272C39" fill-rule="evenodd" xlink:href="#path-9"></use>
                                                <use fill="black" fill-opacity="1" filter="url(#filter-11)" xlink:href="#path-9"></use>
                                            </g>
                                            <g id="Group-3" mask="url(#mask-8)">
                                                <g transform="translate(51.893676, 2.564091)" id="Plus">
                                                    <g>
                                                        <g id="plus_x5F_alt"></g>
                                                    </g>
                                                </g>
                                            </g>
                                            <rect id="Separator" fill="#2F3545" mask="url(#mask-8)" x="49.915325" y="0.150828879" width="1" height="7.23978621"></rect>
                                            <rect id="Separator-Copy" fill="#2F3545" mask="url(#mask-8)" x="56.6112833" y="0.150828879" width="1" height="7.23978621"></rect>
                                        </g>
                                    </g>
                                    <g id="Rendi-pose-2" stroke-width="1" fill="none" fill-rule="evenodd" transform="translate(164.785047, 11.654321)">
                                        <mask id="mask-13" fill="white">
                                            <use xlink:href="#path-12"></use>
                                        </mask>
                                        <use id="Mask" fill="#FFFFFF" xlink:href="#path-12"></use>
                                        <g mask="url(#mask-13)">
                                            <g transform="translate(9.808634, 5.736111)">
                                                <g id="Shoes" transform="translate(7.743658, 131.409091)">
                                                    <g id="Path-24" transform="translate(22.707731, 0.000000)">
                                                        <mask id="mask-16" fill="white">
                                                            <use xlink:href="#path-15"></use>
                                                        </mask>
                                                        <use id="Path-23" fill="url(#linearGradient-14)" fill-rule="nonzero" transform="translate(9.915575, 4.592097) scale(-1, 1) translate(-9.915575, -4.592097) " xlink:href="#path-15"></use>
                                                        <rect id="Rectangle" fill="#373A5B" fill-rule="nonzero" opacity="0.200000003" mask="url(#mask-16)" x="0.419189879" y="5.81204532" width="18.9927711" height="2.98338349"></rect>
                                                    </g>
                                                    <g id="Path-23-Copy-2">
                                                        <mask id="mask-18" fill="white">
                                                            <use xlink:href="#path-17"></use>
                                                        </mask>
                                                        <use id="Path-23-Copy" fill="url(#linearGradient-14)" fill-rule="nonzero" transform="translate(7.874351, 4.592097) scale(-1, 1) translate(-7.874351, -4.592097) " xlink:href="#path-17"></use>
                                                        <rect id="Rectangle" fill="#373A5B" fill-rule="nonzero" opacity="0.200000003" mask="url(#mask-18)" x="0.234876242" y="5.81204532" width="15.2789495" height="2.98338349"></rect>
                                                    </g>
                                                </g>
                                                <g id="Pants" transform="translate(10.324878, 57.882576)">
                                                    <mask id="mask-21" fill="white">
                                                        <use xlink:href="#path-20"></use>
                                                    </mask>
                                                    <use id="Path-14" fill="url(#linearGradient-19)" fill-rule="nonzero" xlink:href="#path-20"></use>
                                                    <path d="M25.737063,0.174514509 C25.5160664,4.3748108 22.3441389,6.47495895 16.2212805,6.47495895 C7.03699304,6.47495895 14.8897591,17.2079196 5.50774425,19.690517 C-3.87427057,22.1731145 1.57496331,34.2526468 -4.12886233,34.2526468 C-7.93141276,34.2526468 -6.29321544,23.1247316 0.785729641,0.868901195 L25.737063,0.174514509 Z" id="Path-16" fill="#151731" fill-rule="nonzero" opacity="0.300000012" mask="url(#mask-21)"></path>
                                                    <path d="M16.6244492,22.1381742 L21.1121884,11.1234117 C22.001781,13.993621 21.9819271,17.177156 21.0526268,20.6740168 C19.6586764,25.9193079 23.7268899,30.5732868 20.9679368,34.2539251 C18.2089837,37.9345634 23.6212677,47.5096318 17.9559575,53.1082506 C14.179084,56.8406631 13.3504919,56.5409807 15.4701811,52.2092033 L16.6244492,22.1381742 Z" id="Path-17" fill="#151731" fill-rule="nonzero" opacity="0.300000012" mask="url(#mask-21)" transform="translate(18.139450, 33.411458) rotate(-8.000000) translate(-18.139450, -33.411458) "></path>
                                                </g>
                                                <g id="Shirt" transform="translate(0.000000, 16.686869)">
                                                    <mask id="mask-24" fill="white">
                                                        <use xlink:href="#path-23"></use>
                                                    </mask>
                                                    <use id="Path" fill="url(#linearGradient-22)" fill-rule="nonzero" xlink:href="#path-23"></use>
                                                    <path d="M10.2315226,17.9405212 L10.3425937,17.4864939 C24.0047114,17.8857927 31.5834139,17.3297961 34.7234175,15.8228726 C34.8365327,15.7685873 34.9725885,15.8155531 35.0273066,15.9277736 C35.0820247,16.0399941 35.0346845,16.1749737 34.9215692,16.229259 C31.6764442,17.7866316 24.0708591,18.3507417 10.2315226,17.9405212 Z" id="Path-12" fill="#FFFFFF" fill-rule="nonzero" opacity="0.5" mask="url(#mask-24)"></path>
                                                    <ellipse id="Oval" fill="#FFFFFF" fill-rule="nonzero" opacity="0.200000003" mask="url(#mask-24)" cx="33.3185453" cy="18.9123043" rx="1" ry="1"></ellipse>
                                                    <ellipse id="Oval-Copy" fill="#FFFFFF" fill-rule="nonzero" opacity="0.200000003" mask="url(#mask-24)" cx="28.1993876" cy="19.8151783" rx="1" ry="1"></ellipse>
                                                    <ellipse id="Oval-Copy-4" fill="#FFFFFF" fill-rule="nonzero" opacity="0.200000003" mask="url(#mask-24)" cx="23.08023" cy="20.0507374" rx="1" ry="1"></ellipse>
                                                    <ellipse id="Oval-Copy-2" fill="#FFFFFF" fill-rule="nonzero" opacity="0.200000003" mask="url(#mask-24)" cx="17.9496075" cy="20.0283189" rx="1" ry="1"></ellipse>
                                                    <ellipse id="Oval-Copy-3" fill="#FFFFFF" fill-rule="nonzero" opacity="0.200000003" mask="url(#mask-24)" cx="12.8768074" cy="19.8904111" rx="1" ry="1"></ellipse>
                                                    <path d="M9.21298669,22.1583359 C22.9694513,22.5660999 31.5720123,21.8496381 34.7234175,20.3372427 C34.8365327,20.2829575 34.9725885,20.3299232 35.0273066,20.4421437 C35.0820247,20.5543643 35.0346845,20.6893439 34.9215692,20.7436292 C31.8163493,22.2338597 24.3016148,22.8759989 11.4980738,22.5638872 C9.8909499,22.2910377 9.1292542,22.155854 9.21298669,22.1583359 Z" id="Path-12-Copy" fill="#FFFFFF" fill-rule="nonzero" opacity="0.5" mask="url(#mask-24)"></path>
                                                    <path d="M34.0039652,22.5297224 C34.0141652,17.5354845 33.5782195,13.5139503 32.6961279,10.4651198 C34.2853738,11.395544 35.2016983,13.4063111 35.4451014,16.4974211 C35.810206,21.134086 38.1621094,16.6806087 39.668377,21.8820157 C41.1746445,27.0834227 44.9774331,23.6752171 45.8681877,25.0669028 C46.4620241,25.9946932 44.8975097,27.3776458 41.1746445,29.2157604 L34.0039652,22.5297224 Z" id="Path-6" fill="#373A5B" fill-rule="nonzero" opacity="0.300000012" mask="url(#mask-24)"></path>
                                                    <path d="M10.0787494,0.266891425 C10.0800614,2.75478456 12.3544176,3.99873113 16.901818,3.99873113 C21.4492184,3.99873113 23.7571126,1.59489791 23.8255008,-3.21276853 L10.0787494,0.266891425 Z" id="Path-7" fill="#373A5B" fill-rule="nonzero" opacity="0.300000012" mask="url(#mask-24)"></path>
                                                    <path d="M4.31413901,40.301361 C5.09839431,38.4310751 6.63732725,37.0502133 8.93093781,36.1587757 L8.64717974,39.380225 L5.26440016,40.8027531 L4.31413901,40.301361 Z" id="Path-13" fill="#373A5B" fill-rule="nonzero" opacity="0.300000012" mask="url(#mask-24)"></path>
                                                    <path d="M9.21298669,30.0485149 C15.4832301,29.9178253 20.2023894,29.757034 23.3704645,29.5661408 C26.5385397,29.3752477 28.5031846,29.1333048 29.2643992,28.8403122 C24.970904,30.3438602 22.0740764,31.0956342 20.5739165,31.0956342 C18.3236766,31.0956342 18.3915693,29.474744 15.9262683,32.8380677 C13.4609673,36.2013913 11.5038279,31.9135721 9.21298669,38.2726199 C7.68575919,42.5119852 7.68575919,39.7706168 9.21298669,30.0485149 Z" id="Path-47" fill="#373A5B" fill-rule="nonzero" opacity="0.300000012" mask="url(#mask-24)"></path>
                                                    <path d="M23.6618843,24.5023713 L9.21298669,22.1874434 L11.8071735,11.2884461 C13.1831559,12.8317313 13.3221105,15.0340522 12.2240374,17.8954087 C10.5769276,22.1874434 14.9143602,18.1982652 16.4374355,21.0016619 C17.452819,22.870593 19.8609686,24.0374961 23.6618843,24.5023713 Z" id="Path-48" fill="#373A5B" fill-rule="nonzero" opacity="0.300000012" mask="url(#mask-24)"></path>
                                                </g>
                                                <g id="Head" transform="translate(13.938585, 0.000000)">
                                                    <path d="M2.47522176,3.51823695 C2.47593161,1.24978604 3.67054128,0.224954627 6.05905076,0.443742727 C7.55829554,0.581073946 12.2784727,-0.504347842 13.7875182,1.01329636 C15.2965636,2.53094056 14.1496009,7.58050698 12.0220071,9.06286501 C9.89441338,10.545223 9.5854176,8.72466848 7.30247641,8.06785042 C5.78051562,7.62997171 4.50059976,9.55673962 3.46272884,13.8481541 C2.63253643,13.7380694 2.11524363,13.4464587 1.91085045,12.9733222 C-0.167322368,8.16269441 -0.047984876,4.09190476 1.20795986,3.51823695 C1.42247647,3.42025392 1.8448971,3.42025392 2.47522176,3.51823695 Z" id="Path-2" fill="url(#linearGradient-25)" fill-rule="nonzero"></path>
                                                    <g id="Path-8" transform="translate(1.715634, 11.210088)">
                                                        <mask id="mask-28" fill="white">
                                                            <use xlink:href="#path-27"></use>
                                                        </mask>
                                                        <use id="Path-3" fill="url(#linearGradient-26)" fill-rule="nonzero" xlink:href="#path-27"></use>
                                                        <path d="M1.22313434,0.388449837 C1.84313621,4.41569021 3.47380356,6.58975681 6.11513641,6.91064963 C8.75646925,7.23154245 9.97525131,6.35571028 9.77148259,4.28315313 L1.22313434,0.388449837 Z" id="Path-9" fill="#DA433D" fill-rule="nonzero" opacity="0.200000003" mask="url(#mask-28)"></path>
                                                    </g>
                                                    <g id="Group" transform="translate(0.857817, 4.484035)">
                                                        <mask id="mask-31" fill="white">
                                                            <use xlink:href="#path-30"></use>
                                                        </mask>
                                                        <use id="Path" fill="url(#linearGradient-29)" fill-rule="nonzero" xlink:href="#path-30"></use>
                                                        <path d="M11.9587116,0.342895839 C10.2661987,1.87779442 8.63029059,2.47572068 7.05098735,2.13667462 C4.68203248,1.62810552 5.19439223,5.37220585 3.22454859,4.39193051 L4.02409449,-0.513498129 L11.9587116,0.342895839 Z" id="Path-11" fill="#DA433D" fill-rule="nonzero" opacity="0.200000003" mask="url(#mask-31)"></path>
                                                    </g>
                                                </g>
                                                <g id="Hands" transform="translate(23.230975, 40.674242)">
                                                    <g id="Group-2" transform="translate(0.000000, 0.087589)" fill="url(#linearGradient-29)" fill-rule="nonzero">
                                                        <path d="M0.159645305,6.82461505 C0.604119457,4.88154113 0.747988388,3.36706695 0.591252098,2.2811925 C2.02000968,1.02262134 3.13739913,0.393335757 3.94342044,0.393335757 L3.62554742,1.92961653 C5.61043386,1.84849023 7.06365205,1.33639664 7.98520199,0.393335757 C9.3675269,-1.02125557 8.68357921,2.14265788 7.78783152,2.63220983 C6.89208384,3.12176178 7.28296558,5.93928612 5.1340808,6.38195059 C3.70149095,6.67706023 2.04334578,6.82461505 0.159645305,6.82461505 Z" id="Path-46"></path>
                                                    </g>
                                                </g>
                                            </g>
                                        </g>
                                    </g>
                                    <g id="Dini-pose-2" stroke-width="1" fill="none" fill-rule="evenodd" transform="translate(164.785047, 57.543210)">
                                        <mask id="mask-33" fill="white">
                                            <use xlink:href="#path-32"></use>
                                        </mask>
                                        <use id="Mask" fill="#FFFFFF" xlink:href="#path-32"></use>
                                        <g id="Linda-pose-2" mask="url(#mask-33)">
                                            <g transform="translate(36.933022, 72.827160) scale(-1, 1) translate(-36.933022, -72.827160) translate(12.433022, 5.827160)">
                                                <g id="Shoes" transform="translate(4.336449, 125.283951)">
                                                    <g id="Path-24" transform="translate(21.097899, 0.000000)">
                                                        <mask id="mask-35" fill="white">
                                                            <use xlink:href="#path-34"></use>
                                                        </mask>
                                                        <use id="Path-23" fill="url(#linearGradient-19)" fill-rule="nonzero" transform="translate(9.671469, 3.723855) scale(-1, 1) translate(-9.671469, -3.723855) " xlink:href="#path-34"></use>
                                                        <path d="M-0.665552797,4.14479685 C8.64772741,5.21412291 13.5727291,4.26099164 14.1094524,1.28540305 C14.6461756,-1.69018554 9.94302479,-2.40381387 2.33146835e-15,-0.855481932 L-0.665552797,4.14479685 Z" id="Path-58" fill="url(#linearGradient-29)" fill-rule="nonzero" mask="url(#mask-35)"></path>
                                                    </g>
                                                    <g id="Path-23-Copy-2">
                                                        <mask id="mask-37" fill="white">
                                                            <use xlink:href="#path-36"></use>
                                                        </mask>
                                                        <use id="Path-23-Copy" fill="url(#linearGradient-19)" fill-rule="nonzero" transform="translate(8.164221, 3.723855) scale(-1, 1) translate(-8.164221, -3.723855) " xlink:href="#path-36"></use>
                                                        <path d="M1.3708864,2.7705922 C6.6855269,4.21358782 10.7780784,4.05240727 13.6485408,2.28705053 C16.5190032,0.5216938 12.6871052,-0.645520047 2.15284682,-1.21459101 L1.3708864,2.7705922 Z" id="Path-59" fill="url(#linearGradient-29)" fill-rule="nonzero" mask="url(#mask-37)"></path>
                                                    </g>
                                                </g>
                                                <g id="Pants" transform="translate(7.227414, 53.172840)">
                                                    <mask id="mask-39" fill="white">
                                                        <use xlink:href="#path-38"></use>
                                                    </mask>
                                                    <use id="Path-14" fill="url(#linearGradient-19)" fill-rule="nonzero" xlink:href="#path-38"></use>
                                                    <path d="M32.1151929,4.09354204 C30.3394284,11.4218625 26.4636886,15.0860227 20.4879737,15.0860227 C11.5244012,15.0860227 18.8929076,19.8628325 9.73635959,22.2139413 C0.579811534,24.5650501 6.1936339,41.392489 0.626881492,41.392489 C-3.08428678,41.392489 -2.02506451,27.1786894 3.80454832,-1.24890975 L32.1151929,4.09354204 Z" id="Path-16" fill="#151731" fill-rule="nonzero" opacity="0.300000012" mask="url(#mask-39)"></path>
                                                    <path d="M16.7863393,21.1346674 L20.135918,10.3253195 C21.6604884,13.3155959 21.9803195,16.4652074 21.0954114,19.7741538 C19.7680493,24.7375735 23.7633212,29.1742438 21.0954114,32.6460858 C18.4275017,36.1179279 23.7633212,45.2276277 18.273047,50.4995697 C15.9715997,52.7094951 17.8417751,48.3883965 18.0426729,40.0793384 C18.121744,36.808987 17.7029661,30.4940966 16.7863393,21.1346674 Z" id="Path-17" fill="#151731" fill-rule="nonzero" opacity="0.300000012" mask="url(#mask-39)"></path>
                                                </g>
                                                <g id="Hair" transform="translate(0.722741, 0.000000)">
                                                    <path d="M25.5497592,0.434094027 C33.5590764,2.36805758 31.7722117,10.4142026 29.6677004,19.1001372 C27.5631891,27.7860717 22.443997,44.1629875 11.6771354,42.8467851 C0.910273784,41.5305828 -2.09173281,34.7262837 1.80707855,26.993314 C5.70588992,19.2603444 13.4714883,19.1001372 14.3851603,12.6166647 C15.2988323,6.13319218 17.540442,-1.49986953 25.5497592,0.434094027 Z" id="Path-54" fill="url(#linearGradient-40)" fill-rule="nonzero"></path>
                                                </g>
                                                <g id="Shirt" transform="translate(0.000000, 17.481481)">
                                                    <mask id="mask-43" fill="white">
                                                        <use xlink:href="#path-42"></use>
                                                    </mask>
                                                    <use id="Path" fill="url(#linearGradient-41)" fill-rule="nonzero" xlink:href="#path-42"></use>
                                                    <path d="M12.5714141,26.7759421 C18.4401867,26.6501612 22.8571879,26.4954091 25.8224178,26.3116858 C28.7876476,26.1279625 30.6265003,25.8951069 31.3389759,25.6131189 C27.3203844,27.0601944 24.6090347,27.7837322 23.2049269,27.7837322 C21.0987653,27.7837322 21.162311,26.2237218 18.8548581,29.4607207 C16.5474053,32.6977195 14.7155775,28.5709487 12.5714141,34.6911538 C11.1419719,38.7712906 11.1419719,36.1328867 12.5714141,26.7759421 Z" id="Path-47" fill="#373A5B" fill-rule="nonzero" opacity="0.300000012" mask="url(#mask-43)"></path>
                                                    <path d="M23.4245661,22.7067247 C24.6184744,23.2972499 24.0575972,23.5925125 21.7419343,23.5925125 C19.4262714,23.5925125 15.7708943,23.2972499 10.775803,22.7067247 L11.2675179,16.7341317 L15.1415169,9.97179339 C15.6714638,11.7261336 15.4225543,13.9802463 14.3947885,16.7341317 C12.8531398,20.8649597 17.271925,17.2880357 18.6974809,19.9861382 C19.6478515,21.7848732 21.2235466,22.6917354 23.4245661,22.7067247 Z" id="Path-48" fill="#373A5B" fill-rule="nonzero" opacity="0.300000012" mask="url(#mask-43)"></path>
                                                    <ellipse id="Oval" fill="#FFFFFF" fill-rule="nonzero" opacity="0.300000012" mask="url(#mask-43)" cx="9.79572764" cy="8.25514403" rx="1.2777036" ry="1.30344379"></ellipse>
                                                    <ellipse id="Oval-Copy-5" fill="#FFFFFF" fill-rule="nonzero" opacity="0.300000012" mask="url(#mask-43)" cx="18.3137517" cy="8.25514403" rx="1.2777036" ry="1.30344379"></ellipse>
                                                    <ellipse id="Oval-Copy-6" fill="#FFFFFF" fill-rule="nonzero" opacity="0.300000012" mask="url(#mask-43)" cx="26.8317757" cy="8.25514403" rx="1.2777036" ry="1.30344379"></ellipse>
                                                    <ellipse id="Oval-Copy-7" fill="#FFFFFF" fill-rule="nonzero" opacity="0.300000012" mask="url(#mask-43)" cx="35.3497997" cy="8.25514403" rx="1.2777036" ry="1.30344379"></ellipse>
                                                    <ellipse id="Oval-Copy-52" fill="#FFFFFF" fill-rule="nonzero" opacity="0.300000012" mask="url(#mask-43)" cx="14.0547397" cy="3.91033138" rx="1.2777036" ry="1.30344379"></ellipse>
                                                    <ellipse id="Oval-Copy-51" fill="#FFFFFF" fill-rule="nonzero" opacity="0.300000012" mask="url(#mask-43)" cx="22.5727637" cy="3.91033138" rx="1.2777036" ry="1.30344379"></ellipse>
                                                    <ellipse id="Oval-Copy-50" fill="#FFFFFF" fill-rule="nonzero" opacity="0.300000012" mask="url(#mask-43)" cx="31.0907877" cy="3.91033138" rx="1.2777036" ry="1.30344379"></ellipse>
                                                    <ellipse id="Oval-Copy-49" fill="#FFFFFF" fill-rule="nonzero" opacity="0.300000012" mask="url(#mask-43)" cx="39.6088117" cy="3.91033138" rx="1.2777036" ry="1.30344379"></ellipse>
                                                    <ellipse id="Oval-Copy-8" fill="#FFFFFF" fill-rule="nonzero" opacity="0.300000012" mask="url(#mask-43)" cx="43.8678238" cy="8.25514403" rx="1.2777036" ry="1.30344379"></ellipse>
                                                    <ellipse id="Oval-Copy-13" fill="#FFFFFF" fill-rule="nonzero" opacity="0.300000012" mask="url(#mask-43)" cx="5.53671562" cy="12.5999567" rx="1.2777036" ry="1.30344379"></ellipse>
                                                    <ellipse id="Oval-Copy-12" fill="#FFFFFF" fill-rule="nonzero" opacity="0.300000012" mask="url(#mask-43)" cx="14.0547397" cy="12.5999567" rx="1.2777036" ry="1.30344379"></ellipse>
                                                    <ellipse id="Oval-Copy-11" fill="#FFFFFF" fill-rule="nonzero" opacity="0.300000012" mask="url(#mask-43)" cx="22.5727637" cy="12.5999567" rx="1.2777036" ry="1.30344379"></ellipse>
                                                    <ellipse id="Oval-Copy-10" fill="#FFFFFF" fill-rule="nonzero" opacity="0.300000012" mask="url(#mask-43)" cx="31.0907877" cy="12.5999567" rx="1.2777036" ry="1.30344379"></ellipse>
                                                    <ellipse id="Oval-Copy-9" fill="#FFFFFF" fill-rule="nonzero" opacity="0.300000012" mask="url(#mask-43)" cx="39.6088117" cy="12.5999567" rx="1.2777036" ry="1.30344379"></ellipse>
                                                    <ellipse id="Oval-Copy-18" fill="#FFFFFF" fill-rule="nonzero" opacity="0.300000012" mask="url(#mask-43)" cx="1.2777036" cy="16.9447693" rx="1.2777036" ry="1.30344379"></ellipse>
                                                    <ellipse id="Oval-Copy-17" fill="#FFFFFF" fill-rule="nonzero" opacity="0.300000012" mask="url(#mask-43)" cx="9.79572764" cy="16.9447693" rx="1.2777036" ry="1.30344379"></ellipse>
                                                    <ellipse id="Oval-Copy-16" fill="#FFFFFF" fill-rule="nonzero" opacity="0.300000012" mask="url(#mask-43)" cx="18.3137517" cy="16.9447693" rx="1.2777036" ry="1.30344379"></ellipse>
                                                    <ellipse id="Oval-Copy-15" fill="#FFFFFF" fill-rule="nonzero" opacity="0.300000012" mask="url(#mask-43)" cx="26.8317757" cy="16.9447693" rx="1.2777036" ry="1.30344379"></ellipse>
                                                    <ellipse id="Oval-Copy-14" fill="#FFFFFF" fill-rule="nonzero" opacity="0.300000012" mask="url(#mask-43)" cx="35.3497997" cy="16.9447693" rx="1.2777036" ry="1.30344379"></ellipse>
                                                    <ellipse id="Oval-Copy-23" fill="#FFFFFF" fill-rule="nonzero" opacity="0.300000012" mask="url(#mask-43)" cx="5.53671562" cy="21.289582" rx="1.2777036" ry="1.30344379"></ellipse>
                                                    <ellipse id="Oval-Copy-22" fill="#FFFFFF" fill-rule="nonzero" opacity="0.300000012" mask="url(#mask-43)" cx="14.0547397" cy="21.289582" rx="1.2777036" ry="1.30344379"></ellipse>
                                                    <ellipse id="Oval-Copy-21" fill="#FFFFFF" fill-rule="nonzero" opacity="0.300000012" mask="url(#mask-43)" cx="22.5727637" cy="21.289582" rx="1.2777036" ry="1.30344379"></ellipse>
                                                    <ellipse id="Oval-Copy-20" fill="#FFFFFF" fill-rule="nonzero" opacity="0.300000012" mask="url(#mask-43)" cx="31.0907877" cy="21.289582" rx="1.2777036" ry="1.30344379"></ellipse>
                                                    <ellipse id="Oval-Copy-19" fill="#FFFFFF" fill-rule="nonzero" opacity="0.300000012" mask="url(#mask-43)" cx="39.6088117" cy="21.289582" rx="1.2777036" ry="1.30344379"></ellipse>
                                                    <ellipse id="Oval-Copy-28" fill="#FFFFFF" fill-rule="nonzero" opacity="0.300000012" mask="url(#mask-43)" cx="1.2777036" cy="25.6343946" rx="1.2777036" ry="1.30344379"></ellipse>
                                                    <ellipse id="Oval-Copy-27" fill="#FFFFFF" fill-rule="nonzero" opacity="0.300000012" mask="url(#mask-43)" cx="9.79572764" cy="25.6343946" rx="1.2777036" ry="1.30344379"></ellipse>
                                                    <ellipse id="Oval-Copy-26" fill="#FFFFFF" fill-rule="nonzero" opacity="0.300000012" mask="url(#mask-43)" cx="18.3137517" cy="25.6343946" rx="1.2777036" ry="1.30344379"></ellipse>
                                                    <ellipse id="Oval-Copy-25" fill="#FFFFFF" fill-rule="nonzero" opacity="0.300000012" mask="url(#mask-43)" cx="26.8317757" cy="25.6343946" rx="1.2777036" ry="1.30344379"></ellipse>
                                                    <ellipse id="Oval-Copy-24" fill="#FFFFFF" fill-rule="nonzero" opacity="0.300000012" mask="url(#mask-43)" cx="35.3497997" cy="25.6343946" rx="1.2777036" ry="1.30344379"></ellipse>
                                                    <ellipse id="Oval-Copy-33" fill="#FFFFFF" fill-rule="nonzero" opacity="0.300000012" mask="url(#mask-43)" cx="5.53671562" cy="29.9792073" rx="1.2777036" ry="1.30344379"></ellipse>
                                                    <ellipse id="Oval-Copy-32" fill="#FFFFFF" fill-rule="nonzero" opacity="0.300000012" mask="url(#mask-43)" cx="14.0547397" cy="29.9792073" rx="1.2777036" ry="1.30344379"></ellipse>
                                                    <ellipse id="Oval-Copy-31" fill="#FFFFFF" fill-rule="nonzero" opacity="0.300000012" mask="url(#mask-43)" cx="22.5727637" cy="29.9792073" rx="1.2777036" ry="1.30344379"></ellipse>
                                                    <ellipse id="Oval-Copy-30" fill="#FFFFFF" fill-rule="nonzero" opacity="0.300000012" mask="url(#mask-43)" cx="31.0907877" cy="29.9792073" rx="1.2777036" ry="1.30344379"></ellipse>
                                                    <ellipse id="Oval-Copy-29" fill="#FFFFFF" fill-rule="nonzero" opacity="0.300000012" mask="url(#mask-43)" cx="39.6088117" cy="29.9792073" rx="1.2777036" ry="1.30344379"></ellipse>
                                                    <ellipse id="Oval-Copy-38" fill="#FFFFFF" fill-rule="nonzero" opacity="0.300000012" mask="url(#mask-43)" cx="1.2777036" cy="34.3240199" rx="1.2777036" ry="1.30344379"></ellipse>
                                                    <ellipse id="Oval-Copy-37" fill="#FFFFFF" fill-rule="nonzero" opacity="0.300000012" mask="url(#mask-43)" cx="9.79572764" cy="34.3240199" rx="1.2777036" ry="1.30344379"></ellipse>
                                                    <ellipse id="Oval-Copy-36" fill="#FFFFFF" fill-rule="nonzero" opacity="0.300000012" mask="url(#mask-43)" cx="18.3137517" cy="34.3240199" rx="1.2777036" ry="1.30344379"></ellipse>
                                                    <ellipse id="Oval-Copy-35" fill="#FFFFFF" fill-rule="nonzero" opacity="0.300000012" mask="url(#mask-43)" cx="26.8317757" cy="34.3240199" rx="1.2777036" ry="1.30344379"></ellipse>
                                                    <ellipse id="Oval-Copy-34" fill="#FFFFFF" fill-rule="nonzero" opacity="0.300000012" mask="url(#mask-43)" cx="35.3497997" cy="34.3240199" rx="1.2777036" ry="1.30344379"></ellipse>
                                                    <ellipse id="Oval-Copy-43" fill="#FFFFFF" fill-rule="nonzero" opacity="0.300000012" mask="url(#mask-43)" cx="5.53671562" cy="38.6688326" rx="1.2777036" ry="1.30344379"></ellipse>
                                                    <ellipse id="Oval-Copy-42" fill="#FFFFFF" fill-rule="nonzero" opacity="0.300000012" mask="url(#mask-43)" cx="14.0547397" cy="38.6688326" rx="1.2777036" ry="1.30344379"></ellipse>
                                                    <ellipse id="Oval-Copy-41" fill="#FFFFFF" fill-rule="nonzero" opacity="0.300000012" mask="url(#mask-43)" cx="22.5727637" cy="38.6688326" rx="1.2777036" ry="1.30344379"></ellipse>
                                                    <ellipse id="Oval-Copy-40" fill="#FFFFFF" fill-rule="nonzero" opacity="0.300000012" mask="url(#mask-43)" cx="31.0907877" cy="38.6688326" rx="1.2777036" ry="1.30344379"></ellipse>
                                                    <ellipse id="Oval-Copy-39" fill="#FFFFFF" fill-rule="nonzero" opacity="0.300000012" mask="url(#mask-43)" cx="39.6088117" cy="38.6688326" rx="1.2777036" ry="1.30344379"></ellipse>
                                                    <ellipse id="Oval-Copy-48" fill="#FFFFFF" fill-rule="nonzero" opacity="0.300000012" mask="url(#mask-43)" cx="1.2777036" cy="43.0136452" rx="1.2777036" ry="1.30344379"></ellipse>
                                                    <ellipse id="Oval-Copy-47" fill="#FFFFFF" fill-rule="nonzero" opacity="0.300000012" mask="url(#mask-43)" cx="9.79572764" cy="43.0136452" rx="1.2777036" ry="1.30344379"></ellipse>
                                                    <ellipse id="Oval-Copy-46" fill="#FFFFFF" fill-rule="nonzero" opacity="0.300000012" mask="url(#mask-43)" cx="18.3137517" cy="43.0136452" rx="1.2777036" ry="1.30344379"></ellipse>
                                                    <ellipse id="Oval-Copy-45" fill="#FFFFFF" fill-rule="nonzero" opacity="0.300000012" mask="url(#mask-43)" cx="26.8317757" cy="43.0136452" rx="1.2777036" ry="1.30344379"></ellipse>
                                                    <ellipse id="Oval-Copy-44" fill="#FFFFFF" fill-rule="nonzero" opacity="0.300000012" mask="url(#mask-43)" cx="35.3497997" cy="43.0136452" rx="1.2777036" ry="1.30344379"></ellipse>
                                                    <path d="M23.8551773,4.25288783 C26.7027277,9.64653141 27.949949,14.6229219 27.5968412,19.1820594 C27.2437334,23.7411969 27.8168413,34.1471194 29.3161648,50.3998267 L33.1658893,50.3998267 C31.224798,45.9359177 30.1550449,42.5993479 29.9566301,40.3901173 C29.1235091,31.1138136 28.6041033,23.4508568 28.8902636,19.1820594 C29.2786513,13.3882866 27.9818627,8.28215318 24.999898,3.86365933 L23.8551773,4.25288783 Z" id="Path-57" fill="#FFFFFF" fill-rule="nonzero" opacity="0.200000003" mask="url(#mask-43)"></path>
                                                    <path d="M34.5530948,18.3295398 C35.5520175,12.7680611 34.2348097,12.2283351 30.927361,5.16710312 C34.0104653,9.04289482 35.6659267,12.4682954 35.8937452,15.4433048 C36.2354728,19.9058189 38.4367888,15.619612 39.8466131,20.6256567 C41.2564374,25.6317013 43.4600036,23.8604987 44.293725,25.1999134 C44.8495392,26.0928565 43.8371101,26.9208685 41.2564374,27.6839495 C38.3832203,25.0763883 36.1487728,21.9582517 34.5530948,18.3295398 Z" id="Path-6" fill="#373A5B" fill-rule="nonzero" opacity="0.300000012" mask="url(#mask-43)"></path>
                                                    <path d="M13.9511659,1.57542949 C13.9523939,3.96987858 16.0811278,5.16710312 20.3373675,5.16710312 C20.7937666,5.16710312 22.2151902,7.42511881 22.3941227,7.17274129 C22.6765359,6.77440825 23.3750983,5.56218915 24.1480956,5.52782246 C25.6896858,5.4592849 27.6363825,6.8498173 27.9321424,6.14412253 C28.0454592,5.87374401 26.9848563,4.6946657 24.7503335,2.60688759 C23.5392043,0.601362579 22.1443305,-0.476789018 20.565712,-0.6275672 C18.9870935,-0.778345383 16.7822448,-0.0440131538 13.9511659,1.57542949 Z" id="Path-7" fill="#373A5B" fill-rule="nonzero" opacity="0.300000012" mask="url(#mask-43)"></path>
                                                    <path d="M7.87102437,38.3531804 C8.60506542,36.5531415 10.0454636,35.2241442 12.192219,34.3661885 L11.9266294,37.4666418 L8.76044225,38.8357404 L7.87102437,38.3531804 Z" id="Path-13" fill="#373A5B" fill-rule="nonzero" opacity="0.300000012" mask="url(#mask-43)"></path>
                                                    <path d="M50.7837403,6.47468481 C51.1228877,8.89925154 51.988337,10.1115349 53.3800884,10.1115349 C54.7718397,10.1115349 55.7486485,9.37906753 56.3105147,7.91413279 L51.8051653,5.16710312 L50.7837403,6.47468481 Z" id="Path-20" fill="#373A5B" fill-rule="nonzero" opacity="0.300000012" mask="url(#mask-43)"></path>
                                                    <path d="M19.1655541,0.713036741 L21.8798216,6.13420604 C22.1270792,6.62805027 22.727861,6.82794822 23.2217052,6.58069061 C23.3455454,6.51868637 23.455156,6.43163412 23.5435913,6.3250502 L24.999898,4.56988023 L25.7890711,5.06810426 C26.2560754,5.36293537 26.8736651,5.2233614 27.1684962,4.75635705 C27.3635438,4.44740712 27.3745706,4.05667563 27.1972573,3.73721732 L25.8074568,1.23326848 L20.9476745,-0.420916534 L19.0256258,0.713036741" id="Path-56" fill="#FFD5D7" fill-rule="nonzero" mask="url(#mask-43)"></path>
                                                    <path d="M0.987700224,22.7656122 C0.499549829,25.3764706 2.59844095,26.3967875 3.18076203,26.3967875 C3.76308311,26.3967875 8.03798116,23.4000344 8.17279563,22.7656122 C8.30761009,22.1311901 8.42261492,20.6042951 7.54743215,20.4631315 C6.67224938,20.321968 1.47585062,20.1547538 0.987700224,22.7656122 Z" id="Path-53" fill="#FFD5D7" fill-rule="nonzero"></path>
                                                </g>
                                                <g id="Head" transform="translate(18.068536, 4.370370)">
                                                    <g id="Path-8" transform="translate(1.316422, 7.866667)">
                                                        <mask id="mask-45" fill="white">
                                                            <use xlink:href="#path-44"></use>
                                                        </mask>
                                                        <use id="Path-3" fill="url(#linearGradient-26)" fill-rule="nonzero" xlink:href="#path-44"></use>
                                                        <path d="M1.32857939,0.234837563 C1.96289045,4.15999223 3.63119242,6.27894886 6.33348532,6.59170742 C9.03577821,6.90446599 10.2826889,6.05083512 10.0742173,4.03081481 L1.32857939,0.234837563 Z" id="Path-9" fill="#DA433D" fill-rule="nonzero" opacity="0.200000003" mask="url(#mask-45)"></path>
                                                    </g>
                                                    <g id="Group">
                                                        <mask id="mask-47" fill="white">
                                                            <use xlink:href="#path-46"></use>
                                                        </mask>
                                                        <use id="Path" fill="url(#linearGradient-29)" fill-rule="nonzero" xlink:href="#path-46"></use>
                                                        <path d="M10.8970123,-0.523182952 C10.891931,2.35979675 9.85320914,4.07813351 7.78084667,4.63182732 C5.7084842,5.18552113 4.21452492,5.10157245 3.29896884,4.37998126 C3.36756476,4.25599254 3.2785856,3.99916565 3.03203136,3.60950061 C2.78547712,3.21983557 5.40713744,1.84227438 10.8970123,-0.523182952 Z" id="Path-50" fill="#DA433D" fill-rule="nonzero" opacity="0.200000003" mask="url(#mask-47)"></path>
                                                    </g>
                                                </g>
                                                <g id="Hands" transform="translate(3.613707, 29.135802)">
                                                    <polygon id="Path-49" fill="url(#linearGradient-48)" fill-rule="nonzero" points="23.1813221 0.709500112 19.1701209 19.5328625 32.6392849 19.2393416 36.9399664 0.709500112"></polygon>
                                                    <g id="Group-59" transform="translate(0.000000, 8.556214)">
                                                        <mask id="mask-51" fill="white">
                                                            <use xlink:href="#path-50"></use>
                                                        </mask>
                                                        <use id="Path" fill="url(#linearGradient-49)" fill-rule="nonzero" xlink:href="#path-50"></use>
                                                        <path d="M4.68591426,-2.92006119 C-0.206257695,-3.01362891 -3.02592005,-3.47296908 -3.7730728,-4.2980817 C-4.52022555,-5.12319432 -4.07477076,-5.6226988 -2.43670841,-5.79659513 L4.68591426,-2.92006119 Z" id="Path-82" fill="#DA433D" fill-rule="nonzero" opacity="0.200000003" mask="url(#mask-51)"></path>
                                                    </g>
                                                </g>
                                            </g>
                                        </g>
                                    </g>
                                    <g id="Phone" stroke-width="1" fill="none" fill-rule="evenodd" transform="translate(192.249221, 43.703704)">
                                        <ellipse id="Oval" fill="url(#linearGradient-52)" fill-rule="nonzero" cx="5.05919003" cy="5.09876543" rx="5.05919003" ry="5.09876543"></ellipse>
                                        <path d="M3.82593833,4.48708391 C3.67287385,5.05269078 3.74925748,5.51092171 4.05508921,5.86177669 C4.36936187,6.22231524 4.8766378,6.41972192 5.57691698,6.45399673 L5.58257745,6.45599358 L5.67670347,6.06753962 C5.70227702,5.96199871 5.79165782,5.88144218 5.90341679,5.86320896 L6.60307385,5.74906147 C6.75161723,5.72482695 6.89376364,5.81674269 6.92544344,5.95751441 L7.07652109,6.62884014 C7.10454782,6.75337917 7.0373554,6.87631292 6.92175039,6.92841359 L6.92838446,6.93075389 C5.61449246,7.35298055 4.55965168,7.13089348 3.76386213,6.26449266 C2.96807258,5.39809185 2.82438983,4.37869349 3.33281388,3.20629759 L3.33378065,3.20865324 C3.37979975,3.12011252 3.47540344,3.05925926 3.58588188,3.05925926 C3.603587,3.05925926 3.62125259,3.06085639 3.6386435,3.06402939 L4.41056027,3.20486676 C4.56316616,3.23270993 4.66325549,3.37348951 4.63411605,3.51930675 C4.63263854,3.52670041 4.63083664,3.53403151 4.62871513,3.54128066 L4.43653705,4.19794775 C4.40952571,4.29024473 4.3331275,4.36181809 4.23601945,4.38580189 L3.82593833,4.48708391 Z" id="Path" fill="#FFFFFF" fill-rule="nonzero"></path>
                                    </g>
                                    <path d="M48.8438149,25.4938272 C48.2126195,25.4938272 47.7009346,25.1677136 47.7009346,24.7654321 C47.7009346,24.3631506 48.2126195,24.037037 48.8438149,24.037037 L70.4085215,24.037037 C71.0397169,24.037037 71.5514019,24.3631506 71.5514019,24.7654321 C71.5514019,25.1677136 71.0397169,25.4938272 70.4085215,25.4938272 L48.8438149,25.4938272 Z" id="Path-162-Copy" fill="#EAE8E9" fill-rule="nonzero"></path>
                                    <path d="M48.8438149,31.3209877 C48.2126195,31.3209877 47.7009346,30.9948741 47.7009346,30.5925926 C47.7009346,30.1903111 48.2126195,29.8641975 48.8438149,29.8641975 L70.4085215,29.8641975 C71.0397169,29.8641975 71.5514019,30.1903111 71.5514019,30.5925926 C71.5514019,30.9948741 71.0397169,31.3209877 70.4085215,31.3209877 L48.8438149,31.3209877 Z" id="Path-162-Copy-4" fill="#EAE8E9" fill-rule="nonzero"></path>
                                    <path d="M48.9477131,37.1481481 C48.2591364,37.1481481 47.7009346,36.8220346 47.7009346,36.4197531 C47.7009346,36.0174716 48.2591364,35.691358 48.9477131,35.691358 L72.4728476,35.691358 C73.1614244,35.691358 73.7196262,36.0174716 73.7196262,36.4197531 C73.7196262,36.8220346 73.1614244,37.1481481 72.4728476,37.1481481 L48.9477131,37.1481481 Z" id="Path-162-Copy-5" fill="#EAE8E9" fill-rule="nonzero"></path>
                                    <path d="M48.9477131,42.2469136 C48.2591364,42.2469136 47.7009346,41.9208 47.7009346,41.5185185 C47.7009346,41.116237 48.2591364,40.7901235 48.9477131,40.7901235 L72.4728476,40.7901235 C73.1614244,40.7901235 73.7196262,41.116237 73.7196262,41.5185185 C73.7196262,41.9208 73.1614244,42.2469136 72.4728476,42.2469136 L48.9477131,42.2469136 Z" id="Path-162-Copy-6" fill="#EAE8E9" fill-rule="nonzero"></path>
                                    <path d="M48.8438149,48.0740741 C48.2126195,48.0740741 47.7009346,47.7479605 47.7009346,47.345679 C47.7009346,46.9433975 48.2126195,46.617284 48.8438149,46.617284 L70.4085215,46.617284 C71.0397169,46.617284 71.5514019,46.9433975 71.5514019,47.345679 C71.5514019,47.7479605 71.0397169,48.0740741 70.4085215,48.0740741 L48.8438149,48.0740741 Z" id="Path-162-Copy-7" fill="#EAE8E9" fill-rule="nonzero"></path>
                                    <path d="M49.9520625,53.9012346 C48.7087989,53.9012346 47.7009346,53.575121 47.7009346,53.1728395 C47.7009346,52.770558 48.7087989,52.4444444 49.9520625,52.4444444 L92.4279998,52.4444444 C93.6712634,52.4444444 94.6791277,52.770558 94.6791277,53.1728395 C94.6791277,53.575121 93.6712634,53.9012346 92.4279998,53.9012346 L49.9520625,53.9012346 Z" id="Path-162-Copy-8" fill="#EAE8E9" fill-rule="nonzero"></path>
                                </g>
                            </g>
                            <path d="M2.92238927,0 L226.909386,0 C229.720855,-4.86295923e-16 232,2.14603773 232,4.79330944 L232,12.382716 L-2.1682243,12.382716 L-2.1682243,4.79330944 C-2.1682243,2.14603773 0.11092103,1.90540059e-15 2.92238927,0 Z" id="Path" fill="#FFFFFF" fill-rule="nonzero" opacity="0.449823289" mask="url(#mask-3)"></path>
                            <ellipse id="Oval" fill="#F3757C" fill-rule="nonzero" mask="url(#mask-3)" cx="6.86604361" cy="7.64814815" rx="1.80685358" ry="1.82098765"></ellipse>
                            <ellipse id="Oval-Copy-69" fill="#C1A4FF" fill-rule="nonzero" mask="url(#mask-3)" cx="14.0934579" cy="7.64814815" rx="1.80685358" ry="1.82098765"></ellipse>
                            <ellipse id="Oval-Copy-70" fill="#85CFF3" fill-rule="nonzero" mask="url(#mask-3)" cx="20.5981308" cy="7.64814815" rx="1.80685358" ry="1.82098765"></ellipse>
                            <path d="M47.1864138,29.1358025 C46.6722576,29.1358025 46.2554517,28.8096889 46.2554517,28.4074074 C46.2554517,28.0051259 46.6722576,27.6790123 47.1864138,27.6790123 L55.4428697,27.6790123 C55.9570259,27.6790123 56.3738318,28.0051259 56.3738318,28.4074074 C56.3738318,28.8096889 55.9570259,29.1358025 55.4428697,29.1358025 L47.1864138,29.1358025 Z" id="Path-162-Copy-2" fill="#FFFFFF" fill-rule="nonzero" mask="url(#mask-3)"></path>
                            <path d="M47.2251684,33.5061728 C46.6896087,33.5061728 46.2554517,33.1800593 46.2554517,32.7777778 C46.2554517,32.3754963 46.6896087,32.0493827 47.2251684,32.0493827 L65.5224952,32.0493827 C66.0580549,32.0493827 66.4922118,32.3754963 66.4922118,32.7777778 C66.4922118,33.1800593 66.0580549,33.5061728 65.5224952,33.5061728 L47.2251684,33.5061728 Z" id="Path-162-Copy-3" fill="#F2F4FF" fill-rule="nonzero" mask="url(#mask-3)"></path>
                        </g>
                        <g id="Yogi-pose-2" transform="translate(252.500000, 155.000000) scale(-1, 1) translate(-252.500000, -155.000000) translate(192.000000, 80.000000)">
                            <g id="Shirt" transform="translate(0.000000, 37.551151)">
                                <mask id="mask-55" fill="white">
                                    <use xlink:href="#path-54"></use>
                                </mask>
                                <use id="Path" fill="url(#linearGradient-53)" fill-rule="nonzero" xlink:href="#path-54"></use>
                                <polygon id="Rectangle-Copy" fill="#FFFFFF" fill-rule="nonzero" opacity="0.5" mask="url(#mask-55)" points="28.4766044 24.1790483 67.9486846 24.1790483 68.8670479 28.6869523 25.4937493 28.6869523"></polygon>
                                <polygon id="Rectangle-Copy-2" fill="#FFFFFF" fill-rule="nonzero" opacity="0.5" mask="url(#mask-55)" points="18.9642547 39.2055015 97.8833099 39.2055015 97.8833099 43.9866602 18.9642547 43.9866602"></polygon>
                                <rect id="Rectangle-Copy-3" fill="#FFFFFF" fill-rule="nonzero" opacity="0.5" mask="url(#mask-55)" x="-8.56312953" y="54.5052094" width="106.446439" height="4.78115872"></rect>
                                <rect id="Rectangle-Copy-4" fill="#FFFFFF" fill-rule="nonzero" opacity="0.5" mask="url(#mask-55)" x="-8.56312953" y="69.8049173" width="106.446439" height="4.78115872"></rect>
                                <polygon id="Rectangle-Copy-5" fill="#FFFFFF" fill-rule="nonzero" opacity="0.5" mask="url(#mask-55)" points="-8.56312953 85.1046252 97.8833099 85.1046252 97.8833099 89.8857839 -8.56312953 89.8857839"></polygon>
                                <polygon id="Rectangle-Copy-6" fill="#FFFFFF" fill-rule="nonzero" opacity="0.5" mask="url(#mask-55)" points="-8.56312953 100.404333 97.8833099 100.404333 97.8833099 105.185492 -8.56312953 105.185492"></polygon>
                                <path d="M69.9841392,46.766119 C70.0054167,36.1873482 69.0960199,27.6689535 67.2559486,21.2109351 C70.5711665,23.1817553 72.4826487,27.4409527 72.9903953,33.9885271 C73.7520151,43.8098888 78.658161,34.3765543 81.8002833,45.3941498 C84.9424056,56.4117453 92.8751442,49.1925006 94.7332868,52.1403625 C95.9720485,54.1056038 92.7084214,57.0349673 84.9424056,60.928453 L69.9841392,46.766119 Z" id="Path-6" fill="#373A5B" fill-rule="nonzero" opacity="0.300000012" mask="url(#mask-55)"></path>
                                <path d="M20.0753736,-0.390903597 C20.0781105,4.87893981 24.8224903,7.51386151 34.3085129,7.51386151 C43.7945356,7.51386151 48.6088768,2.42207342 48.7515367,-7.76150277 L20.0753736,-0.390903597 Z" id="Path-7" fill="#373A5B" fill-rule="nonzero" opacity="0.300000012" mask="url(#mask-55)"></path>
                                <path d="M8.05021184,84.4099193 C9.6861935,80.4482886 12.8964568,77.5233538 17.6810018,75.6351149 L17.0890734,82.4587735 L10.032487,85.4719657 L8.05021184,84.4099193 Z" id="Path-13" fill="#373A5B" fill-rule="nonzero" opacity="0.300000012" mask="url(#mask-55)"></path>
                                <path d="M103.691206,14.2498645 C104.447075,19.5859925 106.375931,22.2540566 109.477774,22.2540566 C112.579616,22.2540566 114.756662,20.6419996 116.008912,17.4178857 L105.96769,11.3720623 L103.691206,14.2498645 Z" id="Path-20" fill="#373A5B" fill-rule="nonzero" opacity="0.300000012" mask="url(#mask-55)"></path>
                                <path d="M18.2693648,62.6923895 C31.3492931,62.4155635 41.1936104,62.0749761 47.8023165,61.6706271 C54.4110227,61.2662782 58.5093347,60.753796 60.0972528,60.1331804 C51.1408844,63.3179886 45.0980094,64.9103928 41.9686278,64.9103928 C37.2745554,64.9103928 37.4161817,61.4770309 32.273485,68.601207 C27.1307882,75.7253832 23.048133,66.6429448 18.2693648,80.1126497 C15.0835194,89.092453 15.0835194,83.2856996 18.2693648,62.6923895 Z" id="Path-47" fill="#373A5B" fill-rule="nonzero" opacity="0.300000012" mask="url(#mask-55)"></path>
                                <path d="M48.7515367,52.6849493 L18.2693648,48.3316068 L18.7019323,40.5559566 L27.3360423,25.6730075 C27.7696384,27.129916 26.8411286,30.8888261 24.5505128,36.9497378 C21.1145892,46.0411054 30.1626123,37.591247 33.3397962,43.5293885 C35.4579187,47.4881496 40.5951655,50.5400032 48.7515367,52.6849493 Z" id="Path-48" fill="#373A5B" fill-rule="nonzero" opacity="0.300000012" mask="url(#mask-55)"></path>
                            </g>
                            <g id="Head" transform="translate(31.616766, 0.000000)">
                                <path d="M7.47719566,2.72234022 C12.8402186,0.530811143 24.4735337,-2.08854474 27.0715486,4.07160987 C29.6695635,10.2317645 32.7311641,17.903235 27.9856479,21.0700397 C23.2401316,24.2368444 20.2052646,29.0852356 15.1132518,27.682056 C11.7185766,26.746603 8.71253267,27.6999687 6.09512009,30.5421532 C4.24340774,30.3069758 3.08960599,29.6839995 2.63371484,28.6732241 C-2.00156995,18.3961397 0.147201181,5.71764643 7.47719566,2.72234022 Z" id="Path-2" fill="url(#linearGradient-56)" fill-rule="nonzero"></path>
                                <g id="Path-8" transform="translate(2.198291, 24.906376)">
                                    <mask id="mask-58" fill="white">
                                        <use xlink:href="#path-57"></use>
                                    </mask>
                                    <use id="Path-3" fill="url(#linearGradient-26)" fill-rule="nonzero" xlink:href="#path-57"></use>
                                    <path d="M2.72815426,0.829856716 C4.11104464,9.43336781 7.74818566,14.0778897 13.6395773,14.7634224 C19.5309689,15.4489551 22.2494156,13.5778893 21.7949173,9.15022497 L2.72815426,0.829856716 Z" id="Path-9" fill="#DA433D" fill-rule="nonzero" opacity="0.200000003" mask="url(#mask-58)"></path>
                                </g>
                                <g id="Group" transform="translate(0.956664, 11.207869)">
                                    <mask id="mask-60" fill="white">
                                        <use xlink:href="#path-59"></use>
                                    </mask>
                                    <use id="Path" fill="url(#linearGradient-29)" fill-rule="nonzero" xlink:href="#path-59"></use>
                                    <path d="M23.085372,-1.81731626 C23.0742941,4.50186092 20.8097293,8.26826775 16.2916776,9.48190422 C11.7736259,10.6955407 8.51657738,10.5115343 6.52053192,8.92988512 C6.670081,8.65811534 6.47609349,8.09517881 5.93856937,7.24107553 C5.40104526,6.38697224 11.1166461,3.36750831 23.085372,-1.81731626 Z" id="Path-50" fill="#DA433D" fill-rule="nonzero" opacity="0.200000003" mask="url(#mask-60)"></path>
                                </g>
                            </g>
                            <g id="Hands" transform="translate(0.000000, 37.551151)">
                                <g id="Path-21" transform="translate(70.190476, 0.000000)">
                                    <mask id="mask-62" fill="white">
                                        <use xlink:href="#path-61"></use>
                                    </mask>
                                    <use id="Path" fill="url(#linearGradient-29)" fill-rule="nonzero" xlink:href="#path-61"></use>
                                    <path d="M43.6606625,7.02072299 C41.3332668,7.31921664 40.169569,8.79186179 40.169569,11.4386584 C40.169569,15.4088534 40.2232017,18.9472645 43.6606625,19.8565949 C39.6416839,19.5301169 37.8393593,17.0108815 38.2536887,12.2988888 C38.6680181,7.58689604 40.4703427,5.82750745 43.6606625,7.02072299 Z" id="Path-45" fill="#DA433D" fill-rule="nonzero" opacity="0.200000003" mask="url(#mask-62)"></path>
                                </g>
                                <g id="Group-2" transform="translate(0.000000, 28.596646)">
                                    <polygon id="Path-49" fill="url(#linearGradient-48)" fill-rule="nonzero" points="60.2973705 0.607775365 51.3469249 42.5964961 81.4015176 41.9417476 90.9978987 0.607775365"></polygon>
                                    <mask id="mask-64" fill="white">
                                        <use xlink:href="#path-63"></use>
                                    </mask>
                                    <use id="Path" fill="url(#linearGradient-49)" fill-rule="nonzero" xlink:href="#path-63"></use>
                                    <path d="M19.0274037,11.5975146 C8.1111928,11.3887958 1.81950287,10.3641592 0.152333945,8.52360477 C-1.51483498,6.68305032 -0.520863677,5.56882038 3.13424786,5.18091494 L19.0274037,11.5975146 Z" id="Path-82" fill="#DA433D" fill-rule="nonzero" opacity="0.200000003" mask="url(#mask-64)"></path>
                                </g>
                            </g>
                        </g>
                    </g>
                </g>
            </g>
        </g>
    </g>
</svg>