<?xml version="1.0" encoding="UTF-8"?>
<svg width="236px" height="173px" viewBox="0 0 236 173" version="1.1" xmlns="http://www.w3.org/2000/svg" xmlns:xlink="http://www.w3.org/1999/xlink">
    <!-- Generator: Sketch 52 (66869) - http://www.bohemiancoding.com/sketch -->
    <title>with_only_course</title>
    <desc>Created with Sketch.</desc>
    <defs>
        <linearGradient x1="25.7898403%" y1="92.5182164%" x2="89.6981579%" y2="-3.7934039%" id="linearGradient-1">
            <stop stop-color="#FCEFFF" offset="0%"></stop>
            <stop stop-color="#C9E7FF" offset="100%"></stop>
        </linearGradient>
        <path d="M3.80434783,6.28338988e-16 L171.195652,0 C173.296735,-4.30635872e-16 175,1.90040835 175,4.24468085 L175,128.755319 C175,131.099592 173.296735,133 171.195652,133 L3.80434783,133 C1.70326454,133 2.57308492e-16,131.099592 0,128.755319 L0,4.24468085 C-2.57308492e-16,1.90040835 1.70326454,1.05897486e-15 3.80434783,6.28338988e-16 Z" id="path-2"></path>
        <rect id="path-4" x="0" y="0.390190251" width="148.133884" height="43.5520671"></rect>
        <filter x="-3.4%" y="-13.8%" width="106.8%" height="123.0%" filterUnits="objectBoundingBox" id="filter-5">
            <feOffset dx="0" dy="-1" in="SourceAlpha" result="shadowOffsetOuter1"></feOffset>
            <feGaussianBlur stdDeviation="1.5" in="shadowOffsetOuter1" result="shadowBlurOuter1"></feGaussianBlur>
            <feColorMatrix values="0 0 0 0 1   0 0 0 0 1   0 0 0 0 1  0 0 0 0.2 0" type="matrix" in="shadowBlurOuter1"></feColorMatrix>
        </filter>
        <linearGradient x1="50%" y1="47.7642909%" x2="50%" y2="97.9532047%" id="linearGradient-6">
            <stop stop-color="#000000" stop-opacity="0" offset="0%"></stop>
            <stop stop-color="#000000" stop-opacity="0.1" offset="100%"></stop>
        </linearGradient>
        <rect id="path-7" x="0" y="0.226669389" width="148.305355" height="80.8578234"></rect>
        <rect id="path-9" x="18.825823" y="0.113334695" width="130.862428" height="5.44006534"></rect>
        <filter x="-3.8%" y="-73.5%" width="107.6%" height="283.8%" filterUnits="objectBoundingBox" id="filter-10">
            <feOffset dx="0" dy="1" in="SourceAlpha" result="shadowOffsetOuter1"></feOffset>
            <feGaussianBlur stdDeviation="1.5" in="shadowOffsetOuter1" result="shadowBlurOuter1"></feGaussianBlur>
            <feColorMatrix values="0 0 0 0 1   0 0 0 0 1   0 0 0 0 1  0 0 0 0.1 0" type="matrix" in="shadowBlurOuter1"></feColorMatrix>
        </filter>
        <filter x="-3.8%" y="-73.5%" width="107.6%" height="283.8%" filterUnits="objectBoundingBox" id="filter-11">
            <feGaussianBlur stdDeviation="1.5" in="SourceAlpha" result="shadowBlurInner1"></feGaussianBlur>
            <feOffset dx="0" dy="-1" in="shadowBlurInner1" result="shadowOffsetInner1"></feOffset>
            <feComposite in="shadowOffsetInner1" in2="SourceAlpha" operator="arithmetic" k2="-1" k3="1" result="shadowInnerInner1"></feComposite>
            <feColorMatrix values="0 0 0 0 0   0 0 0 0 0   0 0 0 0 0  0 0 0 0.1 0" type="matrix" in="shadowInnerInner1"></feColorMatrix>
        </filter>
        <path d="M46.3334096,1.47753101 C41.1589804,-0.190569095 30.4480923,-0.732968644 18.5703562,1.47753101 C12.9166006,2.52972015 8.45972096,4.66845136 6.26110971,9.96315156 C4.07489923,15.2279882 1.24062363,21.0891079 0.115136515,26.09913 C5.3280578,28.5516502 10.1780097,30.0396225 14.6649921,30.5630469 L14.6649921,47.4470198 C15.0375474,55.7930107 14.7673061,62.4932767 13.8542683,67.5478175 C12.3704609,75.7621164 11.7252711,81.5982754 11.7340014,81.8926764 C11.7981776,84.0568142 12.8313011,83.3287353 18.6526803,84.2582538 C24.4740595,85.1877724 41.5171284,82.4327231 47.2197118,81.8926764 C51.0214341,81.5326453 55.436638,81.5326453 60.4653233,81.8926764 L53.0667724,27.6176967 L61.9421426,19.7752793 L53.08436,6.17512328 C52.0333459,4.15546184 49.7830291,2.58959775 46.3334096,1.47753101 Z" id="path-12"></path>
        <path d="M0.330196288,9.8438949 C4.94653215,13.8846545 8.10108176,15.9050343 9.79384512,15.9050343 C11.4866085,15.9050343 12.131319,13.8846545 11.7279766,9.8438949 L10.9155983,4.9556311 L2.26490636,0.441469046 L0.330196288,9.8438949 Z" id="path-14"></path>
        <path d="M17.5064071,0.0470822974 C18.7955386,3.42794724 19.3591046,5.81724581 19.197105,7.21497802 C18.3268082,14.7238961 16.5820956,18.4783552 14.1283991,18.4783552 C9.42019322,18.4783552 4.27654146,16.062234 3.09064631,10.9858452 C3.0777241,10.9305298 3.06511162,10.8756934 3.0528089,10.8213359 C2.93306936,10.8382566 2.81071373,10.847007 2.68632048,10.847007 C1.24847509,10.847007 0.0828711001,9.67788437 0.0828711001,8.23569853 C0.0828711001,6.79351269 1.24847509,5.62439008 2.68632048,5.62439008 C3.59002512,5.62439008 4.38618659,6.08622705 4.85300021,6.78742676 C5.11603052,6.90783193 14.1715092,7.26793378 17.5064071,0.0470822974 Z" id="path-16"></path>
        <path d="M16.1055556,41.8995855 C13.2197451,42.3176911 7.85646039,40.6282604 0.0157015439,36.8312933 L0.0157015439,25.5750562 L8.56502361,20.0069998 L13.4341855,26.3068352 L26.2263936,11.1250734 C27.2300202,8.83391425 27.8840998,6.7448852 28.8903581,5.54742629 C30.5002062,3.63168861 28.8943325,0.488011892 30.6643062,0.488011892 C31.0033021,0.488011892 32.1183799,1.24927036 32.293177,2.17223301 C32.4313831,2.90198788 32.4313831,3.75692718 32.293177,4.7370509 C34.6592751,4.96694446 36.1221081,5.41864251 36.6816761,6.09214503 C37.5598534,7.14912934 37.1915295,11.4169181 36.6816761,12.8211661 C35.970371,14.7802564 35.0385897,14.7802564 33.037937,15.3936866 C32.5467418,15.5442944 31.8573221,15.8841998 30.9696779,16.4134027 C23.9258512,32.9890213 18.9711464,41.4844095 16.1055556,41.8995855 Z" id="path-18"></path>
        <path d="M3.02371996,23.8117085 C0.267124293,21.4370355 -1.0726856,15.0074584 1.23684786,4.79823449 C6.04854658,6.90730463 10.4312804,8.15188451 14.3850492,8.53197415 L12.0824184,13.3574897 L37.0826177,17.8113603 C37.0794503,17.7885529 37.0762043,17.7658633 37.0728749,17.7432899 C39.3969719,15.7397901 41.2145801,14.7380401 42.5256995,14.7380401 L42.0086294,17.1836216 C45.2373568,17.0544779 47.6012428,16.2392841 49.1002875,14.7380401 C51.3488546,12.4861741 50.236307,17.5227588 48.7792337,18.302069 C47.3221604,19.0813791 47.9579905,23.5665524 44.4624943,24.2712231 C42.1321634,24.7410035 36.4428295,24.6641142 36.4769606,24.5108532 C16.183122,25.9409099 5.72106928,26.1353437 3.02371996,23.8117085 Z" id="path-20"></path>
    </defs>
    <g id="Adwords-Page" stroke="none" stroke-width="1" fill="none" fill-rule="evenodd">
        <g id="Home" transform="translate(-157.000000, -1026.000000)">
            <g id="How-it-works/?" transform="translate(104.000000, 677.000000)">
                <g id="Events-Card" transform="translate(0.000000, 242.000000)">
                    <g id="with_only_course" transform="translate(53.000000, 107.000000)">
                        <g id="Desktop-browser">
                            <mask id="mask-3" fill="white">
                                <use xlink:href="#path-2"></use>
                            </mask>
                            <use id="Path" fill="url(#linearGradient-1)" fill-rule="nonzero" xlink:href="#path-2"></use>
                            <g id="Group-7" mask="url(#mask-3)">
                                <g transform="translate(-1.635514, 9.304527)">
                                    <g id="Group-6" stroke-width="1" fill="none" fill-rule="evenodd">
                                        <g id="Left-Bar" transform="translate(0.224054, 0.279219)">
                                            <rect id="Sidebar-bg" fill="#2F3545" x="0" y="4.98823796" width="28.2255148" height="119.264235"></rect>
                                            <g id="File-Top">
                                                <rect id="Rectangle-29" fill="#272C39" x="0" y="-6.21724894e-15" width="28.5013174" height="5.44171414"></rect>
                                                <g id="Group-3" transform="translate(16.683908, 1.927274)">
                                                    <g id="Plus">
                                                        <g id="plus_x5F_alt"></g>
                                                    </g>
                                                </g>
                                                <g id="Group-3" transform="translate(20.912021, 3.627809)">
                                                    <g id="Group-5"></g>
                                                </g>
                                            </g>
                                        </g>
                                        <g id="Preview-Window" transform="translate(28.449569, 80.583331)">
                                            <g id="Console">
                                                <use fill="black" fill-opacity="1" filter="url(#filter-5)" xlink:href="#path-4"></use>
                                                <use fill="#282D3A" fill-rule="evenodd" xlink:href="#path-4"></use>
                                            </g>
                                            <rect id="Shadow" fill="url(#linearGradient-6)" x="5.68434189e-14" y="7.10542736e-15" width="148.133884" height="5.26711443"></rect>
                                        </g>
                                        <g id="Library" transform="translate(0.224054, 118.668092)">
                                            <g id="File-Top">
                                                <rect id="Rectangle-29" fill="#272C39" x="0" y="0" width="28.3416494" height="5.44400839"></rect>
                                                <g id="Group-2" transform="translate(6.540381, 1.587836)">
                                                    <g id="Group-3" transform="translate(12.392300, 0.340251)">
                                                        <g id="Plus">
                                                            <g id="plus_x5F_alt"></g>
                                                        </g>
                                                    </g>
                                                    <g id="Library,-Books,-Read,-Study,-Peace">
                                                        <g id="Group">
                                                            <polygon id="Shape" points="0 0 2.06538336 0 2.06538336 2.04150314 0 2.04150314"></polygon>
                                                        </g>
                                                    </g>
                                                </g>
                                                <g id="Group-3" transform="translate(20.998064, 3.629339)">
                                                    <g id="Group-5"></g>
                                                </g>
                                            </g>
                                        </g>
                                        <g id="Code-Window" transform="translate(28.449569, 0.000000)">
                                            <mask id="mask-8" fill="white">
                                                <use xlink:href="#path-7"></use>
                                            </mask>
                                            <use id="Content" fill="#485061" xlink:href="#path-7"></use>
                                            <g id="Tabs-bg" mask="url(#mask-8)">
                                                <use fill="black" fill-opacity="1" filter="url(#filter-10)" xlink:href="#path-9"></use>
                                                <use fill="#272C39" fill-rule="evenodd" xlink:href="#path-9"></use>
                                                <use fill="black" fill-opacity="1" filter="url(#filter-11)" xlink:href="#path-9"></use>
                                            </g>
                                            <g id="Group-3" mask="url(#mask-8)">
                                                <g transform="translate(39.143937, 1.926690)" id="Plus">
                                                    <g>
                                                        <g id="plus_x5F_alt"></g>
                                                    </g>
                                                </g>
                                            </g>
                                            <rect id="Separator" fill="#2F3545" mask="url(#mask-8)" x="37.651646" y="0.113334695" width="1" height="5.44006534"></rect>
                                            <rect id="Separator-Copy" fill="#2F3545" mask="url(#mask-8)" x="42.7024766" y="0.113334695" width="1" height="5.44006534"></rect>
                                        </g>
                                    </g>
                                    <path d="M36.8433949,19.1563786 C36.3672777,19.1563786 35.9813084,18.9113328 35.9813084,18.6090535 C35.9813084,18.3067742 36.3672777,18.0617284 36.8433949,18.0617284 L53.1098761,18.0617284 C53.5859934,18.0617284 53.9719626,18.3067742 53.9719626,18.6090535 C53.9719626,18.9113328 53.5859934,19.1563786 53.1098761,19.1563786 L36.8433949,19.1563786 Z" id="Path-162-Copy" fill="#EAE8E9" fill-rule="nonzero"></path>
                                    <path d="M36.8433949,23.5349794 C36.3672777,23.5349794 35.9813084,23.2899336 35.9813084,22.9876543 C35.9813084,22.685375 36.3672777,22.4403292 36.8433949,22.4403292 L53.1098761,22.4403292 C53.5859934,22.4403292 53.9719626,22.685375 53.9719626,22.9876543 C53.9719626,23.2899336 53.5859934,23.5349794 53.1098761,23.5349794 L36.8433949,23.5349794 Z" id="Path-162-Copy-4" fill="#EAE8E9" fill-rule="nonzero"></path>
                                    <path d="M36.9217664,27.9135802 C36.4023658,27.9135802 35.9813084,27.6685345 35.9813084,27.3662551 C35.9813084,27.0639758 36.4023658,26.81893 36.9217664,26.81893 L54.6670187,26.81893 C55.1864193,26.81893 55.6074766,27.0639758 55.6074766,27.3662551 C55.6074766,27.6685345 55.1864193,27.9135802 54.6670187,27.9135802 L36.9217664,27.9135802 Z" id="Path-162-Copy-5" fill="#EAE8E9" fill-rule="nonzero"></path>
                                    <path d="M36.9217664,31.744856 C36.4023658,31.744856 35.9813084,31.4998102 35.9813084,31.1975309 C35.9813084,30.8952516 36.4023658,30.6502058 36.9217664,30.6502058 L54.6670187,30.6502058 C55.1864193,30.6502058 55.6074766,30.8952516 55.6074766,31.1975309 C55.6074766,31.4998102 55.1864193,31.744856 54.6670187,31.744856 L36.9217664,31.744856 Z" id="Path-162-Copy-6" fill="#EAE8E9" fill-rule="nonzero"></path>
                                    <path d="M36.8433949,36.1234568 C36.3672777,36.1234568 35.9813084,35.878411 35.9813084,35.5761317 C35.9813084,35.2738524 36.3672777,35.0288066 36.8433949,35.0288066 L53.1098761,35.0288066 C53.5859934,35.0288066 53.9719626,35.2738524 53.9719626,35.5761317 C53.9719626,35.878411 53.5859934,36.1234568 53.1098761,36.1234568 L36.8433949,36.1234568 Z" id="Path-162-Copy-7" fill="#EAE8E9" fill-rule="nonzero"></path>
                                    <path d="M37.6793575,40.5020576 C36.7415509,40.5020576 35.9813084,40.2570118 35.9813084,39.9547325 C35.9813084,39.6524532 36.7415509,39.4074074 37.6793575,39.4074074 L69.7193964,39.4074074 C70.657203,39.4074074 71.4174455,39.6524532 71.4174455,39.9547325 C71.4174455,40.2570118 70.657203,40.5020576 69.7193964,40.5020576 L37.6793575,40.5020576 Z" id="Path-162-Copy-8" fill="#EAE8E9" fill-rule="nonzero"></path>
                                </g>
                            </g>
                            <path d="M2.20438846,0 L171.160098,0 C173.280817,-3.65408801e-16 175,1.61255943 175,3.60175229 L175,9.30452675 L-1.63551402,9.30452675 L-1.63551402,3.60175229 C-1.63551402,1.61255943 0.0836688802,1.43174169e-15 2.20438846,0 Z" id="Path" fill="#FFFFFF" fill-rule="nonzero" opacity="0.449823289" mask="url(#mask-3)"></path>
                            <ellipse id="Oval" fill="#F3757C" fill-rule="nonzero" mask="url(#mask-3)" cx="5.17912773" cy="5.74691358" rx="1.36292835" ry="1.36831276"></ellipse>
                            <ellipse id="Oval-Copy-69" fill="#C1A4FF" fill-rule="nonzero" mask="url(#mask-3)" cx="10.6308411" cy="5.74691358" rx="1.36292835" ry="1.36831276"></ellipse>
                            <ellipse id="Oval-Copy-70" fill="#85CFF3" fill-rule="nonzero" mask="url(#mask-3)" cx="15.5373832" cy="5.74691358" rx="1.36292835" ry="1.36831276"></ellipse>
                            <path d="M35.5932,21.8930041 C35.2053667,21.8930041 34.8909657,21.6479583 34.8909657,21.345679 C34.8909657,21.0433997 35.2053667,20.7983539 35.5932,20.7983539 L41.8211302,20.7983539 C42.2089635,20.7983539 42.5233645,21.0433997 42.5233645,21.345679 C42.5233645,21.6479583 42.2089635,21.8930041 41.8211302,21.8930041 L35.5932,21.8930041 Z" id="Path-162-Copy-2" fill="#FFFFFF" fill-rule="nonzero" mask="url(#mask-3)"></path>
                            <path d="M35.622433,25.1769547 C35.2184548,25.1769547 34.8909657,24.9319089 34.8909657,24.6296296 C34.8909657,24.3273503 35.2184548,24.0823045 35.622433,24.0823045 L49.4242959,24.0823045 C49.8282742,24.0823045 50.1557632,24.3273503 50.1557632,24.6296296 C50.1557632,24.9319089 49.8282742,25.1769547 49.4242959,25.1769547 L35.622433,25.1769547 Z" id="Path-162-Copy-3" fill="#F2F4FF" fill-rule="nonzero" mask="url(#mask-3)"></path>
                        </g>
                        <g id="Yogi-pose-2" transform="translate(190.000000, 117.000000) scale(-1, 1) translate(-190.000000, -117.000000) translate(144.000000, 60.000000)">
                            <g id="Shirt" transform="translate(0.000000, 28.524272)">
                                <mask id="mask-13" fill="white">
                                    <use xlink:href="#path-12"></use>
                                </mask>
                                <use id="Path" fill="#E7E7E7" fill-rule="nonzero" xlink:href="#path-12"></use>
                                <polygon id="Rectangle-Copy" fill="#FFFFFF" fill-rule="nonzero" opacity="0.5" mask="url(#mask-13)" points="21.5947583 18.3666738 51.5277525 18.3666738 52.224178 21.7909277 19.3327599 21.7909277"></polygon>
                                <polygon id="Rectangle-Copy-2" fill="#FFFFFF" fill-rule="nonzero" opacity="0.5" mask="url(#mask-13)" points="14.3812265 29.7809345 74.2281767 29.7809345 74.2281767 33.4127558 14.3812265 33.4127558"></polygon>
                                <rect id="Rectangle-Copy-3" fill="#FFFFFF" fill-rule="nonzero" opacity="0.5" mask="url(#mask-13)" x="-6.49370656" y="41.4027627" width="80.7218832" height="3.63182129"></rect>
                                <rect id="Rectangle-Copy-4" fill="#FFFFFF" fill-rule="nonzero" opacity="0.5" mask="url(#mask-13)" x="-6.49370656" y="53.0245908" width="80.7218832" height="3.63182129"></rect>
                                <polygon id="Rectangle-Copy-5" fill="#FFFFFF" fill-rule="nonzero" opacity="0.5" mask="url(#mask-13)" points="-6.49370656 64.6464189 74.2281767 64.6464189 74.2281767 68.2782402 -6.49370656 68.2782402"></polygon>
                                <polygon id="Rectangle-Copy-6" fill="#FFFFFF" fill-rule="nonzero" opacity="0.5" mask="url(#mask-13)" points="-6.49370656 76.268247 74.2281767 76.268247 74.2281767 79.9000683 -6.49370656 79.9000683"></polygon>
                                <path d="M53.0713055,35.5240637 C53.087441,27.4883118 52.3978151,21.0176445 51.0024277,16.112062 C53.5164679,17.6091189 54.9660086,20.8444525 55.3510497,25.8180628 C55.9286115,33.2784783 59.6491054,26.1128126 62.0318815,34.4819006 C64.4146576,42.8509885 70.4303177,37.36717 71.8394091,39.6063987 C72.7788034,41.0992178 70.3038862,43.3243949 64.4146576,46.2819299 L53.0713055,35.5240637 Z" id="Path-6" fill="#373A5B" fill-rule="nonzero" opacity="0.300000012" mask="url(#mask-13)"></path>
                                <path d="M6.10474398,64.1187126 C7.3453634,61.1094139 9.7798131,58.8876009 13.4080931,57.4532736 L12.959214,62.6366005 L7.60796931,64.9254548 L6.10474398,64.1187126 Z" id="Path-13" fill="#373A5B" fill-rule="nonzero" opacity="0.300000012" mask="url(#mask-13)"></path>
                                <path d="M78.6324982,10.8243554 C79.2056989,14.8777376 80.6684145,16.9044286 83.020645,16.9044286 C85.3728755,16.9044286 87.0238022,15.6798923 87.973425,13.2308195 L80.3588317,8.63834491 L78.6324982,10.8243554 Z" id="Path-20" fill="#373A5B" fill-rule="nonzero" opacity="0.300000012" mask="url(#mask-13)"></path>
                                <path d="M13.8542683,47.6218357 C23.773214,47.4115555 31.2384879,47.1528415 36.25009,46.8456936 C41.2616922,46.5385457 44.3695788,46.1492585 45.57375,45.677832 C38.7818373,48.0970477 34.1993238,49.3066556 31.8262094,49.3066556 C28.2665378,49.3066556 28.3739378,46.6986357 24.4740595,52.1102391 C20.5741811,57.5218425 17.4781675,50.6227213 13.8542683,60.8544589 C11.4383356,67.6756172 11.4383356,63.2647428 13.8542683,47.6218357 Z" id="Path-47" fill="#373A5B" fill-rule="nonzero" opacity="0.300000012" mask="url(#mask-13)"></path>
                                <path d="M36.9699153,40.0200729 L13.8542683,36.7132256 L14.1822987,30.8067552 L20.7298321,19.5015018 C21.0586425,20.6081856 20.3545225,23.4634955 18.6174722,28.0674314 C16.0118968,34.9733352 22.8733144,28.5547289 25.2826788,33.0654072 C26.8889217,36.0725261 30.7846672,38.390748 36.9699153,40.0200729 Z" id="Path-48" fill="#373A5B" fill-rule="nonzero" opacity="0.300000012" mask="url(#mask-13)"></path>
                            </g>
                            <g id="Head" transform="translate(23.976048, 0.000000)">
                                <path d="M5.67020671,2.06791988 C9.7371658,0.403210042 18.5590964,-1.58648179 20.5292577,3.0928401 C22.499419,7.77216199 24.8211328,13.5994963 21.2224496,16.0050363 C17.6237665,18.4105763 15.3223256,22.0934681 11.4608826,21.0275973 C8.88658723,20.3170168 6.60700394,21.041204 4.62213274,23.2001589 C3.21791754,23.0215156 2.34295121,22.5482958 1.99723375,21.7804996 C-1.51785721,13.9739121 0.111627563,4.34318776 5.67020671,2.06791988 Z" id="Path-2" fill="#E7E7E7" fill-rule="nonzero"></path>
                                <g id="Path-8" transform="translate(1.667037, 18.919160)">
                                    <mask id="mask-15" fill="white">
                                        <use xlink:href="#path-14"></use>
                                    </mask>
                                    <use id="Path-3" fill="#E7E7E7" fill-rule="nonzero" xlink:href="#path-14"></use>
                                </g>
                                <g id="Group" transform="translate(0.725470, 8.513622)">
                                    <mask id="mask-17" fill="white">
                                        <use xlink:href="#path-16"></use>
                                    </mask>
                                    <use id="Path" fill="#E7E7E7" fill-rule="nonzero" xlink:href="#path-16"></use>
                                </g>
                            </g>
                            <g id="Hands" transform="translate(0.000000, 28.524272)">
                                <g id="Path-21" transform="translate(53.227778, 0.000000)">
                                    <mask id="mask-19" fill="white">
                                        <use xlink:href="#path-18"></use>
                                    </mask>
                                    <use id="Path" fill="#E7E7E7" fill-rule="nonzero" xlink:href="#path-18"></use>
                                </g>
                                <g id="Group-2" transform="translate(0.000000, 21.722330)">
                                    <polygon id="Path-49" fill="#E7E7E7" fill-rule="nonzero" points="45.7255059 0.46167292 38.9380847 32.3567718 61.7294842 31.8594175 69.0067399 0.46167292"></polygon>
                                    <mask id="mask-21" fill="white">
                                        <use xlink:href="#path-20"></use>
                                    </mask>
                                    <use id="Path" fill="#E7E7E7" fill-rule="nonzero" xlink:href="#path-20"></use>
                                </g>
                            </g>
                        </g>
                        <text id="?" font-family="SofiaPro-Light, Sofia Pro" font-size="30" font-weight="300" fill="#6C7286">
                            <tspan x="193.195" y="136">?</tspan>
                        </text>
                    </g>
                </g>
            </g>
        </g>
    </g>
</svg>